<?xml version="1.0" encoding="UTF-8"?>
<svg version="1.1" xmlns="http://www.w3.org/2000/svg" width="1024" height="1024">
<path d="M0 0 C1.60279191 0.0002511 3.20558923 0.00581279 4.80834961 0.01586914 C5.55435425 0.01687622 6.30035889 0.0178833 7.06896973 0.0189209 C9.86622649 0.0241685 12.6634614 0.03812966 15.46069336 0.05102539 C21.71006836 0.07165039 27.95944336 0.09227539 34.39819336 0.11352539 C34.39819336 13.97352539 34.39819336 27.83352539 34.39819336 42.11352539 C47.80116106 42.40277501 47.80116106 42.40277501 61.2043457 42.68164062 C62.88094938 42.71975601 64.55754508 42.7582245 66.23413086 42.79711914 C67.1091626 42.81359497 67.98419434 42.8300708 68.88574219 42.8470459 C75.17004976 42.99945359 75.17004976 42.99945359 77.39819336 44.11352539 C77.81225586 47.05493164 77.81225586 47.05493164 78.02319336 50.67602539 C78.1353418 52.47233398 78.1353418 52.47233398 78.24975586 54.30493164 C78.29874023 55.23176758 78.34772461 56.15860352 78.39819336 57.11352539 C84.33819336 57.60852539 84.33819336 57.60852539 90.39819336 58.11352539 C91.45260406 61.76881583 92.49090151 65.41896758 93.39819336 69.11352539 C94.24124023 69.27208008 95.08428711 69.43063477 95.95288086 69.59399414 C97.04858398 69.82731445 98.14428711 70.06063477 99.27319336 70.30102539 C100.36374023 70.52145508 101.45428711 70.74188477 102.57788086 70.96899414 C105.39819336 72.11352539 105.39819336 72.11352539 106.78100586 74.47680664 C107.39819336 77.11352539 107.39819336 77.11352539 107.39819336 81.11352539 C108.49131836 80.92790039 109.58444336 80.74227539 110.71069336 80.55102539 C114.39819336 80.11352539 114.39819336 80.11352539 117.39819336 81.11352539 C118.05819336 78.14352539 118.71819336 75.17352539 119.39819336 72.11352539 C121.64428711 71.95076497 123.89038086 71.78800456 126.13647461 71.62524414 C128.85550972 71.01005658 129.78505242 70.37394545 131.39819336 68.11352539 C131.9351373 65.87410256 131.9351373 65.87410256 132.02319336 63.48852539 C132.31486003 59.19685872 132.31486003 59.19685872 133.39819336 58.11352539 C135.57838815 57.71686312 137.76783965 57.37037302 139.96069336 57.05102539 C141.15823242 56.87442383 142.35577148 56.69782227 143.58959961 56.51586914 C144.51643555 56.3830957 145.44327148 56.25032227 146.39819336 56.11352539 C146.44717773 55.34266602 146.49616211 54.57180664 146.54663086 53.77758789 C146.62139648 52.77469727 146.69616211 51.77180664 146.77319336 50.73852539 C146.84280273 49.74079102 146.91241211 48.74305664 146.98413086 47.71508789 C147.39819336 45.11352539 147.39819336 45.11352539 149.39819336 43.11352539 C152.32336005 42.8797607 155.16089914 42.76396885 158.08959961 42.73461914 C158.95004379 42.71762466 159.81048798 42.70063019 160.69700623 42.68312073 C163.45149365 42.62988464 166.20596514 42.58964196 168.96069336 42.55102539 C171.71891506 42.50716039 174.47701708 42.46051136 177.23509216 42.40821838 C178.95331375 42.37615694 180.67164138 42.34929982 182.39002991 42.32798767 C186.20415945 42.63018805 186.20415945 42.63018805 189.39819336 41.11352539 C189.54613755 38.16989362 189.63330052 35.24677313 189.67944336 32.30102539 C189.7070575 30.97494263 189.7070575 30.97494263 189.73522949 29.62207031 C189.79417436 26.78595841 189.84691255 23.94978563 189.89819336 21.11352539 C189.96562074 17.38422418 190.03928916 13.65512607 190.11694336 9.92602539 C190.1305188 9.05937256 190.14409424 8.19271973 190.15808105 7.29980469 C190.28539155 1.2263272 190.28539155 1.2263272 191.39819336 0.11352539 C193.77387856 0.02512869 196.1202801 -0.00177766 198.49584961 0.01586914 C199.55913734 0.01799156 199.55913734 0.01799156 200.64390564 0.02015686 C202.91621048 0.02577096 205.18841811 0.03832576 207.46069336 0.05102539 C208.99780132 0.05603858 210.53491081 0.0606018 212.07202148 0.06469727 C215.84744978 0.07574497 219.62280507 0.09301898 223.39819336 0.11352539 C224.84027277 2.99768422 224.49214223 5.53074068 224.46069336 8.73852539 C224.45166992 9.92704102 224.44264648 11.11555664 224.43334961 12.34008789 C224.41594727 13.71293945 224.41594727 13.71293945 224.39819336 15.11352539 C226.00500977 15.09612305 226.00500977 15.09612305 227.64428711 15.07836914 C229.04142079 15.0689924 230.43855635 15.05989208 231.83569336 15.05102539 C232.54274414 15.04264648 233.24979492 15.03426758 233.97827148 15.02563477 C235.78512895 15.01698951 237.59206939 15.06132528 239.39819336 15.11352539 C241.17309882 16.88843085 240.63319308 19.49137441 240.71459961 21.89868164 C240.75649414 23.06850586 240.79838867 24.23833008 240.84155273 25.44360352 C240.88086914 26.67530273 240.92018555 27.90700195 240.96069336 29.17602539 C241.00387695 30.4115918 241.04706055 31.6471582 241.09155273 32.92016602 C241.19803534 35.98449875 241.3000476 39.04891612 241.39819336 42.11352539 C242.18057373 42.13858154 242.9629541 42.1636377 243.76904297 42.18945312 C247.29144285 42.30502327 250.81354896 42.42792488 254.33569336 42.55102539 C255.56739258 42.5903418 256.7990918 42.6296582 258.06811523 42.67016602 C259.82285156 42.73300781 259.82285156 42.73300781 261.61303711 42.79711914 C262.69705811 42.83377686 263.7810791 42.87043457 264.89794922 42.90820312 C267.39819336 43.11352539 267.39819336 43.11352539 268.39819336 44.11352539 C268.72265673 47.21395312 268.91153777 50.31559789 269.11694336 53.42602539 C269.10427135 56.02949291 269.10427135 56.02949291 270.39819336 57.11352539 C272.66147591 57.18566189 274.90823929 57.11000628 277.17163086 57.05102539 C279.39819336 57.11352539 279.39819336 57.11352539 282.39819336 58.11352539 C283.13651944 62.43800672 283.78994301 66.76888003 284.39819336 71.11352539 C288.02819336 71.11352539 291.65819336 71.11352539 295.39819336 71.11352539 C297.33185236 74.98084339 297.67957367 76.59677501 297.81225586 80.75415039 C297.85092773 81.82407227 297.88959961 82.89399414 297.92944336 83.99633789 C297.97584961 85.6630957 297.97584961 85.6630957 298.02319336 87.36352539 C298.06186523 88.49016602 298.10053711 89.61680664 298.14038086 90.77758789 C298.23456318 93.55596648 298.31746364 96.33472338 298.39819336 99.11352539 C302.68819336 99.44352539 306.97819336 99.77352539 311.39819336 100.11352539 C311.40850082 101.2992514 311.41880829 102.48497742 311.4294281 103.70663452 C311.52702821 114.86090228 311.62974938 126.01511258 311.73753262 137.16928673 C311.79278399 142.90426049 311.84620753 148.63923933 311.89550781 154.37426758 C311.94311869 159.90505145 311.99546029 165.43577187 312.05113411 170.96648026 C312.07157253 173.08045504 312.09028311 175.19444724 312.10726738 177.30845261 C312.13127848 180.2609565 312.16133751 183.21333973 312.19287109 186.16577148 C312.19862656 187.04690109 312.20438202 187.9280307 312.21031189 188.83586121 C312.14059544 193.11036938 312.14059544 193.11036938 313.39819336 197.11352539 C315.75418571 197.58104327 315.75418571 197.58104327 318.46069336 197.73852539 C319.37979492 197.81329102 320.29889648 197.88805664 321.24584961 197.96508789 C321.95612305 198.01407227 322.66639648 198.06305664 323.39819336 198.11352539 C323.36338867 196.97463867 323.36338867 196.97463867 323.32788086 195.81274414 C323.30081055 194.32194336 323.30081055 194.32194336 323.27319336 192.80102539 C323.24999023 191.81489258 323.22678711 190.82875977 323.20288086 189.81274414 C323.39819336 187.11352539 323.39819336 187.11352539 325.39819336 184.11352539 C328.3711431 183.77588951 331.14561837 183.62439501 334.12475586 183.60180664 C334.98757172 183.58385544 335.85038757 183.56590424 336.73934937 183.54740906 C339.50058067 183.49314019 342.26163754 183.45935782 345.02319336 183.42602539 C346.89300939 183.39286689 348.76280235 183.35837861 350.63256836 183.32250977 C355.22098445 183.23740444 359.80934732 183.17067285 364.39819336 183.11352539 C364.42324951 181.90704346 364.44830566 180.70056152 364.47412109 179.45751953 C364.56801859 174.99776878 364.66828169 170.53818026 364.77050781 166.07861328 C364.81392377 164.14538355 364.85559378 162.2121138 364.89550781 160.27880859 C364.95304967 157.50614337 365.01678956 154.73368082 365.08178711 151.96118164 C365.0984996 151.09139175 365.1152121 150.22160187 365.13243103 149.32545471 C365.28432165 143.2273971 365.28432165 143.2273971 366.39819336 142.11352539 C370.67793589 141.72755618 374.9795431 141.64300593 379.27319336 141.48852539 C380.48362305 141.43696289 381.69405273 141.38540039 382.94116211 141.33227539 C384.67946289 141.2665332 384.67946289 141.2665332 386.45288086 141.19946289 C388.05365479 141.13831299 388.05365479 141.13831299 389.68676758 141.07592773 C392.39819336 141.11352539 392.39819336 141.11352539 395.39819336 142.11352539 C395.72819336 146.40352539 396.05819336 150.69352539 396.39819336 155.11352539 C400.68819336 155.44352539 404.97819336 155.77352539 409.39819336 156.11352539 C410.38783573 159.0824525 410.55093063 161.12502447 410.60351562 164.22753906 C410.62346085 165.26839157 410.64340607 166.30924408 410.66395569 167.38163757 C410.68066818 168.50359024 410.69738068 169.62554291 410.71459961 170.78149414 C410.73538071 171.93144363 410.7561618 173.08139313 410.77757263 174.26618958 C410.84302678 177.94440664 410.9019341 181.62269587 410.96069336 185.30102539 C411.00388249 187.79256935 411.04749691 190.28410598 411.09155273 192.77563477 C411.19870397 198.8881884 411.30047819 205.00081403 411.39819336 211.11352539 C412.2528418 211.17411133 413.10749023 211.23469727 413.98803711 211.29711914 C415.09276367 211.3809082 416.19749023 211.46469727 417.33569336 211.55102539 C418.98891602 211.6728418 418.98891602 211.6728418 420.67553711 211.79711914 C423.39819336 212.11352539 423.39819336 212.11352539 424.39819336 213.11352539 C424.63247114 215.12947121 424.8115546 217.15199939 424.96069336 219.17602539 C425.04448242 220.28075195 425.12827148 221.38547852 425.21459961 222.52368164 C425.27518555 223.37833008 425.33577148 224.23297852 425.39819336 225.11352539 C428.23443376 225.73365253 430.60184576 226.10945234 433.52319336 226.05102539 C436.39819336 226.11352539 436.39819336 226.11352539 439.39819336 228.11352539 C439.77292347 230.30620575 439.77292347 230.30620575 439.77241516 233.08605957 C439.77942947 234.13768784 439.78644379 235.1893161 439.79367065 236.27281189 C439.78602692 237.43132156 439.77838318 238.58983124 439.77050781 239.78344727 C439.77415848 240.99972305 439.77780914 242.21599884 439.78157043 243.46913147 C439.7883013 246.8101526 439.78154234 250.15061967 439.76823831 253.49158669 C439.75694187 256.98336469 439.76102991 260.47512793 439.76298523 263.96691895 C439.76386878 269.83142892 439.75277513 275.69582343 439.734375 281.56030273 C439.71320638 288.34612507 439.7096971 295.1317782 439.71593696 301.91762686 C439.72162642 308.43807306 439.71598992 314.95845951 439.70476341 321.47889709 C439.70011185 324.25717775 439.69924597 327.03542194 439.70134926 329.81370544 C439.70357802 333.69040254 439.68914176 337.56693783 439.67285156 341.44360352 C439.67656769 343.18136803 439.67656769 343.18136803 439.68035889 344.95423889 C439.67327408 346.00586716 439.66618927 347.05749542 439.65888977 348.14099121 C439.6568369 349.05834297 439.65478403 349.97569473 439.65266895 350.92084503 C439.39819336 353.11352539 439.39819336 353.11352539 437.39819336 355.11352539 C434.57788086 355.52758789 434.57788086 355.52758789 431.27319336 355.73852539 C429.62963867 355.85067383 429.62963867 355.85067383 427.95288086 355.96508789 C427.10983398 356.01407227 426.26678711 356.06305664 425.39819336 356.11352539 C425.37313721 357.28447754 425.34808105 358.45542969 425.32226562 359.66186523 C425.22825633 363.99677917 425.12801995 368.33153043 425.02587891 372.66625977 C424.98250547 374.54415081 424.94083218 376.42208191 424.90087891 378.30004883 C424.8432346 380.99580979 424.77952355 383.69136866 424.71459961 386.38696289 C424.69788712 387.22971771 424.68117462 388.07247253 424.66395569 388.94076538 C424.51206507 394.88578198 424.51206507 394.88578198 423.39819336 397.11352539 C420.67553711 397.52758789 420.67553711 397.52758789 417.33569336 397.73852539 C415.67860352 397.85067383 415.67860352 397.85067383 413.98803711 397.96508789 C413.13338867 398.01407227 412.27874023 398.06305664 411.39819336 398.11352539 C411.33760742 398.96817383 411.27702148 399.82282227 411.21459961 400.70336914 C411.13081055 401.8080957 411.04702148 402.91282227 410.96069336 404.05102539 C410.87948242 405.15317383 410.79827148 406.25532227 410.71459961 407.39086914 C410.39819336 410.11352539 410.39819336 410.11352539 409.39819336 411.11352539 C405.07328483 411.5787546 400.73883799 411.81853012 396.39819336 412.11352539 C396.39819336 420.69352539 396.39819336 429.27352539 396.39819336 438.11352539 C392.5888263 439.63727222 390.45087121 440.39239006 386.58569336 440.73852539 C385.79549805 440.81329102 385.00530273 440.88805664 384.19116211 440.96508789 C383.59948242 441.01407227 383.00780273 441.06305664 382.39819336 441.11352539 C382.38788589 441.96321396 382.37757843 442.81290253 382.36695862 443.68833923 C382.26915647 451.6789648 382.16666718 459.66951332 382.0588541 467.66001034 C382.00358753 471.76842956 381.95016171 475.87685586 381.90087891 479.98535156 C381.85329023 483.94705665 381.80094969 487.90867257 381.74525261 491.87027168 C381.72480405 493.38498286 381.70609519 494.89971851 381.68911934 496.41447258 C381.66513037 498.52900965 381.63506886 500.64337674 381.60351562 502.7578125 C381.5801992 504.56650063 381.5801992 504.56650063 381.55641174 506.41172791 C381.39819336 509.11352539 381.39819336 509.11352539 380.39819336 510.11352539 C378.38224754 510.34780317 376.35971936 510.52688663 374.33569336 510.67602539 C372.67860352 510.80170898 372.67860352 510.80170898 370.98803711 510.92993164 C370.13338867 510.99051758 369.27874023 511.05110352 368.39819336 511.11352539 C368.37631958 512.91539307 368.37631958 512.91539307 368.35400391 514.75366211 C368.29613344 519.20058312 368.21890074 523.64699173 368.13574219 528.09350586 C368.10243967 530.01985371 368.07442446 531.94630038 368.05175781 533.87280273 C368.01830912 536.63836889 367.966 539.40302492 367.90991211 542.16821289 C367.90352219 543.03284149 367.89713226 543.89747009 367.89054871 544.78829956 C367.83056641 547.21459961 367.83056641 547.21459961 367.39819336 551.11352539 C363.72380449 553.56311797 361.72983143 553.19087607 357.39819336 553.11352539 C356.40819336 553.44352539 355.41819336 553.77352539 354.39819336 554.11352539 C354.34920898 554.88438477 354.30022461 555.65524414 354.24975586 556.44946289 C354.17499023 557.45235352 354.10022461 558.45524414 354.02319336 559.48852539 C353.9187793 560.98512695 353.9187793 560.98512695 353.81225586 562.51196289 C353.39819336 565.11352539 353.39819336 565.11352539 351.39819336 567.11352539 C348.79663086 567.52758789 348.79663086 567.52758789 345.77319336 567.73852539 C344.77030273 567.81329102 343.76741211 567.88805664 342.73413086 567.96508789 C341.96327148 568.01407227 341.19241211 568.06305664 340.39819336 568.11352539 C340.37313721 568.89590576 340.34808105 569.67828613 340.32226562 570.484375 C340.20669548 574.00677488 340.08379387 577.52888099 339.96069336 581.05102539 C339.90171875 582.89857422 339.90171875 582.89857422 339.84155273 584.78344727 C339.77871094 586.53818359 339.77871094 586.53818359 339.71459961 588.32836914 C339.67794189 589.41239014 339.64128418 590.49641113 339.60351562 591.61328125 C339.39819336 594.11352539 339.39819336 594.11352539 338.39819336 595.11352539 C336.38224754 595.34780317 334.35971936 595.52688663 332.33569336 595.67602539 C331.2309668 595.75981445 330.12624023 595.84360352 328.98803711 595.92993164 C328.13338867 595.99051758 327.27874023 596.05110352 326.39819336 596.11352539 C326.34920898 596.88438477 326.30022461 597.65524414 326.24975586 598.44946289 C326.17499023 599.45235352 326.10022461 600.45524414 326.02319336 601.48852539 C325.9187793 602.98512695 325.9187793 602.98512695 325.81225586 604.51196289 C325.39819336 607.11352539 325.39819336 607.11352539 323.39819336 609.11352539 C320.79663086 609.52758789 320.79663086 609.52758789 317.77319336 609.73852539 C316.77030273 609.81329102 315.76741211 609.88805664 314.73413086 609.96508789 C313.96327148 610.01407227 313.19241211 610.06305664 312.39819336 610.11352539 C312.34920898 610.96817383 312.30022461 611.82282227 312.24975586 612.70336914 C312.17499023 613.8080957 312.10022461 614.91282227 312.02319336 616.05102539 C311.9187793 617.70424805 311.9187793 617.70424805 311.81225586 619.39086914 C311.67561523 620.2893457 311.53897461 621.18782227 311.39819336 622.11352539 C308.82925498 623.39799458 306.63242999 623.44329683 303.77319336 623.67602539 C302.77030273 623.75981445 301.76741211 623.84360352 300.73413086 623.92993164 C299.96327148 623.99051758 299.19241211 624.05110352 298.39819336 624.11352539 C298.34920898 624.88438477 298.30022461 625.65524414 298.24975586 626.44946289 C298.17499023 627.45235352 298.10022461 628.45524414 298.02319336 629.48852539 C297.95358398 630.48625977 297.88397461 631.48399414 297.81225586 632.51196289 C297.39819336 635.11352539 297.39819336 635.11352539 295.39819336 637.11352539 C292.79663086 637.52758789 292.79663086 637.52758789 289.77319336 637.73852539 C288.77030273 637.81329102 287.76741211 637.88805664 286.73413086 637.96508789 C285.96327148 638.01407227 285.19241211 638.06305664 284.39819336 638.11352539 C283.72373389 641.16966987 283.39819336 643.70084318 283.39819336 646.86352539 C283.39819336 647.93602539 283.39819336 649.00852539 283.39819336 650.11352539 C282.39819336 651.11352539 282.39819336 651.11352539 279.80615234 651.22705078 C278.68023682 651.22181396 277.55432129 651.21657715 276.39428711 651.21118164 C275.1793457 651.20795898 273.9644043 651.20473633 272.71264648 651.20141602 C271.43325195 651.19303711 270.15385742 651.1846582 268.83569336 651.17602539 C267.55243164 651.17151367 266.26916992 651.16700195 264.94702148 651.16235352 C261.76403314 651.15052085 258.58113574 651.13403607 255.39819336 651.11352539 C255.42139648 651.70520508 255.44459961 652.29688477 255.46850586 652.90649414 C255.48655273 653.69668945 255.50459961 654.48688477 255.52319336 655.30102539 C255.54639648 656.07833008 255.56959961 656.85563477 255.59350586 657.65649414 C255.39819336 660.11352539 255.39819336 660.11352539 253.39819336 665.11352539 C244.15819336 665.44352539 234.91819336 665.77352539 225.39819336 666.11352539 C225.39819336 670.07352539 225.39819336 674.03352539 225.39819336 678.11352539 C223.63071477 679.88100398 221.28400392 679.23602893 218.92979664 679.2426067 C218.13895603 679.23969386 217.34811541 679.23678102 216.53330994 679.23377991 C215.69941083 679.23463433 214.86551172 679.23548876 214.00634295 679.23636907 C211.19024247 679.23802644 208.37420053 679.23249834 205.55810547 679.22705078 C203.54813132 679.22676894 201.53815707 679.22692659 199.52818298 679.22749329 C194.05320126 679.22778138 188.57824123 679.22188282 183.10326457 679.21491933 C177.38838863 679.20868767 171.67351224 679.20808214 165.95863342 679.20689392 C155.1284591 679.20378005 144.29829482 679.19556591 133.46812493 679.18554443 C121.14185634 679.17438503 108.81558729 679.16887328 96.48931491 679.163849 C71.12560215 679.15338334 45.76189832 679.13578282 20.39819336 679.11352539 C19.11372417 676.54458701 19.06842192 674.34776202 18.83569336 671.48852539 C18.7519043 670.48563477 18.66811523 669.48274414 18.58178711 668.44946289 C18.52120117 667.67860352 18.46061523 666.90774414 18.39819336 666.11352539 C17.74086716 666.11796661 17.08354095 666.12240784 16.40629578 666.12698364 C9.57720102 666.17116199 2.74814673 666.20136893 -4.08105469 666.22338867 C-6.63120166 666.23345867 -9.18133706 666.24711543 -11.73144531 666.2644043 C-15.39268854 666.28860851 -19.05377938 666.29999844 -22.71508789 666.30883789 C-24.43082756 666.32432175 -24.43082756 666.32432175 -26.18122864 666.34011841 C-27.2421019 666.34026947 -28.30297516 666.34042053 -29.39599609 666.34057617 C-30.33087357 666.3450174 -31.26575104 666.34945862 -32.22895813 666.35403442 C-34.60180664 666.11352539 -34.60180664 666.11352539 -37.60180664 664.11352539 C-38.11352539 661.29321289 -38.11352539 661.29321289 -38.28930664 657.98852539 C-38.35504883 656.89282227 -38.42079102 655.79711914 -38.48852539 654.66821289 C-38.54459961 653.40364258 -38.54459961 653.40364258 -38.60180664 652.11352539 C-39.3789502 652.08846924 -40.15609375 652.06341309 -40.95678711 652.03759766 C-44.46363734 651.92185743 -47.97020409 651.79903187 -51.47680664 651.67602539 C-53.31178711 651.61705078 -53.31178711 651.61705078 -55.18383789 651.55688477 C-56.93374023 651.49404297 -56.93374023 651.49404297 -58.71899414 651.42993164 C-59.79777832 651.39327393 -60.8765625 651.35661621 -61.98803711 651.31884766 C-64.60180664 651.11352539 -64.60180664 651.11352539 -66.60180664 650.11352539 C-67.01586914 647.39086914 -67.01586914 647.39086914 -67.22680664 644.05102539 C-67.33895508 642.39393555 -67.33895508 642.39393555 -67.45336914 640.70336914 C-67.5268457 639.42139648 -67.5268457 639.42139648 -67.60180664 638.11352539 C-68.37266602 638.06454102 -69.14352539 638.01555664 -69.93774414 637.96508789 C-70.94063477 637.89032227 -71.94352539 637.81555664 -72.97680664 637.73852539 C-74.4734082 637.63411133 -74.4734082 637.63411133 -76.00024414 637.52758789 C-78.60180664 637.11352539 -78.60180664 637.11352539 -80.60180664 635.11352539 C-81.18365684 631.45774964 -81.34384885 627.81092033 -81.60180664 624.11352539 C-85.89180664 623.45352539 -90.18180664 622.79352539 -94.60180664 622.11352539 C-94.66239258 620.32043945 -94.72297852 618.52735352 -94.78540039 616.67993164 C-94.86978513 614.34528715 -94.95443415 612.0106522 -95.03930664 609.67602539 C-95.07862305 608.49202148 -95.11793945 607.30801758 -95.15844727 606.08813477 C-95.2003418 604.96342773 -95.24223633 603.8387207 -95.28540039 602.67993164 C-95.32205811 601.63780518 -95.35871582 600.59567871 -95.39648438 599.52197266 C-95.33696005 597.16354279 -95.33696005 597.16354279 -96.60180664 596.11352539 C-98.78200143 595.71686312 -100.97145294 595.37037302 -103.16430664 595.05102539 C-104.3618457 594.87442383 -105.55938477 594.69782227 -106.79321289 594.51586914 C-107.72004883 594.3830957 -108.64688477 594.25032227 -109.60180664 594.11352539 C-109.60180664 589.82352539 -109.60180664 585.53352539 -109.60180664 581.11352539 C-112.78836914 581.14446289 -112.78836914 581.14446289 -116.03930664 581.17602539 C-118.22680275 581.19726322 -120.41541211 581.18611485 -122.60180664 581.11352539 C-123.60180664 580.11352539 -123.60180664 580.11352539 -123.71533203 577.52148438 C-123.70747681 575.83261108 -123.70747681 575.83261108 -123.69946289 574.10961914 C-123.69462891 572.28720703 -123.69462891 572.28720703 -123.68969727 570.42797852 C-123.67712891 568.50888672 -123.67712891 568.50888672 -123.66430664 566.55102539 C-123.65979492 565.26776367 -123.6552832 563.98450195 -123.65063477 562.66235352 C-123.6388021 559.47936517 -123.62231732 556.29646777 -123.60180664 553.11352539 C-124.43325195 553.13672852 -125.26469727 553.15993164 -126.12133789 553.18383789 C-127.75135742 553.2109082 -127.75135742 553.2109082 -129.41430664 553.23852539 C-130.49325195 553.26172852 -131.57219727 553.28493164 -132.68383789 553.30883789 C-135.60180664 553.11352539 -135.60180664 553.11352539 -138.60180664 551.11352539 C-138.93941699 548.06912263 -139.09098107 545.21871299 -139.11352539 542.16821289 C-139.13147659 541.28320099 -139.1494278 540.39818909 -139.16792297 539.48635864 C-139.22219649 536.65379635 -139.25597583 533.82140414 -139.28930664 530.98852539 C-139.32246472 529.07053288 -139.35695295 527.15256286 -139.39282227 525.23461914 C-139.47793257 520.52771033 -139.54466201 515.82085345 -139.60180664 511.11352539 C-140.38426758 511.06454102 -141.16672852 511.01555664 -141.97290039 510.96508789 C-142.98481445 510.89032227 -143.99672852 510.81555664 -145.03930664 510.73852539 C-146.04864258 510.66891602 -147.05797852 510.59930664 -148.09790039 510.52758789 C-148.92418945 510.39094727 -149.75047852 510.25430664 -150.60180664 510.11352539 C-151.9772128 507.36271306 -151.74172061 505.13784728 -151.75952148 502.05908203 C-151.76978363 500.78758804 -151.78004578 499.51609406 -151.7906189 498.20606995 C-151.79405682 497.52467012 -151.79749474 496.8432703 -151.80103683 496.141222 C-151.81281741 494.01042984 -151.83226706 491.87984115 -151.85415649 489.74913025 C-151.91580641 483.69073233 -151.96985195 477.63235565 -152.00317383 471.57373047 C-152.02409983 467.86893531 -152.05938434 464.16451164 -152.10393143 460.45992851 C-152.11810704 459.04737147 -152.1268174 457.63474871 -152.12998581 456.2221241 C-152.13488502 454.24712383 -152.15963591 452.27220284 -152.18530273 450.29736328 C-152.19338959 449.1731044 -152.20147644 448.04884552 -152.20980835 446.89051819 C-152.37607851 444.10904662 -152.37607851 444.10904662 -153.9750061 442.27049255 C-156.16357588 440.71399972 -158.08701001 440.41181639 -160.72680664 439.98852539 C-165.51847331 439.19685872 -165.51847331 439.19685872 -166.60180664 438.11352539 C-166.75966972 436.26177833 -166.8528802 434.40443429 -166.91821289 432.54711914 C-166.96010742 431.42241211 -167.00200195 430.29770508 -167.04516602 429.13891602 C-167.08448242 427.95491211 -167.12379883 426.7709082 -167.16430664 425.55102539 C-167.20749023 424.3631543 -167.25067383 423.1752832 -167.29516602 421.95141602 C-167.4016421 419.00557755 -167.50365505 416.05965109 -167.60180664 413.11352539 C-168.45645508 412.98075195 -169.31110352 412.84797852 -170.19165039 412.71118164 C-171.29637695 412.53458008 -172.40110352 412.35797852 -173.53930664 412.17602539 C-175.1925293 411.91499023 -175.1925293 411.91499023 -176.87915039 411.64868164 C-179.60180664 411.11352539 -179.60180664 411.11352539 -180.60180664 410.11352539 C-180.84453987 407.56482647 -180.98547531 405.01748007 -181.12524414 402.46118164 C-181.38915191 399.74607893 -181.38915191 399.74607893 -184.60180664 398.11352539 C-187.90180664 397.78352539 -191.20180664 397.45352539 -194.60180664 397.11352539 C-194.60180664 383.58352539 -194.60180664 370.05352539 -194.60180664 356.11352539 C-198.89180664 355.78352539 -203.18180664 355.45352539 -207.60180664 355.11352539 C-209.60180664 353.11352539 -209.60180664 353.11352539 -209.83507824 351.12107754 C-209.82715913 350.29829343 -209.81924002 349.47550932 -209.81108093 348.62779236 C-209.80686127 347.68410294 -209.8026416 346.74041351 -209.79829407 345.76812744 C-209.78332382 344.72960632 -209.76835358 343.69108521 -209.75292969 342.62109375 C-209.74507446 341.53000809 -209.73721924 340.43892242 -209.72912598 339.31477356 C-209.70045738 335.69414373 -209.65722579 332.07384639 -209.61352539 328.45336914 C-209.58990484 325.94756238 -209.56703097 323.44174849 -209.5448761 320.93592834 C-209.49628008 315.67921094 -209.44114352 310.4226045 -209.38037109 305.16601562 C-209.31008195 299.08124476 -209.25028525 292.99644345 -209.19651192 286.91150564 C-209.14476372 281.06592148 -209.08724552 275.22041008 -209.02674294 269.37491035 C-209.00124163 266.8833084 -208.97695054 264.39169377 -208.95386314 261.90006828 C-208.92053601 258.42548916 -208.88068918 254.95104837 -208.83886719 251.4765625 C-208.82996964 250.43601715 -208.82107208 249.3954718 -208.81190491 248.32339478 C-208.79922577 247.38252518 -208.78654663 246.44165558 -208.77348328 245.47227478 C-208.76443309 244.6498677 -208.7553829 243.82746061 -208.74605846 242.9801321 C-208.60180664 241.11352539 -208.60180664 241.11352539 -207.60180664 240.11352539 C-204.76208129 239.79001238 -201.92106927 239.60048249 -199.07055664 239.39477539 C-196.66044614 239.37967274 -196.66044614 239.37967274 -195.60180664 238.11352539 C-195.44374133 236.18873726 -195.35067164 234.25853329 -195.28540039 232.32836914 C-195.24350586 231.15854492 -195.20161133 229.9887207 -195.15844727 228.78344727 C-195.11913086 227.55174805 -195.07981445 226.32004883 -195.03930664 225.05102539 C-194.99612305 223.81545898 -194.95293945 222.57989258 -194.90844727 221.30688477 C-194.80196553 218.24257698 -194.70134599 215.17806654 -194.60180664 212.11352539 C-189.98180664 211.78352539 -185.36180664 211.45352539 -180.60180664 211.11352539 C-180.45743164 209.15415039 -180.31305664 207.19477539 -180.16430664 205.17602539 C-179.72680664 199.23852539 -179.72680664 199.23852539 -178.60180664 198.11352539 C-176.75288718 197.87988658 -174.89692633 197.70048904 -173.03930664 197.55102539 C-172.02739258 197.46723633 -171.01547852 197.38344727 -169.97290039 197.29711914 C-169.19043945 197.2365332 -168.40797852 197.17594727 -167.60180664 197.11352539 C-166.81132859 192.26951327 -166.49352039 187.65963839 -166.53930664 182.75415039 C-166.54309326 182.08309265 -166.54687988 181.41203491 -166.55078125 180.72064209 C-166.56287951 178.60153396 -166.58151946 176.48256992 -166.60180664 174.36352539 C-166.628416 171.55623757 -166.64837447 168.74901677 -166.66430664 165.94165039 C-166.6759082 164.70318359 -166.68750977 163.4647168 -166.69946289 162.1887207 C-166.60180664 159.11352539 -166.60180664 159.11352539 -165.60180664 156.11352539 C-161.31180664 155.78352539 -157.02180664 155.45352539 -152.60180664 155.11352539 C-152.45743164 153.17477539 -152.31305664 151.23602539 -152.16430664 149.23852539 C-151.72680664 143.36352539 -151.72680664 143.36352539 -150.60180664 141.11352539 C-148.47687523 141.08658964 -146.35184752 141.06715911 -144.22680664 141.05102539 C-143.04344727 141.03942383 -141.86008789 141.02782227 -140.64086914 141.01586914 C-137.60180664 141.11352539 -137.60180664 141.11352539 -135.60180664 142.11352539 C-135.60180664 146.73352539 -135.60180664 151.35352539 -135.60180664 156.11352539 C-130.98180664 156.11352539 -126.36180664 156.11352539 -121.60180664 156.11352539 C-120.24480017 158.82753833 -120.48942054 160.96198855 -120.50415039 163.99633789 C-120.50664795 165.04708496 -120.50914551 166.09783203 -120.51171875 167.18041992 C-120.52082275 168.51959473 -120.52992676 169.85876953 -120.53930664 171.23852539 C-120.55993164 175.48727539 -120.58055664 179.73602539 -120.60180664 184.11352539 C-111.69180664 184.11352539 -102.78180664 184.11352539 -93.60180664 184.11352539 C-92.25089136 186.81535595 -92.26322606 189.23160745 -92.03930664 192.23852539 C-91.95551758 193.33422852 -91.87172852 194.42993164 -91.78540039 195.55883789 C-91.72481445 196.40188477 -91.66422852 197.24493164 -91.60180664 198.11352539 C-88.30180664 197.78352539 -85.00180664 197.45352539 -81.60180664 197.11352539 C-80.61985186 190.606142 -80.48619465 184.28917203 -80.53930664 177.71508789 C-80.5478649 175.45288122 -80.55632463 173.19067417 -80.56469727 170.9284668 C-80.57090088 169.7529425 -80.57710449 168.57741821 -80.58349609 167.36627197 C-80.69507452 145.25998288 -80.49735955 123.20224269 -79.60180664 101.11352539 C-75.96142109 99.12859111 -72.7088554 98.65596579 -68.60180664 98.11352539 C-66.60007397 96.11179272 -67.22683021 92.17645647 -67.07836914 89.46118164 C-66.60180664 87.11352539 -66.60180664 87.11352539 -63.60180664 85.11352539 C-60.90258789 84.91821289 -60.90258789 84.91821289 -57.91430664 84.98852539 C-56.92043945 85.00657227 -55.92657227 85.02461914 -54.90258789 85.04321289 C-54.14333008 85.06641602 -53.38407227 85.08961914 -52.60180664 85.11352539 C-52.57675049 84.3666748 -52.55169434 83.61982422 -52.52587891 82.8503418 C-52.41012451 79.47955272 -52.28730536 76.10905756 -52.16430664 72.73852539 C-52.12499023 71.56290039 -52.08567383 70.38727539 -52.04516602 69.17602539 C-52.00327148 68.05454102 -51.96137695 66.93305664 -51.91821289 65.77758789 C-51.86322632 64.22225342 -51.86322632 64.22225342 -51.80712891 62.63549805 C-51.60180664 60.11352539 -51.60180664 60.11352539 -50.60180664 58.11352539 C-38.22680664 57.61852539 -38.22680664 57.61852539 -25.60180664 57.11352539 C-25.41618164 53.92696289 -25.41618164 53.92696289 -25.22680664 50.67602539 C-25.01586914 47.05493164 -25.01586914 47.05493164 -24.60180664 44.11352539 C-22.16792911 42.89658663 -20.18341818 42.79392643 -17.47680664 42.55102539 C-16.56672852 42.46723633 -15.65665039 42.38344727 -14.71899414 42.29711914 C-14.02032227 42.2365332 -13.32165039 42.17594727 -12.60180664 42.11352539 C-11.73422836 36.9419455 -11.50475265 32.03708827 -11.60180664 26.80102539 C-11.73561865 19.38114941 -11.73561865 19.38114941 -10.60180664 17.11352539 C-8.62180664 17.11352539 -6.64180664 17.11352539 -4.60180664 17.11352539 C-4.6134082 15.97012695 -4.62500977 14.82672852 -4.63696289 13.64868164 C-4.64633952 12.15779785 -4.65543985 10.6669123 -4.66430664 9.17602539 C-4.67268555 8.4212793 -4.68106445 7.6665332 -4.68969727 6.88891602 C-4.69833105 4.96358226 -4.65404997 3.03816958 -4.60180664 1.11352539 C-3.60180664 0.11352539 -3.60180664 0.11352539 0 0 Z " fill="#F7F7F7" transform="translate(391.601806640625,176.886474609375)"/>
<path d="M0 0 C27.72 0 55.44 0 84 0 C84 4.95 84 9.9 84 15 C87.1865625 14.9690625 87.1865625 14.9690625 90.4375 14.9375 C92.62499611 14.91626217 94.81360547 14.92741054 97 15 C98 16 98 16 98.09765625 18.94140625 C98.06510417 22.29427083 98.03255208 25.64713542 98 29 C102.62 29 107.24 29 112 29 C112 43.19 112 57.38 112 72 C116.62 72 121.24 72 126 72 C126 76.62 126 81.24 126 86 C133.59 86 141.18 86 149 86 C149 90.29 149 94.58 149 99 C153.95 99 158.9 99 164 99 C164 103.95 164 108.9 164 114 C168.62 114 173.24 114 178 114 C178 137.43 178 160.86 178 185 C173.38 185 168.76 185 164 185 C164 189.62 164 194.24 164 199 C142.22 199 120.44 199 98 199 C98 194.05 98 189.1 98 184 C61.04 184 24.08 184 -14 184 C-14 188.95 -14 193.9 -14 199 C-37.43 199 -60.86 199 -85 199 C-85 194.05 -85 189.1 -85 184 C-89.95 184 -94.9 184 -100 184 C-100 160.9 -100 137.8 -100 114 C-95.38 114 -90.76 114 -86 114 C-86.020625 111.710625 -86.04125 109.42125 -86.0625 107.0625 C-86.08370868 104.70833668 -86.07271741 102.35313555 -86 100 C-85 99 -85 99 -81.83984375 98.90234375 C-80.55207031 98.91394531 -79.26429688 98.92554688 -77.9375 98.9375 C-76.00197266 98.95103516 -76.00197266 98.95103516 -74.02734375 98.96484375 C-73.02832031 98.97644531 -72.02929688 98.98804688 -71 99 C-71 94.71 -71 90.42 -71 86 C-66.38 86 -61.76 86 -57 86 C-57 81.38 -57 76.76 -57 72 C-52.38 72 -47.76 72 -43 72 C-43 67.38 -43 62.76 -43 58 C-38.38 58 -33.76 58 -29 58 C-29 48.43 -29 38.86 -29 29 C-24.38 29 -19.76 29 -15 29 C-15 24.38 -15 19.76 -15 15 C-10.05 15 -5.1 15 0 15 C0 10.05 0 5.1 0 0 Z " fill="#EBA09E" transform="translate(468,459)"/>
<path d="M0 0 C1.60279191 0.0002511 3.20558923 0.00581279 4.80834961 0.01586914 C5.55435425 0.01687622 6.30035889 0.0178833 7.06896973 0.0189209 C9.86622649 0.0241685 12.6634614 0.03812966 15.46069336 0.05102539 C21.71006836 0.07165039 27.95944336 0.09227539 34.39819336 0.11352539 C34.39819336 13.97352539 34.39819336 27.83352539 34.39819336 42.11352539 C47.80116106 42.40277501 47.80116106 42.40277501 61.2043457 42.68164062 C62.88094938 42.71975601 64.55754508 42.7582245 66.23413086 42.79711914 C67.1091626 42.81359497 67.98419434 42.8300708 68.88574219 42.8470459 C75.17004976 42.99945359 75.17004976 42.99945359 77.39819336 44.11352539 C77.81225586 47.05493164 77.81225586 47.05493164 78.02319336 50.67602539 C78.1353418 52.47233398 78.1353418 52.47233398 78.24975586 54.30493164 C78.29874023 55.23176758 78.34772461 56.15860352 78.39819336 57.11352539 C82.35819336 57.44352539 86.31819336 57.77352539 90.39819336 58.11352539 C91.45260406 61.76881583 92.49090151 65.41896758 93.39819336 69.11352539 C94.66276367 69.35135742 94.66276367 69.35135742 95.95288086 69.59399414 C97.04858398 69.82731445 98.14428711 70.06063477 99.27319336 70.30102539 C100.90901367 70.63166992 100.90901367 70.63166992 102.57788086 70.96899414 C105.39819336 72.11352539 105.39819336 72.11352539 106.78100586 74.47680664 C107.39819336 77.11352539 107.39819336 77.11352539 107.39819336 81.11352539 C108.49131836 80.92790039 109.58444336 80.74227539 110.71069336 80.55102539 C114.39819336 80.11352539 114.39819336 80.11352539 117.39819336 81.11352539 C118.05819336 78.14352539 118.71819336 75.17352539 119.39819336 72.11352539 C121.64428711 71.95076497 123.89038086 71.78800456 126.13647461 71.62524414 C128.85550972 71.01005658 129.78505242 70.37394545 131.39819336 68.11352539 C131.9351373 65.87410256 131.9351373 65.87410256 132.02319336 63.48852539 C132.31486003 59.19685872 132.31486003 59.19685872 133.39819336 58.11352539 C135.57838815 57.71686312 137.76783965 57.37037302 139.96069336 57.05102539 C141.15823242 56.87442383 142.35577148 56.69782227 143.58959961 56.51586914 C144.51643555 56.3830957 145.44327148 56.25032227 146.39819336 56.11352539 C146.47166992 54.95723633 146.47166992 54.95723633 146.54663086 53.77758789 C146.62139648 52.77469727 146.69616211 51.77180664 146.77319336 50.73852539 C146.84280273 49.74079102 146.91241211 48.74305664 146.98413086 47.71508789 C147.39819336 45.11352539 147.39819336 45.11352539 149.39819336 43.11352539 C152.32336005 42.8797607 155.16089914 42.76396885 158.08959961 42.73461914 C158.95004379 42.71762466 159.81048798 42.70063019 160.69700623 42.68312073 C163.45149365 42.62988464 166.20596514 42.58964196 168.96069336 42.55102539 C171.71891506 42.50716039 174.47701708 42.46051136 177.23509216 42.40821838 C178.95331375 42.37615694 180.67164138 42.34929982 182.39002991 42.32798767 C186.20415945 42.63018805 186.20415945 42.63018805 189.39819336 41.11352539 C189.54613755 38.16989362 189.63330052 35.24677313 189.67944336 32.30102539 C189.7070575 30.97494263 189.7070575 30.97494263 189.73522949 29.62207031 C189.79417436 26.78595841 189.84691255 23.94978563 189.89819336 21.11352539 C189.96562074 17.38422418 190.03928916 13.65512607 190.11694336 9.92602539 C190.1305188 9.05937256 190.14409424 8.19271973 190.15808105 7.29980469 C190.28539155 1.2263272 190.28539155 1.2263272 191.39819336 0.11352539 C193.77387856 0.02512869 196.1202801 -0.00177766 198.49584961 0.01586914 C199.55913734 0.01799156 199.55913734 0.01799156 200.64390564 0.02015686 C202.91621048 0.02577096 205.18841811 0.03832576 207.46069336 0.05102539 C208.99780132 0.05603858 210.53491081 0.0606018 212.07202148 0.06469727 C215.84744978 0.07574497 219.62280507 0.09301898 223.39819336 0.11352539 C224.84027277 2.99768422 224.49214223 5.53074068 224.46069336 8.73852539 C224.45166992 9.92704102 224.44264648 11.11555664 224.43334961 12.34008789 C224.41594727 13.71293945 224.41594727 13.71293945 224.39819336 15.11352539 C226.00500977 15.09612305 226.00500977 15.09612305 227.64428711 15.07836914 C229.04142079 15.0689924 230.43855635 15.05989208 231.83569336 15.05102539 C232.54274414 15.04264648 233.24979492 15.03426758 233.97827148 15.02563477 C235.78512895 15.01698951 237.59206939 15.06132528 239.39819336 15.11352539 C241.17309882 16.88843085 240.63319308 19.49137441 240.71459961 21.89868164 C240.75649414 23.06850586 240.79838867 24.23833008 240.84155273 25.44360352 C240.88086914 26.67530273 240.92018555 27.90700195 240.96069336 29.17602539 C241.00387695 30.4115918 241.04706055 31.6471582 241.09155273 32.92016602 C241.19803534 35.98449875 241.3000476 39.04891612 241.39819336 42.11352539 C242.18057373 42.13858154 242.9629541 42.1636377 243.76904297 42.18945312 C247.29144285 42.30502327 250.81354896 42.42792488 254.33569336 42.55102539 C255.56739258 42.5903418 256.7990918 42.6296582 258.06811523 42.67016602 C259.82285156 42.73300781 259.82285156 42.73300781 261.61303711 42.79711914 C262.69705811 42.83377686 263.7810791 42.87043457 264.89794922 42.90820312 C267.39819336 43.11352539 267.39819336 43.11352539 268.39819336 44.11352539 C268.72265673 47.21395312 268.91153777 50.31559789 269.11694336 53.42602539 C269.10427135 56.02949291 269.10427135 56.02949291 270.39819336 57.11352539 C272.66147591 57.18566189 274.90823929 57.11000628 277.17163086 57.05102539 C279.39819336 57.11352539 279.39819336 57.11352539 282.39819336 58.11352539 C283.13651944 62.43800672 283.78994301 66.76888003 284.39819336 71.11352539 C288.02819336 71.11352539 291.65819336 71.11352539 295.39819336 71.11352539 C297.33185236 74.98084339 297.67957367 76.59677501 297.81225586 80.75415039 C297.85092773 81.82407227 297.88959961 82.89399414 297.92944336 83.99633789 C297.97584961 85.6630957 297.97584961 85.6630957 298.02319336 87.36352539 C298.06186523 88.49016602 298.10053711 89.61680664 298.14038086 90.77758789 C298.23456318 93.55596648 298.31746364 96.33472338 298.39819336 99.11352539 C302.68819336 99.44352539 306.97819336 99.77352539 311.39819336 100.11352539 C311.40850082 101.2992514 311.41880829 102.48497742 311.4294281 103.70663452 C311.52702821 114.86090228 311.62974938 126.01511258 311.73753262 137.16928673 C311.79278399 142.90426049 311.84620753 148.63923933 311.89550781 154.37426758 C311.94311869 159.90505145 311.99546029 165.43577187 312.05113411 170.96648026 C312.07157253 173.08045504 312.09028311 175.19444724 312.10726738 177.30845261 C312.13127848 180.2609565 312.16133751 183.21333973 312.19287109 186.16577148 C312.19862656 187.04690109 312.20438202 187.9280307 312.21031189 188.83586121 C312.14059544 193.11036938 312.14059544 193.11036938 313.39819336 197.11352539 C315.75418571 197.58104327 315.75418571 197.58104327 318.46069336 197.73852539 C319.37979492 197.81329102 320.29889648 197.88805664 321.24584961 197.96508789 C322.31125977 198.03856445 322.31125977 198.03856445 323.39819336 198.11352539 C323.36338867 196.97463867 323.36338867 196.97463867 323.32788086 195.81274414 C323.30983398 194.81887695 323.29178711 193.82500977 323.27319336 192.80102539 C323.24999023 191.81489258 323.22678711 190.82875977 323.20288086 189.81274414 C323.39819336 187.11352539 323.39819336 187.11352539 325.39819336 184.11352539 C328.3711431 183.77588951 331.14561837 183.62439501 334.12475586 183.60180664 C334.98757172 183.58385544 335.85038757 183.56590424 336.73934937 183.54740906 C339.50058067 183.49314019 342.26163754 183.45935782 345.02319336 183.42602539 C346.89300939 183.39286689 348.76280235 183.35837861 350.63256836 183.32250977 C355.22098445 183.23740444 359.80934732 183.17067285 364.39819336 183.11352539 C364.42324951 181.90704346 364.44830566 180.70056152 364.47412109 179.45751953 C364.56801859 174.99776878 364.66828169 170.53818026 364.77050781 166.07861328 C364.81392377 164.14538355 364.85559378 162.2121138 364.89550781 160.27880859 C364.95304967 157.50614337 365.01678956 154.73368082 365.08178711 151.96118164 C365.0984996 151.09139175 365.1152121 150.22160187 365.13243103 149.32545471 C365.28432165 143.2273971 365.28432165 143.2273971 366.39819336 142.11352539 C370.67793589 141.72755618 374.9795431 141.64300593 379.27319336 141.48852539 C380.48362305 141.43696289 381.69405273 141.38540039 382.94116211 141.33227539 C384.1000293 141.28844727 385.25889648 141.24461914 386.45288086 141.19946289 C388.05365479 141.13831299 388.05365479 141.13831299 389.68676758 141.07592773 C392.39819336 141.11352539 392.39819336 141.11352539 395.39819336 142.11352539 C395.72819336 146.40352539 396.05819336 150.69352539 396.39819336 155.11352539 C400.68819336 155.44352539 404.97819336 155.77352539 409.39819336 156.11352539 C410.30854839 158.8445905 410.52035049 160.41245778 410.51171875 163.21777344 C410.51164322 164.03839767 410.51156769 164.85902191 410.51148987 165.70451355 C410.50632858 166.58585464 410.5011673 167.46719574 410.49584961 168.37524414 C410.49372719 169.73393364 410.49372719 169.73393364 410.49156189 171.12007141 C410.48596337 174.0137563 410.47341117 176.90736388 410.46069336 179.80102539 C410.45567817 181.76261282 410.45111529 183.72420145 410.44702148 185.68579102 C410.43599443 190.4950656 410.41873083 195.30428239 410.39819336 200.11352539 C381.72488268 200.34416086 353.06418052 199.69099183 324.39819336 199.11352539 C324.39819336 203.73352539 324.39819336 208.35352539 324.39819336 213.11352539 C320.10819336 213.44352539 315.81819336 213.77352539 311.39819336 214.11352539 C311.39819336 218.40352539 311.39819336 222.69352539 311.39819336 227.11352539 C306.44819336 227.11352539 301.49819336 227.11352539 296.39819336 227.11352539 C296.39819336 231.73352539 296.39819336 236.35352539 296.39819336 241.11352539 C292.43819336 241.11352539 288.47819336 241.11352539 284.39819336 241.11352539 C283.90319336 164.38852539 283.90319336 164.38852539 283.39819336 86.11352539 C278.44819336 86.11352539 273.49819336 86.11352539 268.39819336 86.11352539 C268.39819336 81.82352539 268.39819336 77.53352539 268.39819336 73.11352539 C263.77819336 73.11352539 259.15819336 73.11352539 254.39819336 73.11352539 C254.39819336 68.49352539 254.39819336 63.87352539 254.39819336 59.11352539 C223.37819336 59.11352539 192.35819336 59.11352539 160.39819336 59.11352539 C160.39819336 63.73352539 160.39819336 68.35352539 160.39819336 73.11352539 C156.10819336 73.11352539 151.81819336 73.11352539 147.39819336 73.11352539 C147.39819336 77.73352539 147.39819336 82.35352539 147.39819336 87.11352539 C142.77819336 87.11352539 138.15819336 87.11352539 133.39819336 87.11352539 C133.39819336 91.73352539 133.39819336 96.35352539 133.39819336 101.11352539 C128.77819336 101.11352539 124.15819336 101.11352539 119.39819336 101.11352539 C119.39819336 114.64352539 119.39819336 128.17352539 119.39819336 142.11352539 C114.44819336 142.11352539 109.49819336 142.11352539 104.39819336 142.11352539 C104.39819336 128.58352539 104.39819336 115.05352539 104.39819336 101.11352539 C99.77819336 101.11352539 95.15819336 101.11352539 90.39819336 101.11352539 C90.39819336 96.49352539 90.39819336 91.87352539 90.39819336 87.11352539 C85.77819336 87.11352539 81.15819336 87.11352539 76.39819336 87.11352539 C76.39819336 77.87352539 76.39819336 68.63352539 76.39819336 59.11352539 C27.39319336 59.60852539 27.39319336 59.60852539 -22.60180664 60.11352539 C-22.93180664 64.40352539 -23.26180664 68.69352539 -23.60180664 73.11352539 C-27.89180664 73.11352539 -32.18180664 73.11352539 -36.60180664 73.11352539 C-36.60180664 77.73352539 -36.60180664 82.35352539 -36.60180664 87.11352539 C-38.54055664 87.13415039 -40.47930664 87.15477539 -42.47680664 87.17602539 C-43.56735352 87.18762695 -44.65790039 87.19922852 -45.78149414 87.21118164 C-48.60180664 87.11352539 -48.60180664 87.11352539 -50.60180664 86.11352539 C-50.60180664 76.87352539 -50.60180664 67.63352539 -50.60180664 58.11352539 C-38.22680664 57.61852539 -38.22680664 57.61852539 -25.60180664 57.11352539 C-25.47805664 54.98915039 -25.35430664 52.86477539 -25.22680664 50.67602539 C-25.01586914 47.05493164 -25.01586914 47.05493164 -24.60180664 44.11352539 C-22.16792911 42.89658663 -20.18341818 42.79392643 -17.47680664 42.55102539 C-16.56672852 42.46723633 -15.65665039 42.38344727 -14.71899414 42.29711914 C-14.02032227 42.2365332 -13.32165039 42.17594727 -12.60180664 42.11352539 C-11.73422836 36.9419455 -11.50475265 32.03708827 -11.60180664 26.80102539 C-11.73561865 19.38114941 -11.73561865 19.38114941 -10.60180664 17.11352539 C-8.62180664 17.11352539 -6.64180664 17.11352539 -4.60180664 17.11352539 C-4.6134082 15.97012695 -4.62500977 14.82672852 -4.63696289 13.64868164 C-4.64633952 12.15779785 -4.65543985 10.6669123 -4.66430664 9.17602539 C-4.67268555 8.4212793 -4.68106445 7.6665332 -4.68969727 6.88891602 C-4.69833105 4.96358226 -4.65404997 3.03816958 -4.60180664 1.11352539 C-3.60180664 0.11352539 -3.60180664 0.11352539 0 0 Z " fill="#EBEAEA" transform="translate(391.601806640625,176.886474609375)"/>
<path d="M0 0 C27.39 0 54.78 0 83 0 C83 4.62 83 9.24 83 14 C86.1865625 13.9690625 86.1865625 13.9690625 89.4375 13.9375 C91.62499611 13.91626217 93.81360547 13.92741054 96 14 C97 15 97 15 97.09765625 17.94140625 C97.06510417 21.29427083 97.03255208 24.64713542 97 28 C101.62 28 106.24 28 111 28 C111 42.19 111 56.38 111 71 C115.62 71 120.24 71 125 71 C125 75.62 125 80.24 125 85 C132.59 85 140.18 85 148 85 C148 89.29 148 93.58 148 98 C152.95 98 157.9 98 163 98 C163 102.95 163 107.9 163 113 C167.62 113 172.24 113 177 113 C177 136.43 177 159.86 177 184 C172.38 184 167.76 184 163 184 C163 188.62 163 193.24 163 198 C141.22 198 119.44 198 97 198 C97 193.05 97 188.1 97 183 C60.04 183 23.08 183 -15 183 C-15 187.95 -15 192.9 -15 198 C-38.43 198 -61.86 198 -86 198 C-86 193.05 -86 188.1 -86 183 C-90.62 183 -95.24 183 -100 183 C-100 160.23 -100 137.46 -100 114 C-95.71 114 -91.42 114 -87 114 C-87 132.48 -87 150.96 -87 170 C-63.24 170 -39.48 170 -15 170 C-15 165.38 -15 160.76 -15 156 C3.81 156 22.62 156 42 156 C42 151.38 42 146.76 42 142 C50.91 142 59.82 142 69 142 C69 146.62 69 151.24 69 156 C78.24 156 87.48 156 97 156 C97 160.62 97 165.24 97 170 C98.77375 169.835 100.5475 169.67 102.375 169.5 C113.89545899 168.65500766 125.45642498 168.92188558 137 169 C137 164.71 137 160.42 137 156 C140.63 156 144.26 156 148 156 C148 141.81 148 127.62 148 113 C144.37 113 140.74 113 137 113 C136.67 108.05 136.34 103.1 136 98 C133.41865234 98.01740234 133.41865234 98.01740234 130.78515625 98.03515625 C128.54427191 98.04453234 126.30338641 98.05363273 124.0625 98.0625 C122.35803711 98.07506836 122.35803711 98.07506836 120.61914062 98.08789062 C119.53955078 98.09111328 118.45996094 98.09433594 117.34765625 98.09765625 C115.84730835 98.10551147 115.84730835 98.10551147 114.31665039 98.11352539 C112 98 112 98 111 97 C110.85644883 92.99779347 110.95783597 89.00558317 111 85 C106.38 85 101.76 85 97 85 C97 70.81 97 56.62 97 42 C92.38 42 87.76 42 83 42 C83 37.71 83 33.42 83 29 C78.05 29 73.1 29 68 29 C68.33 24.05 68.66 19.1 69 14 C46.23 14 23.46 14 0 14 C0 9.38 0 4.76 0 0 Z " fill="#E78989" transform="translate(469,460)"/>
<path d="M0 0 C14.52 0 29.04 0 44 0 C44 4.62 44 9.24 44 14 C48.29 14 52.58 14 57 14 C57 18.62 57 23.24 57 28 C61.95 28 66.9 28 72 28 C72 51.43 72 74.86 72 99 C67.38 99 62.76 99 58 99 C58 103.62 58 108.24 58 113 C53.38 113 48.76 113 44 113 C44 117.62 44 122.24 44 127 C34.43 127 24.86 127 15 127 C15 122.38 15 117.76 15 113 C10.05 113 5.1 113 0 113 C0 108.38 0 103.76 0 99 C-4.62 99 -9.24 99 -14 99 C-14.02255261 89.76002129 -14.04091601 80.52006072 -14.05181217 71.28006077 C-14.05704061 66.99000085 -14.06413753 62.69996067 -14.07543945 58.40991211 C-14.08626975 54.273206 -14.09227714 50.13651892 -14.09487724 45.99979973 C-14.09673124 44.41807696 -14.10035136 42.83635529 -14.10573006 41.25464058 C-14.1129424 39.04677162 -14.11399086 36.83898227 -14.11352539 34.63110352 C-14.115746 33.37201675 -14.11796661 32.11292999 -14.12025452 30.81568909 C-14 28 -14 28 -13 27 C-8.71 27 -4.42 27 0 27 C0 18.09 0 9.18 0 0 Z " fill="#EBA09E" transform="translate(382,291)"/>
<path d="M0 0 C18.81 0 37.62 0 57 0 C57 4.62 57 9.24 57 14 C61.95 14 66.9 14 72 14 C72 42.05 72 70.1 72 99 C67.05 99 62.1 99 57 99 C57 103.95 57 108.9 57 114 C42.81 114 28.62 114 14 114 C14 109.38 14 104.76 14 100 C9.38 100 4.76 100 0 100 C0 95.05 0 90.1 0 85 C-4.62 85 -9.24 85 -14 85 C-14 61.57 -14 38.14 -14 14 C-9.38 14 -4.76 14 0 14 C0 9.38 0 4.76 0 0 Z " fill="#EAA1A0" transform="translate(241,432)"/>
<path d="M0 0 C18.48 0 36.96 0 56 0 C56 4.62 56 9.24 56 14 C60.95 14 65.9 14 71 14 C71 37.43 71 60.86 71 85 C66.05 85 61.1 85 56 85 C56 89.62 56 94.24 56 99 C51.38 99 46.76 99 42 99 C42 103.62 42 108.24 42 113 C28.14 113 14.28 113 0 113 C0 108.38 0 103.76 0 99 C-4.95 99 -9.9 99 -15 99 C-15 70.95 -15 42.9 -15 14 C-10.05 14 -5.1 14 0 14 C0 9.38 0 4.76 0 0 Z " fill="#EBA19F" transform="translate(716,432)"/>
<path d="M0 0 C12.21 0 24.42 0 37 0 C37 4.62 37 9.24 37 14 C41.95 14 46.9 14 52 14 C52 18.62 52 23.24 52 28 C56.62 28 61.24 28 66 28 C66 51.43 66 74.86 66 99 C61.38 99 56.76 99 52 99 C52 103.62 52 108.24 52 113 C47.05 113 42.1 113 37 113 C37 117.62 37 122.24 37 127 C29.41 127 21.82 127 14 127 C14 122.38 14 117.76 14 113 C9.38 113 4.76 113 0 113 C0 108.38 0 103.76 0 99 C-4.62 99 -9.24 99 -14 99 C-14 70.95 -14 42.9 -14 14 C-9.38 14 -4.76 14 0 14 C0 9.38 0 4.76 0 0 Z " fill="#EB9F9E" transform="translate(580,291)"/>
<path d="M0 0 C4.62 0 9.24 0 14 0 C14.33 36.63 14.66 73.26 15 111 C21.93 111.495 21.93 111.495 29 112 C29 121.24 29 130.48 29 140 C24.38 140 19.76 140 15 140 C14 139 14 139 13.90234375 136.05859375 C13.93489583 132.70572917 13.96744792 129.35286458 14 126 C9.38 126 4.76 126 0 126 C0 121.38 0 116.76 0 112 C-4.62 112 -9.24 112 -14 112 C-14 107.71 -14 103.42 -14 99 C-37.43 99 -60.86 99 -85 99 C-85 84.81 -85 70.62 -85 56 C-80.38 56 -75.76 56 -71 56 C-71 50.72 -71 45.44 -71 40 C-58.25 39.875 -58.25 39.875 -56 41 C-56 45.62 -56 50.24 -56 55 C-51.38 55 -46.76 55 -42 55 C-40.64299353 57.71401294 -40.8876139 59.84846316 -40.90234375 62.8828125 C-40.90484131 63.93355957 -40.90733887 64.98430664 -40.90991211 66.06689453 C-40.91901611 67.40606934 -40.92812012 68.74524414 -40.9375 70.125 C-40.958125 74.37375 -40.97875 78.6225 -41 83 C-32.09 83 -23.18 83 -14 83 C-12.64908472 85.70183055 -12.66141942 88.11808206 -12.4375 91.125 C-12.35371094 92.22070312 -12.26992188 93.31640625 -12.18359375 94.4453125 C-12.12300781 95.28835938 -12.06242187 96.13140625 -12 97 C-7.05 96.505 -7.05 96.505 -2 96 C-1.01804522 89.49261661 -0.88438801 83.17564664 -0.9375 76.6015625 C-0.94605826 74.33935583 -0.95451799 72.07714878 -0.96289062 69.81494141 C-0.96909424 68.63941711 -0.97529785 67.46389282 -0.98168945 66.25274658 C-1.0932766 44.14472842 -0.87241053 22.0906808 0 0 Z " fill="#EBEBEB" transform="translate(312,278)"/>
<path d="M0 0 C4.62 0 9.24 0 14 0 C14 18.81 14 37.62 14 57 C16.97 57 19.94 57 23 57 C24.98 57.33 26.96 57.66 29 58 C29 62.29 29 66.58 29 71 C33.95 71 38.9 71 44 71 C44 66.38 44 61.76 44 57 C48.29 57 52.58 57 57 57 C56.979375 54.875625 56.95875 52.75125 56.9375 50.5625 C56.91626217 48.37500389 56.92741054 46.18639453 57 44 C57.33 43.67 57.66 43.34 58 43 C62.62 43 67.24 43 72 43 C72 28.81 72 14.62 72 0 C76.62 0 81.24 0 86 0 C86 23.43 86 46.86 86 71 C81.38 71 76.76 71 72 71 C72 75.62 72 80.24 72 85 C67.38 85 62.76 85 58 85 C58 89.62 58 94.24 58 99 C48.43 99 38.86 99 29 99 C29 94.38 29 89.76 29 85 C24.05 85 19.1 85 14 85 C14 80.38 14 75.76 14 71 C9.38 71 4.76 71 0 71 C0 47.57 0 24.14 0 0 Z " fill="#E98D8D" transform="translate(368,319)"/>
<path d="M0 0 C1.60279191 0.0002511 3.20558923 0.00581279 4.80834961 0.01586914 C5.55435425 0.01687622 6.30035889 0.0178833 7.06896973 0.0189209 C9.86622649 0.0241685 12.6634614 0.03812966 15.46069336 0.05102539 C21.71006836 0.07165039 27.95944336 0.09227539 34.39819336 0.11352539 C34.39819336 14.96352539 34.39819336 29.81352539 34.39819336 45.11352539 C35.38819336 44.78352539 36.37819336 44.45352539 37.39819336 44.11352539 C40.35058866 44.09716303 43.27339395 44.13943348 46.22241211 44.23461914 C47.51451347 44.27003563 47.51451347 44.27003563 48.8327179 44.3061676 C51.58388011 44.3827382 54.33475616 44.46679099 57.08569336 44.55102539 C58.95091373 44.60425269 60.81614807 44.65699305 62.68139648 44.70922852 C67.25384332 44.83834443 71.82604757 44.97417116 76.39819336 45.11352539 C76.39819336 49.73352539 76.39819336 54.35352539 76.39819336 59.11352539 C27.39319336 59.60852539 27.39319336 59.60852539 -22.60180664 60.11352539 C-22.93180664 64.40352539 -23.26180664 68.69352539 -23.60180664 73.11352539 C-27.89180664 73.11352539 -32.18180664 73.11352539 -36.60180664 73.11352539 C-36.60180664 77.73352539 -36.60180664 82.35352539 -36.60180664 87.11352539 C-38.54055664 87.13415039 -40.47930664 87.15477539 -42.47680664 87.17602539 C-43.56735352 87.18762695 -44.65790039 87.19922852 -45.78149414 87.21118164 C-48.60180664 87.11352539 -48.60180664 87.11352539 -50.60180664 86.11352539 C-50.60180664 76.87352539 -50.60180664 67.63352539 -50.60180664 58.11352539 C-38.22680664 57.61852539 -38.22680664 57.61852539 -25.60180664 57.11352539 C-25.47805664 54.98915039 -25.35430664 52.86477539 -25.22680664 50.67602539 C-25.01586914 47.05493164 -25.01586914 47.05493164 -24.60180664 44.11352539 C-22.16792911 42.89658663 -20.18341818 42.79392643 -17.47680664 42.55102539 C-16.56672852 42.46723633 -15.65665039 42.38344727 -14.71899414 42.29711914 C-14.02032227 42.2365332 -13.32165039 42.17594727 -12.60180664 42.11352539 C-11.73422836 36.9419455 -11.50475265 32.03708827 -11.60180664 26.80102539 C-11.73561865 19.38114941 -11.73561865 19.38114941 -10.60180664 17.11352539 C-8.62180664 17.11352539 -6.64180664 17.11352539 -4.60180664 17.11352539 C-4.6134082 15.97012695 -4.62500977 14.82672852 -4.63696289 13.64868164 C-4.64633952 12.15779785 -4.65543985 10.6669123 -4.66430664 9.17602539 C-4.67268555 8.4212793 -4.68106445 7.6665332 -4.68969727 6.88891602 C-4.69833105 4.96358226 -4.65404997 3.03816958 -4.60180664 1.11352539 C-3.60180664 0.11352539 -3.60180664 0.11352539 0 0 Z " fill="#EBE9E9" transform="translate(391.601806640625,176.886474609375)"/>
<path d="M0 0 C4.62 0 9.24 0 14 0 C14 23.1 14 46.2 14 70 C9.38 70 4.76 70 0 70 C0 74.62 0 79.24 0 84 C-4.62 84 -9.24 84 -14 84 C-14 88.62 -14 93.24 -14 98 C-27.86 98 -41.72 98 -56 98 C-56 93.38 -56 88.76 -56 84 C-60.62 84 -65.24 84 -70 84 C-70 70.14 -70 56.28 -70 42 C-65.38 42 -60.76 42 -56 42 C-56 46.62 -56 51.24 -56 56 C-51.38 56 -46.76 56 -42 56 C-42 60.62 -42 65.24 -42 70 C-33.09 70 -24.18 70 -15 70 C-14.67 65.38 -14.34 60.76 -14 56 C-9.38 56 -4.76 56 0 56 C0 37.52 0 19.04 0 0 Z " fill="#E98C8B" transform="translate(772,447)"/>
<path d="M0 0 C36.96 0 73.92 0 112 0 C112 4.95 112 9.9 112 15 C133.78 15 155.56 15 178 15 C178 19.62 178 24.24 178 29 C173.05 29 168.1 29 163 29 C163 33.62 163 38.24 163 43 C151.12 43 139.24 43 127 43 C127 38.38 127 33.76 127 29 C117.43 29 107.86 29 98 29 C98 24.38 98 19.76 98 15 C65.66 15 33.32 15 0 15 C0 10.05 0 5.1 0 0 Z " fill="#EDECEB" transform="translate(454,643)"/>
<path d="M0 0 C27.72 0 55.44 0 84 0 C84 0.33 84 0.66 84 1 C56.61 1 29.22 1 1 1 C1 5.62 1 10.24 1 15 C19.15 15.33 37.3 15.66 56 16 C56 20.62 56 25.24 56 30 C47.09 30 38.18 30 29 30 C29 34.62 29 39.24 29 44 C24.05 44 19.1 44 14 44 C14 48.62 14 53.24 14 58 C7.565 58.495 7.565 58.495 1 59 C0.67 67.91 0.34 76.82 0 86 C-9.24 86 -18.48 86 -28 86 C-28 76.76 -28 67.52 -28 58 C-23.38 58 -18.76 58 -14 58 C-14 48.76 -14 39.52 -14 30 C-18.95 30 -23.9 30 -29 30 C-29 29.67 -29 29.34 -29 29 C-24.38 29 -19.76 29 -15 29 C-15 24.38 -15 19.76 -15 15 C-10.05 15 -5.1 15 0 15 C0 10.05 0 5.1 0 0 Z " fill="#EEB1AE" transform="translate(468,459)"/>
<path d="M0 0 C4.62 0 9.24 0 14 0 C14 27.72 14 55.44 14 84 C9.05 84 4.1 84 -1 84 C-1 88.62 -1 93.24 -1 98 C-14.53 98 -28.06 98 -42 98 C-42 93.38 -42 88.76 -42 84 C-46.62 84 -51.24 84 -56 84 C-56 79.05 -56 74.1 -56 69 C-58.47395833 69.03255208 -60.94791667 69.06510417 -63.421875 69.09765625 C-66 69 -66 69 -70 68 C-70 59.42 -70 50.84 -70 42 C-65.71 42 -61.42 42 -57 42 C-57 46.62 -57 51.24 -57 56 C-52.05 56 -47.1 56 -42 56 C-42 60.62 -42 65.24 -42 70 C-37.71 70 -33.42 70 -29 70 C-28.505 76.93 -28.505 76.93 -28 84 C-23.38 84 -18.76 84 -14 84 C-14 79.38 -14 74.76 -14 70 C-9.38 70 -4.76 70 0 70 C0 46.9 0 23.8 0 0 Z " fill="#E98D8C" transform="translate(298,447)"/>
<path d="M0 0 C4.29 0 8.58 0 13 0 C13 23.43 13 46.86 13 71 C8.38 71 3.76 71 -1 71 C-1 75.62 -1 80.24 -1 85 C-5.95 85 -10.9 85 -16 85 C-16 89.62 -16 94.24 -16 99 C-23.59 99 -31.18 99 -39 99 C-39 94.38 -39 89.76 -39 85 C-43.62 85 -48.24 85 -53 85 C-53 80.38 -53 75.76 -53 71 C-57.62 71 -62.24 71 -67 71 C-67 61.76 -67 52.52 -67 43 C-62.05 43 -57.1 43 -52 43 C-52 47.62 -52 52.24 -52 57 C-47.71 57 -43.42 57 -39 57 C-39 61.62 -39 66.24 -39 71 C-31.41 71 -23.82 71 -16 71 C-16 66.38 -16 61.76 -16 57 C-11.05 57 -6.1 57 -1 57 C-1.00523682 55.30883057 -1.01047363 53.61766113 -1.01586914 51.87524414 C-1.03196803 46.29927804 -1.04347285 40.72331527 -1.05181217 35.14733219 C-1.05703975 31.76528187 -1.06413511 28.3832566 -1.07543945 25.0012207 C-1.08834267 21.11670223 -1.09322924 17.23219403 -1.09765625 13.34765625 C-1.10281754 12.12788589 -1.10797882 10.90811554 -1.11329651 9.65138245 C-1.11337204 8.53029587 -1.11344757 7.40920929 -1.11352539 6.25415039 C-1.115746 5.26153702 -1.11796661 4.26892365 -1.12025452 3.24623108 C-1 1 -1 1 0 0 Z " fill="#E98B8B" transform="translate(633,319)"/>
<path d="M0 0 C4.62 0 9.24 0 14 0 C14 36.96 14 73.92 14 112 C18.62 112 23.24 112 28 112 C28.33 120.91 28.66 129.82 29 139 C33.29 139.33 37.58 139.66 42 140 C42 149.24 42 158.48 42 168 C37.05 168 32.1 168 27 168 C26.83723958 165.4609375 26.67447917 162.921875 26.51171875 160.3828125 C26.2117961 157.63778399 26.2117961 157.63778399 23 156 C19.7 155.67 16.4 155.34 13 155 C13 141.47 13 127.94 13 114 C8.71 113.67 4.42 113.34 0 113 C0 75.71 0 38.42 0 0 Z " fill="#E9EAE9" transform="translate(184,419)"/>
<path d="M0 0 C14.19 0 28.38 0 43 0 C43 9.57 43 19.14 43 29 C33.76 29 24.52 29 15 29 C15 42.53 15 56.06 15 70 C10.38 70 5.76 70 1 70 C1 65.71 1 61.42 1 57 C-3.62 57 -8.24 57 -13 57 C-13 65.58 -13 74.16 -13 83 C-6.07 83.495 -6.07 83.495 1 84 C1 88.95 1 93.9 1 99 C5.62 99 10.24 99 15 99 C15 103.62 15 108.24 15 113 C28.53 113 42.06 113 56 113 C56 108.38 56 103.76 56 99 C56.33 99 56.66 99 57 99 C57 103.95 57 108.9 57 114 C42.81 114 28.62 114 14 114 C14 109.38 14 104.76 14 100 C9.38 100 4.76 100 0 100 C0 95.05 0 90.1 0 85 C-4.62 85 -9.24 85 -14 85 C-14 61.57 -14 38.14 -14 14 C-9.38 14 -4.76 14 0 14 C0 9.38 0 4.76 0 0 Z " fill="#EDB2AF" transform="translate(241,432)"/>
<path d="M0 0 C14.19 0 28.38 0 43 0 C42.67 9.57 42.34 19.14 42 29 C32.76 29 23.52 29 14 29 C14 42.53 14 56.06 14 70 C9.38 70 4.76 70 0 70 C0 65.71 0 61.42 0 57 C-4.62 57 -9.24 57 -14 57 C-14 70.86 -14 84.72 -14 99 C-14.33 99 -14.66 99 -15 99 C-15 70.95 -15 42.9 -15 14 C-10.05 14 -5.1 14 0 14 C0 9.38 0 4.76 0 0 Z " fill="#EDB3AF" transform="translate(716,432)"/>
<path d="M0 0 C12.21 0 24.42 0 37 0 C37 4.62 37 9.24 37 14 C41.95 14 46.9 14 52 14 C52 18.62 52 23.24 52 28 C51.67 28 51.34 28 51 28 C51 23.71 51 19.42 51 15 C43.08 15 35.16 15 27 15 C27 19.29 27 23.58 27 28 C23.04 28.66 19.08 29.32 15 30 C13.71225554 33.86323338 13.76617207 37.57490537 13.68359375 41.60546875 C13.66281265 42.44467361 13.64203156 43.28387848 13.62062073 44.14851379 C13.55525982 46.82809294 13.49630286 49.50776969 13.4375 52.1875 C13.39430198 54.00456737 13.35068727 55.82162488 13.30664062 57.63867188 C13.19880832 62.09234934 13.09963505 66.54610139 13 71 C4.09 71 -4.82 71 -14 71 C-14 52.19 -14 33.38 -14 14 C-9.38 14 -4.76 14 0 14 C0 9.38 0 4.76 0 0 Z " fill="#EDB4B0" transform="translate(580,291)"/>
<path d="M0 0 C0.33 4.29 0.66 8.58 1 13 C5.29 13.33 9.58 13.66 14 14 C14 28.19 14 42.38 14 57 C4.43 57 -5.14 57 -15 57 C-15 52.38 -15 47.76 -15 43 C-19.62 43 -24.24 43 -29 43 C-29 28.81 -29 14.62 -29 0 C-25.32875 -0.185625 -21.6575 -0.37125 -17.875 -0.5625 C-16.15579346 -0.65446655 -16.15579346 -0.65446655 -14.40185547 -0.74829102 C-13.02344482 -0.81294556 -13.02344482 -0.81294556 -11.6171875 -0.87890625 C-10.21895752 -0.94960327 -10.21895752 -0.94960327 -8.79248047 -1.02172852 C-6 -1 -6 -1 0 0 Z " fill="#EC9B9A" transform="translate(787,319)"/>
<path d="M0 0 C10.23 0 20.46 0 31 0 C31 5.28 31 10.56 31 16 C36.28 16 41.56 16 47 16 C47 24.91 47 33.82 47 43 C31.49 43 15.98 43 0 43 C0 28.81 0 14.62 0 0 Z " fill="#EDA09E" transform="translate(584,178)"/>
<path d="M0 0 C14.52 0 29.04 0 44 0 C44 4.62 44 9.24 44 14 C43.67 14 43.34 14 43 14 C43 9.71 43 5.42 43 1 C39.04 1 35.08 1 31 1 C30.67 9.91 30.34 18.82 30 28 C25.05 28.33 20.1 28.66 15 29 C15 47.48 15 65.96 15 85 C10.05 85 5.1 85 0 85 C0 66.19 0 47.38 0 28 C-4.29 28 -8.58 28 -13 28 C-13 27.67 -13 27.34 -13 27 C-8.71 27 -4.42 27 0 27 C0 18.09 0 9.18 0 0 Z " fill="#EDB3AF" transform="translate(382,291)"/>
<path d="M0 0 C12.21 0 24.42 0 37 0 C37 14.19 37 28.38 37 43 C22.81 43 8.62 43 -6 43 C-6 34.75 -6 26.5 -6 18 C-4.02 18 -2.04 18 0 18 C0 12.06 0 6.12 0 0 Z " fill="#ED9F9D" transform="translate(388,178)"/>
<path d="M0 0 C12.75 -0.125 12.75 -0.125 15 1 C15 5.62 15 10.24 15 15 C19.62 15 24.24 15 29 15 C29 24.57 29 34.14 29 44 C19.43 44 9.86 44 0 44 C0 48.95 0 53.9 0 59 C-4.62 59 -9.24 59 -14 59 C-14 44.81 -14 30.62 -14 16 C-9.38 16 -4.76 16 0 16 C0 10.72 0 5.44 0 0 Z " fill="#EC9E9C" transform="translate(241,318)"/>
<path d="M0 0 C23.43 0 46.86 0 71 0 C71 4.62 71 9.24 71 14 C66.05 14 61.1 14 56 14 C56 18.62 56 23.24 56 28 C42.14 28 28.28 28 14 28 C14 23.38 14 18.76 14 14 C9.38 14 4.76 14 0 14 C0 9.38 0 4.76 0 0 Z " fill="#EDEDEC" transform="translate(383,658)"/>
<path d="M0 0 C0.33 0 0.66 0 1 0 C1 4.62 1 9.24 1 14 C-3.62 14 -8.24 14 -13 14 C-13 28.19 -13 42.38 -13 57 C-8.38 57 -3.76 57 1 57 C1 61.29 1 65.58 1 70 C-3.62 70 -8.24 70 -13 70 C-13 74.62 -13 79.24 -13 84 C-17.95 84 -22.9 84 -28 84 C-28 88.62 -28 93.24 -28 98 C-32.62 98 -37.24 98 -42 98 C-42 88.76 -42 79.52 -42 70 C-37.38 70 -32.76 70 -28 70 C-28.020625 67.710625 -28.04125 65.42125 -28.0625 63.0625 C-28.08370868 60.70833668 -28.07271741 58.35313555 -28 56 C-26.26043342 54.26043342 -23.8063378 54.62809614 -21.4375 54.4375 C-20.42558594 54.35371094 -19.41367188 54.26992188 -18.37109375 54.18359375 C-17.19740234 54.09271484 -17.19740234 54.09271484 -16 54 C-15.20952195 49.15598788 -14.89171375 44.546113 -14.9375 39.640625 C-14.94128662 38.96956726 -14.94507324 38.29850952 -14.94897461 37.6071167 C-14.96107286 35.48800857 -14.97971282 33.36904453 -15 31.25 C-15.02660936 28.44271218 -15.04656783 25.63549138 -15.0625 22.828125 C-15.07410156 21.5896582 -15.08570313 20.35119141 -15.09765625 19.07519531 C-15 16 -15 16 -14 13 C-7.565 12.505 -7.565 12.505 -1 12 C-0.67 8.04 -0.34 4.08 0 0 Z " fill="#ECEBEA" transform="translate(240,320)"/>
<path d="M0 0 C4.62 0 9.24 0 14 0 C14 18.48 14 36.96 14 56 C9.38 56 4.76 56 0 56 C0 37.52 0 19.04 0 0 Z " fill="#EBA19F" transform="translate(567,306)"/>
<path d="M0 0 C4.29 0 8.58 0 13 0 C14.66577625 3.33155251 14.12007856 7.06536059 14.09765625 10.7265625 C14.0962413 11.58937836 14.09482635 12.45219421 14.09336853 13.34115601 C14.08776188 16.1024723 14.07520827 18.86370812 14.0625 21.625 C14.05748586 23.4947905 14.0529228 25.36458226 14.04882812 27.234375 C14.0386403 31.82297277 14.01906622 36.41139608 14 41 C4.76 41 -4.48 41 -14 41 C-14 36.38 -14 31.76 -14 27 C-7.565 26.505 -7.565 26.505 -1 26 C-0.67 17.42 -0.34 8.84 0 0 Z " fill="#EC9998" transform="translate(787,335)"/>
<path d="M0 0 C4.29 0 8.58 0 13 0 C13 13.86 13 27.72 13 42 C8.71 42 4.42 42 0 42 C0 50.58 0 59.16 0 68 C6.93 68.495 6.93 68.495 14 69 C14 73.95 14 78.9 14 84 C18.62 84 23.24 84 28 84 C28 88.62 28 93.24 28 98 C41.53 98 55.06 98 69 98 C69 93.38 69 88.76 69 84 C69.33 84 69.66 84 70 84 C70 88.95 70 93.9 70 99 C55.81 99 41.62 99 27 99 C27 94.38 27 89.76 27 85 C22.38 85 17.76 85 13 85 C13 80.05 13 75.1 13 70 C8.38 70 3.76 70 -1 70 C-1.20638953 20.03468321 -1.20638953 20.03468321 0 0 Z " fill="#EAA7A5" transform="translate(228,447)"/>
<path d="M0 0 C4.62 0 9.24 0 14 0 C15 1 15 1 15.11352539 4.96899414 C15.1133662 6.74105607 15.10766785 8.5131226 15.09765625 10.28515625 C15.0962413 11.21597519 15.09482635 12.14679413 15.09336853 13.1058197 C15.08775172 16.09141191 15.0751964 19.07693029 15.0625 22.0625 C15.05748716 24.08137913 15.05292388 26.10025943 15.04882812 28.11914062 C15.03777683 33.07945572 15.02050095 38.03971532 15 43 C10.38 43 5.76 43 1 43 C1 56.86 1 70.72 1 85 C0.67 85 0.34 85 0 85 C0 56.95 0 28.9 0 0 Z " fill="#E9A5A3" transform="translate(701,446)"/>
<path d="M0 0 C12.75 -0.125 12.75 -0.125 15 1 C15 5.62 15 10.24 15 15 C19.62 15 24.24 15 29 15 C29 24.57 29 34.14 29 44 C19.43 44 9.86 44 0 44 C0 43.67 0 43.34 0 43 C9.24 43 18.48 43 28 43 C28 34.42 28 25.84 28 17 C23.71 17 19.42 17 15 17 C15 21.62 15 26.24 15 31 C10.05 31 5.1 31 0 31 C0 26.38 0 21.76 0 17 C-4.62 17 -9.24 17 -14 17 C-14 16.67 -14 16.34 -14 16 C-9.38 16 -4.76 16 0 16 C0 10.72 0 5.44 0 0 Z " fill="#EFB8B4" transform="translate(241,318)"/>
<path d="M0 0 C0.33 4.29 0.66 8.58 1 13 C5.29 13.33 9.58 13.66 14 14 C13.67 15.32 13.34 16.64 13 18 C13 17.34 13 16.68 13 16 C8.71 16 4.42 16 0 16 C0.01160156 17.86527344 0.02320313 19.73054688 0.03515625 21.65234375 C0.04453225 24.08072817 0.05363265 26.50911367 0.0625 28.9375 C0.07087891 30.16919922 0.07925781 31.40089844 0.08789062 32.66992188 C0.09272461 34.4246582 0.09272461 34.4246582 0.09765625 36.21484375 C0.10551147 37.84087524 0.10551147 37.84087524 0.11352539 39.49975586 C0 42 0 42 -1 43 C-5.33530918 43.14393457 -9.66157731 43.04212061 -14 43 C-14 47.62 -14 52.24 -14 57 C-14.33 57 -14.66 57 -15 57 C-15 52.38 -15 47.76 -15 43 C-19.62 43 -24.24 43 -29 43 C-29 42.67 -29 42.34 -29 42 C-24.38 42 -19.76 42 -15 42 C-15 33.09 -15 24.18 -15 15 C-10.38 15 -5.76 15 -1 15 C-1 10.38 -1 5.76 -1 1 C-10.24 1 -19.48 1 -29 1 C-29 0.67 -29 0.34 -29 0 C-25.29215008 -0.19800942 -21.58371765 -0.38153245 -17.875 -0.5625 C-16.82828125 -0.61857422 -15.7815625 -0.67464844 -14.703125 -0.73242188 C-13.68476562 -0.78076172 -12.66640625 -0.82910156 -11.6171875 -0.87890625 C-10.21895752 -0.94960327 -10.21895752 -0.94960327 -8.79248047 -1.02172852 C-6 -1 -6 -1 0 0 Z " fill="#EFB4B0" transform="translate(787,319)"/>
<path d="M0 0 C13.86 0 27.72 0 42 0 C42 3.96 42 7.92 42 12 C28.14 12 14.28 12 0 12 C0 8.04 0 4.08 0 0 Z " fill="#ECEBEA" transform="translate(256,546)"/>
<path d="M0 0 C4.62 0 9.24 0 14 0 C14 9.24 14 18.48 14 28 C9.38 28 4.76 28 0 28 C0 18.76 0 9.52 0 0 Z " fill="#E8908F" transform="translate(440,489)"/>
<path d="M0 0 C4.62 0 9.24 0 14 0 C14 4.29 14 8.58 14 13 C11.875625 13.144375 9.75125 13.28875 7.5625 13.4375 C3.45880084 13.36536356 3.45880084 13.36536356 0 15 C-0.23427778 17.01594582 -0.41336124 19.038474 -0.5625 21.0625 C-0.64628906 22.16722656 -0.73007812 23.27195312 -0.81640625 24.41015625 C-0.87699219 25.26480469 -0.93757813 26.11945312 -1 27 C-3.14576637 27.02685938 -5.29162645 27.04633088 -7.4375 27.0625 C-8.63246094 27.07410156 -9.82742188 27.08570313 -11.05859375 27.09765625 C-14 27 -14 27 -15 26 C-15.14393457 21.66469082 -15.04212061 17.33842269 -15 13 C-10.05 13 -5.1 13 0 13 C0 8.71 0 4.42 0 0 Z " fill="#E8908F" transform="translate(412,532)"/>
<path d="M0 0 C0.33 0 0.66 0 1 0 C1 2.31 1 4.62 1 7 C-3.62 7 -8.24 7 -13 7 C-13 16.24 -13 25.48 -13 35 C-8.38 35 -3.76 35 1 35 C1 35.33 1 35.66 1 36 C-8.24 36 -17.48 36 -27 36 C-27 72.96 -27 109.92 -27 148 C-27.66 147.67 -28.32 147.34 -29 147 C-28.89289176 132.41423436 -28.7800884 117.8285224 -28.66066074 103.24285221 C-28.60531369 96.47091991 -28.55182932 89.69898235 -28.50268555 82.92700195 C-28.45529782 76.39771567 -28.4027781 69.8684826 -28.34705925 63.33926201 C-28.32660115 60.84207951 -28.30789394 58.34488207 -28.29092598 55.84767342 C-28.26695819 52.3633188 -28.23689357 48.8790682 -28.20532227 45.39477539 C-28.1995668 44.35108795 -28.19381134 43.30740051 -28.18788147 42.23208618 C-28.17809265 41.28832626 -28.16830383 40.34456635 -28.15821838 39.37220764 C-28.15176583 38.54720292 -28.14531328 37.7221982 -28.1386652 36.87219334 C-28 35 -28 35 -27 34 C-24.16027465 33.67648699 -21.31926263 33.4869571 -18.46875 33.28125 C-16.0586395 33.26614735 -16.0586395 33.26614735 -15 32 C-14.84193469 30.07521187 -14.748865 28.1450079 -14.68359375 26.21484375 C-14.64169922 25.04501953 -14.59980469 23.87519531 -14.55664062 22.66992188 C-14.49766602 20.82237305 -14.49766602 20.82237305 -14.4375 18.9375 C-14.39431641 17.70193359 -14.35113281 16.46636719 -14.30664062 15.19335938 C-14.20015889 12.12905159 -14.09953935 9.06454115 -14 6 C-9.38 5.67 -4.76 5.34 0 5 C0 3.35 0 1.7 0 0 Z " fill="#F5F5F5" transform="translate(211,383)"/>
<path d="M0 0 C4.62 0 9.24 0 14 0 C14 4.95 14 9.9 14 15 C9.38 15 4.76 15 0 15 C0 10.05 0 5.1 0 0 Z " fill="#F1B6AF" transform="translate(397,193)"/>
<path d="M0 0 C4.95 0 9.9 0 15 0 C14.67 4.62 14.34 9.24 14 14 C9.38 14 4.76 14 0 14 C0 9.38 0 4.76 0 0 Z " fill="#EDECEB" transform="translate(298,531)"/>
<path d="M0 0 C4.62 0 9.24 0 14 0 C14 4.62 14 9.24 14 14 C9.38 14 4.76 14 0 14 C0 9.38 0 4.76 0 0 Z " fill="#EDECEB" transform="translate(632,644)"/>
<path d="M0 0 C4.62 0 9.24 0 14 0 C14 4.62 14 9.24 14 14 C9.38 14 4.76 14 0 14 C0 9.38 0 4.76 0 0 Z " fill="#E88A8A" transform="translate(383,559)"/>
<path d="M0 0 C4.62 0 9.24 0 14 0 C14 4.62 14 9.24 14 14 C9.38 14 4.76 14 0 14 C0 9.38 0 4.76 0 0 Z " fill="#E79090" transform="translate(454,475)"/>
<path d="M0 0 C4.62 0 9.24 0 14 0 C14 4.62 14 9.24 14 14 C9.38 14 4.76 14 0 14 C0 9.38 0 4.76 0 0 Z " fill="#EBA2A1" transform="translate(241,320)"/>
<path d="M0 0 C4.29 0 8.58 0 13 0 C15.15580306 4.31160613 14.12268117 9.50927531 13 14 C8.71 14 4.42 14 0 14 C0 9.38 0 4.76 0 0 Z " fill="#EAA2A0" transform="translate(242,432)"/>
<path d="M0 0 C4.95 0 9.9 0 15 0 C14.67 4.29 14.34 8.58 14 13 C9.38 13.33 4.76 13.66 0 14 C0 9.38 0 4.76 0 0 Z " fill="#E9A29F" transform="translate(383,292)"/>
<path d="M0 0 C4.29 0 8.58 0 13 0 C13 4.62 13 9.24 13 14 C8.71 14 4.42 14 0 14 C0 9.38 0 4.76 0 0 Z " fill="#E9A5A2" transform="translate(717,432)"/>
<path d="M0 0 C4.62 0 9.24 0 14 0 C13.67 4.29 13.34 8.58 13 13 C8.71 13 4.42 13 0 13 C0 8.71 0 4.42 0 0 Z " fill="#E9A29F" transform="translate(581,292)"/>
<path d="M0 0 C4.29 0 8.58 0 13 0 C13 4.29 13 8.58 13 13 C8.71 13 4.42 13 0 13 C0 8.71 0 4.42 0 0 Z " fill="#E8E9E8" transform="translate(327,264)"/>
<path d="M0 0 C0.33 0 0.66 0 1 0 C1.33 7.92 1.66 15.84 2 24 C6.29 24.33 10.58 24.66 15 25 C15.01030746 26.18572601 15.02061493 27.37145203 15.03123474 28.59310913 C15.12883485 39.74737689 15.23155602 50.90158719 15.33933926 62.05576134 C15.39459063 67.7907351 15.44801417 73.52571394 15.49731445 79.26074219 C15.54492533 84.79152606 15.59726693 90.32224648 15.65294075 95.85295486 C15.67337917 97.96692965 15.69208975 100.08092185 15.70907402 102.19492722 C15.73308512 105.14743111 15.76314415 108.09981434 15.79467773 111.05224609 C15.8004332 111.9333757 15.80618866 112.81450531 15.81211853 113.72233582 C15.74240209 117.99684399 15.74240209 117.99684399 17 122 C19.35599235 122.46751788 19.35599235 122.46751788 22.0625 122.625 C23.691875 122.74875 25.32125 122.8725 27 123 C27 119.37 27 115.74 27 112 C27.33 112 27.66 112 28 112 C28 115.96 28 119.92 28 124 C23.38 124 18.76 124 14 124 C14 91.66 14 59.32 14 26 C9.38 26 4.76 26 0 26 C0 17.42 0 8.84 0 0 Z " fill="#F6F6F6" transform="translate(688,252)"/>
<path d="M0 0 C3.63 0 7.26 0 11 0 C11 4.95 11 9.9 11 15 C7.37 15 3.74 15 0 15 C0 10.05 0 5.1 0 0 Z " fill="#F2B8B2" transform="translate(596,193)"/>
<path d="M0 0 C0.33 0 0.66 0 1 0 C1 9.24 1 18.48 1 28 C5.62 28 10.24 28 15 28 C15 28.33 15 28.66 15 29 C10.38 29 5.76 29 1 29 C1 38.24 1 47.48 1 57 C0.34 56.67 -0.32 56.34 -1 56 C-1.33 47.75 -1.66 39.5 -2 31 C-7.94 30.01 -7.94 30.01 -14 29 C-14 28.67 -14 28.34 -14 28 C-9.38 28 -4.76 28 0 28 C0 18.76 0 9.52 0 0 Z " fill="#F5F6F5" transform="translate(226,559)"/>
<path d="M0 0 C4.62 0 9.24 0 14 0 C14 13.86 14 27.72 14 42 C17.63 42 21.26 42 25 42 C21.31282562 44.45811625 19.35654296 44.31118164 15 44 C14.01 43.34 13.02 42.68 12 42 C11.66238965 38.95559724 11.51082557 36.1051876 11.48828125 33.0546875 C11.47033005 32.1696756 11.45237885 31.2846637 11.43388367 30.37283325 C11.37961015 27.54027096 11.34583081 24.70787874 11.3125 21.875 C11.27934192 19.95700749 11.24485369 18.03903747 11.20898438 16.12109375 C11.12387407 11.41418494 11.05714463 6.70732806 11 2 C7.37 1.67 3.74 1.34 0 1 C0 0.67 0 0.34 0 0 Z " fill="#F6F6F7" transform="translate(241,686)"/>
<path d="M0 0 C5.80255353 0.11805535 11.60492888 0.24228962 17.40722656 0.37231445 C19.38212462 0.41569203 21.35706087 0.457365 23.33203125 0.49731445 C26.1667839 0.55494873 29.00134378 0.6186627 31.8359375 0.68359375 C33.16569107 0.70866249 33.16569107 0.70866249 34.52230835 0.73423767 C40.77225659 0.88612829 40.77225659 0.88612829 43 2 C43.4140625 4.94140625 43.4140625 4.94140625 43.625 8.5625 C43.69976562 9.76003906 43.77453125 10.95757812 43.8515625 12.19140625 C43.90054688 13.11824219 43.94953125 14.04507813 44 15 C47.96 15.33 51.92 15.66 56 16 C56 16.33 56 16.66 56 17 C51.38 17 46.76 17 42 17 C42 12.38 42 7.76 42 3 C28.14 3 14.28 3 0 3 C0 2.01 0 1.02 0 0 Z " fill="#F6F7F6" transform="translate(426,219)"/>
<path d="M0 0 C2 4 2 4 2 8 C3.093125 7.814375 4.18625 7.62875 5.3125 7.4375 C9 7 9 7 12 8 C12.33 5.69 12.66 3.38 13 1 C13.33 1 13.66 1 14 1 C14.02686553 2.97909398 14.04633375 4.95828971 14.0625 6.9375 C14.07410156 8.03964844 14.08570313 9.14179688 14.09765625 10.27734375 C14 13 14 13 13 14 C10.80949979 13.90982004 8.621534 13.75333792 6.4375 13.5625 C3.2509375 13.2840625 3.2509375 13.2840625 0 13 C0 8.71 0 4.42 0 0 Z " fill="#FBFBFB" transform="translate(497,250)"/>
<path d="M0 0 C4.62 0 9.24 0 14 0 C14 13.86 14 27.72 14 42 C18.62 42 23.24 42 28 42 C28 46.62 28 51.24 28 56 C27.67 56 27.34 56 27 56 C26.96261719 55.30132813 26.92523438 54.60265625 26.88671875 53.8828125 C26.82097656 52.97273437 26.75523437 52.06265625 26.6875 51.125 C26.62949219 50.22007812 26.57148438 49.31515625 26.51171875 48.3828125 C26.2117961 45.63778399 26.2117961 45.63778399 23 44 C19.7 43.67 16.4 43.34 13 43 C13 29.47 13 15.94 13 2 C8.71 1.67 4.42 1.34 0 1 C0 0.67 0 0.34 0 0 Z " fill="#F5F5F5" transform="translate(184,531)"/>
<path d="M0 0 C4.29 0 8.58 0 13 0 C13 22.77 13 45.54 13 69 C12.67 69 12.34 69 12 69 C11.99120064 67.80729744 11.99120064 67.80729744 11.98222351 66.59049988 C11.92434348 59.10070404 11.85229442 51.61124267 11.76428509 44.12174511 C11.71953829 40.27120744 11.68029202 36.42077662 11.65356445 32.57006836 C11.62757393 28.85458435 11.58720265 25.1395106 11.53681374 21.42428017 C11.52011604 20.00614839 11.50861983 18.58794561 11.50238609 17.16972923 C11.49277746 15.1848976 11.46303716 13.20019418 11.43237305 11.21557617 C11.42126999 10.08528488 11.41016693 8.95499359 11.39872742 7.79045105 C11.22797153 4.99159108 11.22797153 4.99159108 9.60066223 3.14350891 C7.62187994 1.72987202 6.22323138 1.51010093 3.8125 1.3125 C1.9253125 1.1578125 1.9253125 1.1578125 0 1 C0 0.67 0 0.34 0 0 Z " fill="#F2F3F3" transform="translate(228,616)"/>
<path d="M0 0 C0.33 0 0.66 0 1 0 C1 4.62 1 9.24 1 14 C4.63 14 8.26 14 12 14 C12 14.33 12 14.66 12 15 C8.37 15 4.74 15 1 15 C1 16.98 1 18.96 1 21 C0.67 21 0.34 21 0 21 C0 19.02 0 17.04 0 15 C-4.62 15 -9.24 15 -14 15 C-14 19.62 -14 24.24 -14 29 C-18.95 29 -23.9 29 -29 29 C-29 28.67 -29 28.34 -29 28 C-24.38 28 -19.76 28 -15 28 C-15 23.38 -15 18.76 -15 14 C-10.05 14 -5.1 14 0 14 C0 9.38 0 4.76 0 0 Z " fill="#E9B7B6" transform="translate(468,460)"/>
<path d="M0 0 C0.33 0 0.66 0 1 0 C1 1.65 1 3.3 1 5 C-3.29 5 -7.58 5 -12 5 C-12 9.62 -12 14.24 -12 19 C-20.91 19 -29.82 19 -39 19 C-39 18.67 -39 18.34 -39 18 C-26.625 17.505 -26.625 17.505 -14 17 C-13.87625 14.875625 -13.7525 12.75125 -13.625 10.5625 C-13.4140625 6.94140625 -13.4140625 6.94140625 -13 4 C-9.90737233 2.45368616 -6.6329109 2.60939284 -3.21484375 2.37890625 C-2.48394531 2.25386719 -1.75304687 2.12882813 -1 2 C-0.67 1.34 -0.34 0.68 0 0 Z " fill="#F7F7F7" transform="translate(380,217)"/>
<path d="M0 0 C4.29 0 8.58 0 13 0 C13 8.91 13 17.82 13 27 C13.66 27.33 14.32 27.66 15 28 C14.01 28 13.02 28 12 28 C11.97494385 27.2479126 11.9498877 26.4958252 11.92407227 25.72094727 C11.80849486 22.33460804 11.68559655 18.94857387 11.5625 15.5625 C11.52318359 14.37849609 11.48386719 13.19449219 11.44335938 11.97460938 C11.40146484 10.84990234 11.35957031 9.72519531 11.31640625 8.56640625 C11.27974854 7.52427979 11.24309082 6.48215332 11.20532227 5.40844727 C11.26484659 3.0500174 11.26484659 3.0500174 10 2 C8.31816052 1.76712992 6.6287584 1.58735834 4.9375 1.4375 C4.01839844 1.35371094 3.09929687 1.26992188 2.15234375 1.18359375 C1.08693359 1.09271484 1.08693359 1.09271484 0 1 C0 0.67 0 0.34 0 0 Z " fill="#F6F6F6" transform="translate(285,771)"/>
<path d="M0 0 C0.33 0 0.66 0 1 0 C1.33 3.96 1.66 7.92 2 12 C6.66115457 13.11915758 6.66115457 13.11915758 10.125 12.9375 C13 13 13 13 16 15 C15.34 16.32 14.68 17.64 14 19 C14 17.68 14 16.36 14 15 C9.38 15 4.76 15 0 15 C0 10.05 0 5.1 0 0 Z " fill="#F6F6F6" transform="translate(815,390)"/>
<path d="M0 0 C4.62 0 9.24 0 14 0 C14.25 9.625 14.25 9.625 12 13 C11.67 9.37 11.34 5.74 11 2 C7.37 1.67 3.74 1.34 0 1 C0 0.67 0 0.34 0 0 Z " fill="#F6F6F6" transform="translate(313,813)"/>
<path d="M0 0 C0.33 0 0.66 0 1 0 C1.02685938 2.14576637 1.04633088 4.29162645 1.0625 6.4375 C1.07410156 7.63246094 1.08570313 8.82742187 1.09765625 10.05859375 C1 13 1 13 0 14 C-2.01964199 14.07244053 -4.04167124 14.08377188 -6.0625 14.0625 C-7.16722656 14.05347656 -8.27195312 14.04445312 -9.41015625 14.03515625 C-10.69212891 14.01775391 -10.69212891 14.01775391 -12 14 C-12 13.67 -12 13.34 -12 13 C-11.28972656 12.87882813 -10.57945312 12.75765625 -9.84765625 12.6328125 C-8.92855469 12.46523437 -8.00945313 12.29765625 -7.0625 12.125 C-5.68771484 11.88136719 -5.68771484 11.88136719 -4.28515625 11.6328125 C-3.53105469 11.42398438 -2.77695312 11.21515625 -2 11 C-0.85185003 8.70370006 -0.69230191 6.92301914 -0.4375 4.375 C-0.35371094 3.55773437 -0.26992188 2.74046875 -0.18359375 1.8984375 C-0.12300781 1.27195313 -0.06242188 0.64546875 0 0 Z " fill="#F9F9F9" transform="translate(524,236)"/>
<path d="M0 0 C0.33 0 0.66 0 1 0 C1 4.62 1 9.24 1 14 C-3.95 14 -8.9 14 -14 14 C-14 13.67 -14 13.34 -14 13 C-9.71 12.34 -5.42 11.68 -1 11 C-0.67 7.37 -0.34 3.74 0 0 Z " fill="#F8F8F8" transform="translate(539,222)"/>
<path d="M0 0 C0 4.62 0 9.24 0 14 C-0.33 14 -0.66 14 -1 14 C-1.03738281 13.31292969 -1.07476562 12.62585938 -1.11328125 11.91796875 C-1.17902344 11.01691406 -1.24476563 10.11585938 -1.3125 9.1875 C-1.37050781 8.29417969 -1.42851562 7.40085937 -1.48828125 6.48046875 C-2.06313581 3.69396 -2.8206856 2.75864246 -5 1 C-3 0 -3 0 0 0 Z " fill="#FBFBFB" transform="translate(212,573)"/>
<path d="M0 0 C0.99 0.33 1.98 0.66 3 1 C5.32128614 1.02896435 7.62215805 0.93505098 9.94140625 0.83984375 C12 1 12 1 14 3 C9.38 3 4.76 3 0 3 C0 2.01 0 1.02 0 0 Z " fill="#F6F6F6" transform="translate(659,233)"/>
<path d="M0 0 C3.96 0 7.92 0 12 0 C12 1.65 12 3.3 12 5 C11.505 4.525625 11.01 4.05125 10.5 3.5625 C7.00531349 1.37832093 4.09033064 1.34086089 0 1 C0 0.67 0 0.34 0 0 Z " fill="#FCFCFD" transform="translate(228,616)"/>
<path d="M0 0 C0.185625 0.61875 0.37125 1.2375 0.5625 1.875 C2.71437233 5.05602866 5.37533763 5.19451947 9 6 C9 6.33 9 6.66 9 7 C6.03 7 3.06 7 0 7 C0 4.69 0 2.38 0 0 Z " fill="#FBFDFC" transform="translate(483,242)"/>
</svg>
