<svg version="1.1" xmlns="http://www.w3.org/2000/svg" width="48" height="48" viewBox="0 0 850 850">
<path d="M0 0 C1.6451094 0.00025112 3.29022405 0.00581355 4.93530273 0.01586914 C6.083797 0.01737976 6.083797 0.01737976 7.25549316 0.0189209 C10.12664275 0.02416876 12.99777106 0.03812992 15.86889648 0.05102539 C22.28327148 0.07165039 28.69764648 0.09227539 35.30639648 0.11352539 C35.63639648 14.30352539 35.96639648 28.49352539 36.30639648 43.11352539 C49.75453653 43.07392023 49.75453653 43.07392023 63.20263672 43.0234375 C64.88175392 43.02051839 66.56087181 43.01796982 68.23999023 43.01586914 C69.12013794 43.01075317 70.00028564 43.00563721 70.90710449 43.00036621 C73.04053527 43.00005643 75.17387962 43.05108472 77.30639648 43.11352539 C78.30639648 44.11352539 78.30639648 44.11352539 78.40405273 47.27368164 C78.37150065 50.88696289 78.33894857 54.50024414 78.30639648 58.11352539 C82.92639648 58.11352539 87.54639648 58.11352539 92.30639648 58.11352539 C92.30639648 62.73352539 92.30639648 67.35352539 92.30639648 72.11352539 C93.62639648 71.78352539 94.94639648 71.45352539 96.30639648 71.11352539 C97.8451923 71.00061034 99.38851738 70.93892572 100.93139648 70.92602539 C101.70741211 70.9118457 102.48342773 70.89766602 103.28295898 70.88305664 C105.30639648 71.11352539 105.30639648 71.11352539 107.30639648 73.11352539 C107.58423192 77.12546905 107.39204598 81.08799901 107.30639648 85.11352539 C111.26639648 85.11352539 115.22639648 85.11352539 119.30639648 85.11352539 C119.30639648 80.82352539 119.30639648 76.53352539 119.30639648 72.11352539 C124.27702769 71.20055231 128.33576528 71.20055231 133.30639648 72.11352539 C133.30639648 67.49352539 133.30639648 62.87352539 133.30639648 58.11352539 C138.25639648 58.11352539 143.20639648 58.11352539 148.30639648 58.11352539 C148.27545898 54.67946289 148.27545898 54.67946289 148.24389648 51.17602539 C148.22268781 48.82186208 148.23367907 46.46666094 148.30639648 44.11352539 C149.30639648 43.11352539 149.30639648 43.11352539 153.27539062 43 C155.04745254 43.00025118 156.81951932 43.00581561 158.59155273 43.01586914 C159.82850891 43.01737976 159.82850891 43.01737976 161.0904541 43.0189209 C164.18328229 43.02416947 167.27609072 43.03813062 170.36889648 43.05102539 C177.27827148 43.07165039 184.18764648 43.09227539 191.30639648 43.11352539 C191.30639648 28.92352539 191.30639648 14.73352539 191.30639648 0.11352539 C196.73077148 0.09290039 202.15514648 0.07227539 207.74389648 0.05102539 C209.45762451 0.04192139 211.17135254 0.03281738 212.93701172 0.0234375 C214.28800376 0.02051823 215.63899667 0.0179697 216.98999023 0.01586914 C217.69740356 0.01075317 218.40481689 0.00563721 219.13366699 0.00036621 C220.85832266 0.00005507 222.58286486 0.05126778 224.30639648 0.11352539 C225.30639648 1.11352539 225.30639648 1.11352539 225.40405273 4.27368164 C225.38665039 6.2053418 225.38665039 6.2053418 225.36889648 8.17602539 C225.35987305 9.46637695 225.35084961 10.75672852 225.34155273 12.08618164 C225.32415039 13.5847168 225.32415039 13.5847168 225.30639648 15.11352539 C226.44979492 15.10192383 227.59319336 15.09032227 228.77124023 15.07836914 C230.26212403 15.06899251 231.75300957 15.05989218 233.24389648 15.05102539 C234.37601563 15.03845703 234.37601563 15.03845703 235.53100586 15.02563477 C237.45633962 15.01700098 239.38175229 15.06128206 241.30639648 15.11352539 C242.30639648 16.11352539 242.30639648 16.11352539 242.41992188 18.70556641 C242.41468506 19.83148193 242.40944824 20.95739746 242.40405273 22.11743164 C242.40083008 23.33237305 242.39760742 24.54731445 242.39428711 25.79907227 C242.3859082 27.0784668 242.3775293 28.35786133 242.36889648 29.67602539 C242.36438477 30.95928711 242.35987305 32.24254883 242.35522461 33.56469727 C242.34339204 36.74765959 242.32545593 39.93059813 242.30639648 43.11352539 C250.88639648 43.11352539 259.46639648 43.11352539 268.30639648 43.11352539 C270.14662394 46.79398031 270.56448669 47.90098523 270.49389648 51.73852539 C270.48745117 52.51454102 270.48100586 53.29055664 270.47436523 54.09008789 C270.30639648 56.11352539 270.30639648 56.11352539 269.30639648 58.11352539 C270.80493164 58.09612305 270.80493164 58.09612305 272.33374023 58.07836914 C273.6240918 58.0693457 274.91444336 58.06032227 276.24389648 58.05102539 C277.53166992 58.03942383 278.81944336 58.02782227 280.14624023 58.01586914 C283.30639648 58.11352539 283.30639648 58.11352539 284.30639648 59.11352539 C284.37898594 61.29991992 284.39013431 63.48852928 284.36889648 65.67602539 C284.35987305 66.87356445 284.35084961 68.07110352 284.34155273 69.30493164 C284.32415039 70.69518555 284.32415039 70.69518555 284.30639648 72.11352539 C284.88131836 71.95239258 285.45624023 71.79125977 286.04858398 71.62524414 C289.56481944 70.82831188 292.69963414 70.93900463 296.30639648 71.11352539 C298.30639648 73.11352539 298.30639648 73.11352539 298.53344727 75.8190918 C298.52297363 76.93977051 298.5125 78.06044922 298.50170898 79.21508789 C298.49526367 80.42680664 298.48881836 81.63852539 298.48217773 82.88696289 C298.46541992 84.15797852 298.44866211 85.42899414 298.43139648 86.73852539 C298.42237305 88.01727539 298.41334961 89.29602539 298.40405273 90.61352539 C298.3804203 93.78027118 298.34454834 96.94692124 298.30639648 100.11352539 C302.92639648 100.11352539 307.54639648 100.11352539 312.30639648 100.11352539 C312.30639648 132.45352539 312.30639648 164.79352539 312.30639648 198.11352539 C316.26639648 198.11352539 320.22639648 198.11352539 324.30639648 198.11352539 C324.29479492 197.18668945 324.28319336 196.25985352 324.27124023 195.30493164 C324.25770508 193.50862305 324.25770508 193.50862305 324.24389648 191.67602539 C324.22649414 189.88358398 324.22649414 189.88358398 324.20874023 188.05493164 C324.30639648 185.11352539 324.30639648 185.11352539 325.30639648 184.11352539 C328.33595892 184.02481898 331.34326358 183.99825957 334.37280273 184.01586914 C335.17778198 184.01687622 335.98276123 184.0178833 336.81213379 184.0189209 C339.83106909 184.02416925 342.84998416 184.0381304 345.86889648 184.05102539 C352.61327148 184.07165039 359.35764648 184.09227539 366.30639648 184.11352539 C366.30639648 170.25352539 366.30639648 156.39352539 366.30639648 142.11352539 C370.16749906 141.34130488 373.1487592 140.98518877 377.00952148 140.98071289 C378.07170898 140.97942383 379.13389648 140.97813477 380.22827148 140.97680664 C381.87569336 140.98260742 381.87569336 140.98260742 383.55639648 140.98852539 C384.67014648 140.9846582 385.78389648 140.98079102 386.93139648 140.97680664 C387.98842773 140.9780957 389.04545898 140.97938477 390.13452148 140.98071289 C391.10292969 140.98184082 392.07133789 140.98296875 393.0690918 140.98413086 C395.30639648 141.11352539 395.30639648 141.11352539 396.30639648 142.11352539 C396.3791139 144.46666094 396.39010516 146.82186208 396.36889648 149.17602539 C396.35987305 150.46637695 396.35084961 151.75672852 396.34155273 153.08618164 C396.32415039 154.5847168 396.32415039 154.5847168 396.30639648 156.11352539 C397.30541992 156.10192383 398.30444336 156.09032227 399.33374023 156.07836914 C400.6240918 156.0693457 401.91444336 156.06032227 403.24389648 156.05102539 C404.53166992 156.03942383 405.81944336 156.02782227 407.14624023 156.01586914 C410.30639648 156.11352539 410.30639648 156.11352539 411.30639648 157.11352539 C411.39998838 158.83217948 411.42384259 160.55468283 411.41992188 162.27587891 C411.41984634 163.37694473 411.41977081 164.47801056 411.41969299 165.61244202 C411.41453171 166.81033859 411.40937042 168.00823517 411.40405273 169.24243164 C411.40263779 170.46179916 411.40122284 171.68116669 411.39976501 172.93748474 C411.39414615 176.85035609 411.38159045 180.7631712 411.36889648 184.67602539 C411.36388391 187.32120686 411.35932059 189.96638922 411.35522461 192.61157227 C411.34417059 199.11224513 411.32689332 205.61287571 411.30639648 212.11352539 C415.92639648 212.11352539 420.54639648 212.11352539 425.30639648 212.11352539 C425.30639648 217.06352539 425.30639648 222.01352539 425.30639648 227.11352539 C427.41014648 226.90727539 429.51389648 226.70102539 431.68139648 226.48852539 C435.26733398 226.13696289 435.26733398 226.13696289 438.30639648 226.11352539 C440.30639648 228.11352539 440.30639648 228.11352539 440.55528545 230.32461643 C440.5544683 231.71365382 440.5544683 231.71365382 440.55363464 233.13075256 C440.55782913 234.19224014 440.56202362 235.25372772 440.56634521 236.34738159 C440.55791595 238.10152878 440.55791595 238.10152878 440.54931641 239.89111328 C440.55121475 241.11874893 440.5531131 242.34638458 440.55506897 243.61122131 C440.55814498 246.98305419 440.5522537 250.35464328 440.54211593 253.72644734 C440.53334806 257.24938771 440.53509261 260.77232378 440.53547668 264.29527283 C440.53453957 270.21103124 440.52584864 276.12673843 440.51220703 282.04248047 C440.49647375 288.89077228 440.49120915 295.73900799 440.49194258 302.58731657 C440.49255204 309.16541645 440.48745463 315.74349796 440.47915077 322.32159233 C440.47561207 325.12580954 440.47378669 327.93002025 440.47325706 330.73423958 C440.47206991 334.64462407 440.46237359 338.55496146 440.45166016 342.46533203 C440.45211334 343.63678772 440.45256653 344.80824341 440.45303345 346.01519775 C440.44876846 347.07386551 440.44450348 348.13253326 440.44010925 349.22328186 C440.43843341 350.14892976 440.43675756 351.07457766 440.43503094 352.02827549 C440.30639648 354.11352539 440.30639648 354.11352539 439.30639648 355.11352539 C436.95326094 355.18624281 434.5980598 355.19723407 432.24389648 355.17602539 C430.95354492 355.16700195 429.66319336 355.15797852 428.33374023 355.14868164 C426.83520508 355.1312793 426.83520508 355.1312793 425.30639648 355.11352539 C425.3116333 356.35030029 425.31687012 357.5870752 425.32226562 358.86132812 C425.3403121 363.43277264 425.35182719 368.00421398 425.36132812 372.57568359 C425.36636916 374.55745981 425.37320187 376.53923228 425.38183594 378.52099609 C425.39391163 381.36304648 425.39962694 384.20504786 425.40405273 387.04711914 C425.40921402 387.93878281 425.41437531 388.83044647 425.41969299 389.74913025 C425.41988825 391.8709314 425.36849678 393.99263319 425.30639648 396.11352539 C424.30639648 397.11352539 424.30639648 397.11352539 421.36499023 397.21118164 C418.01212565 397.17862956 414.65926107 397.14607747 411.30639648 397.11352539 C411.30639648 401.73352539 411.30639648 406.35352539 411.30639648 411.11352539 C408.15708755 412.16329503 405.91825192 412.21484134 402.61889648 412.17602539 C401.6250293 412.16700195 400.63116211 412.15797852 399.60717773 412.14868164 C398.46829102 412.1312793 398.46829102 412.1312793 397.30639648 412.11352539 C397.3116333 412.92619873 397.31687012 413.73887207 397.32226562 414.57617188 C397.34296642 418.23444861 397.35603451 421.89271306 397.36889648 425.55102539 C397.37727539 426.83041992 397.3856543 428.10981445 397.39428711 429.42797852 C397.39750977 430.64291992 397.40073242 431.85786133 397.40405273 433.10961914 C397.40928955 434.23553467 397.41452637 435.3614502 397.41992188 436.52148438 C397.30639648 439.11352539 397.30639648 439.11352539 396.30639648 440.11352539 C391.68639648 440.11352539 387.06639648 440.11352539 382.30639648 440.11352539 C382.30639648 463.21352539 382.30639648 486.31352539 382.30639648 510.11352539 C377.68639648 510.11352539 373.06639648 510.11352539 368.30639648 510.11352539 C368.30639648 523.97352539 368.30639648 537.83352539 368.30639648 552.11352539 C364.01639648 552.44352539 359.72639648 552.77352539 355.30639648 553.11352539 C355.16202148 555.23790039 355.01764648 557.36227539 354.86889648 559.55102539 C354.43139648 565.98852539 354.43139648 565.98852539 353.30639648 567.11352539 C351.12000195 567.18611485 348.93139259 567.19726322 346.74389648 567.17602539 C345.54635742 567.16700195 344.34881836 567.15797852 343.11499023 567.14868164 C342.1881543 567.13708008 341.26131836 567.12547852 340.30639648 567.11352539 C340.3116333 567.92619873 340.31687012 568.73887207 340.32226562 569.57617188 C340.34296642 573.23444861 340.35603451 576.89271306 340.36889648 580.55102539 C340.37727539 581.83041992 340.3856543 583.10981445 340.39428711 584.42797852 C340.39750977 585.64291992 340.40073242 586.85786133 340.40405273 588.10961914 C340.40928955 589.23553467 340.41452637 590.3614502 340.41992188 591.52148438 C340.30639648 594.11352539 340.30639648 594.11352539 339.30639648 595.11352539 C334.97108731 595.25745996 330.64481917 595.155646 326.30639648 595.11352539 C326.30639648 599.73352539 326.30639648 604.35352539 326.30639648 609.11352539 C321.68639648 609.11352539 317.06639648 609.11352539 312.30639648 609.11352539 C312.33733398 612.30008789 312.33733398 612.30008789 312.36889648 615.55102539 C312.39013431 617.7385215 312.37898594 619.92713086 312.30639648 622.11352539 C311.30639648 623.11352539 311.30639648 623.11352539 308.36499023 623.21118164 C306.57254883 623.1937793 306.57254883 623.1937793 304.74389648 623.17602539 C303.54635742 623.16700195 302.34881836 623.15797852 301.11499023 623.14868164 C300.1881543 623.13708008 299.26131836 623.12547852 298.30639648 623.11352539 C298.31799805 624.04036133 298.32959961 624.96719727 298.34155273 625.92211914 C298.35508789 627.71842773 298.35508789 627.71842773 298.36889648 629.55102539 C298.38049805 630.74598633 298.39209961 631.94094727 298.40405273 633.17211914 C298.30639648 636.11352539 298.30639648 636.11352539 297.30639648 637.11352539 C295.12000195 637.18611485 292.93139259 637.19726322 290.74389648 637.17602539 C289.54635742 637.16700195 288.34881836 637.15797852 287.11499023 637.14868164 C286.1881543 637.13708008 285.26131836 637.12547852 284.30639648 637.11352539 C284.31799805 638.04036133 284.32959961 638.96719727 284.34155273 639.92211914 C284.35508789 641.71842773 284.35508789 641.71842773 284.36889648 643.55102539 C284.38049805 644.74598633 284.39209961 645.94094727 284.40405273 647.17211914 C284.30639648 650.11352539 284.30639648 650.11352539 283.30639648 651.11352539 C281.30674666 651.20110542 279.30403539 651.22049115 277.30249023 651.21118164 C276.08754883 651.20795898 274.87260742 651.20473633 273.62084961 651.20141602 C272.34145508 651.19303711 271.06206055 651.1846582 269.74389648 651.17602539 C268.46063477 651.17151367 267.17737305 651.16700195 265.85522461 651.16235352 C262.67223626 651.15052085 259.48933886 651.13403607 256.30639648 651.11352539 C256.31799805 652.04036133 256.32959961 652.96719727 256.34155273 653.92211914 C256.35508789 655.71842773 256.35508789 655.71842773 256.36889648 657.55102539 C256.38049805 658.74598633 256.39209961 659.94094727 256.40405273 661.17211914 C256.30639648 664.11352539 256.30639648 664.11352539 255.30639648 665.11352539 C253.16080822 665.20128144 251.01235227 665.22047758 248.86499023 665.21118164 C246.90722656 665.20634766 246.90722656 665.20634766 244.90991211 665.20141602 C243.52123959 665.1930594 242.13256771 665.18459444 240.74389648 665.17602539 C239.35131993 665.17101205 237.95874167 665.16644886 236.56616211 665.16235352 C233.14622198 665.15051981 229.72630399 665.1325837 226.30639648 665.11352539 C226.30639648 669.73352539 226.30639648 674.35352539 226.30639648 679.11352539 C158.65639648 679.11352539 91.00639648 679.11352539 21.30639648 679.11352539 C19.21408251 674.92889744 20.30639648 669.79208167 20.30639648 665.11352539 C1.49639648 665.11352539 -17.31360352 665.11352539 -36.69360352 665.11352539 C-36.69360352 660.49352539 -36.69360352 655.87352539 -36.69360352 651.11352539 C-45.93360352 651.11352539 -55.17360352 651.11352539 -64.69360352 651.11352539 C-65.54582347 647.70464556 -65.80144106 645.30917908 -65.75610352 641.86352539 C-65.74708008 640.97149414 -65.73805664 640.07946289 -65.72875977 639.16040039 C-65.71135742 638.14719727 -65.71135742 638.14719727 -65.69360352 637.11352539 C-67.08385742 637.13092773 -67.08385742 637.13092773 -68.50219727 637.14868164 C-69.69973633 637.15770508 -70.89727539 637.16672852 -72.13110352 637.17602539 C-73.32606445 637.18762695 -74.52102539 637.19922852 -75.75219727 637.21118164 C-78.69360352 637.11352539 -78.69360352 637.11352539 -79.69360352 636.11352539 C-79.76619298 633.92713086 -79.77734134 631.7385215 -79.75610352 629.55102539 C-79.74708008 628.35348633 -79.73805664 627.15594727 -79.72875977 625.92211914 C-79.7171582 624.9952832 -79.70555664 624.06844727 -79.69360352 623.11352539 C-81.08385742 623.13092773 -81.08385742 623.13092773 -82.50219727 623.14868164 C-83.69973633 623.15770508 -84.89727539 623.16672852 -86.13110352 623.17602539 C-87.32606445 623.18762695 -88.52102539 623.19922852 -89.75219727 623.21118164 C-92.69360352 623.11352539 -92.69360352 623.11352539 -93.69360352 622.11352539 C-93.85166882 620.18873726 -93.94473851 618.25853329 -94.01000977 616.32836914 C-94.0519043 615.15854492 -94.09379883 613.9887207 -94.13696289 612.78344727 C-94.1762793 611.55174805 -94.2155957 610.32004883 -94.25610352 609.05102539 C-94.29928711 607.81545898 -94.3424707 606.57989258 -94.38696289 605.30688477 C-94.4934455 602.24255204 -94.59545775 599.17813466 -94.69360352 596.11352539 C-95.68110596 596.04641357 -96.6686084 595.97930176 -97.68603516 595.91015625 C-107.56860352 595.23852539 -107.56860352 595.23852539 -108.69360352 594.11352539 C-108.76619298 591.92713086 -108.77734134 589.7385215 -108.75610352 587.55102539 C-108.74708008 586.35348633 -108.73805664 585.15594727 -108.72875977 583.92211914 C-108.7171582 582.9952832 -108.70555664 582.06844727 -108.69360352 581.11352539 C-110.08385742 581.13092773 -110.08385742 581.13092773 -111.50219727 581.14868164 C-112.69973633 581.15770508 -113.89727539 581.16672852 -115.13110352 581.17602539 C-116.32606445 581.18762695 -117.52102539 581.19922852 -118.75219727 581.21118164 C-121.69360352 581.11352539 -121.69360352 581.11352539 -122.69360352 580.11352539 C-122.78118354 578.11387557 -122.80056928 576.11116429 -122.79125977 574.10961914 C-122.78642578 572.28720703 -122.78642578 572.28720703 -122.78149414 570.42797852 C-122.76892578 568.50888672 -122.76892578 568.50888672 -122.75610352 566.55102539 C-122.7515918 565.26776367 -122.74708008 563.98450195 -122.74243164 562.66235352 C-122.73059897 559.47936517 -122.7141142 556.29646777 -122.69360352 553.11352539 C-123.60883789 553.13672852 -124.52407227 553.15993164 -125.46704102 553.18383789 C-127.24981445 553.2109082 -127.24981445 553.2109082 -129.06860352 553.23852539 C-130.25196289 553.26172852 -131.43532227 553.28493164 -132.65454102 553.30883789 C-135.69360352 553.11352539 -135.69360352 553.11352539 -137.69360352 551.11352539 C-137.86913771 548.028276 -137.92483148 545.03388337 -137.88891602 541.94946289 C-137.88608612 541.04225494 -137.88325623 540.135047 -137.88034058 539.2003479 C-137.86912504 536.29627416 -137.84401814 533.39250627 -137.81860352 530.48852539 C-137.80857548 528.522384 -137.79944933 526.55623779 -137.79125977 524.59008789 C-137.76918124 519.7644488 -137.73464216 514.93903899 -137.69360352 510.11352539 C-138.54825195 510.12512695 -139.40290039 510.13672852 -140.28344727 510.14868164 C-141.94053711 510.1622168 -141.94053711 510.1622168 -143.63110352 510.17602539 C-144.73325195 510.18762695 -145.83540039 510.19922852 -146.97094727 510.21118164 C-149.69360352 510.11352539 -149.69360352 510.11352539 -150.69360352 509.11352539 C-150.78785947 506.9660899 -150.81102999 504.81551513 -150.80712891 502.66601562 C-150.80727493 501.99287323 -150.80742096 501.31973083 -150.80757141 500.62619019 C-150.8068723 498.39146755 -150.79908004 496.15682729 -150.79125977 493.92211914 C-150.78939558 492.37655177 -150.78797168 490.83098382 -150.78697205 489.28541565 C-150.78314692 485.20995462 -150.77331668 481.13452902 -150.76226807 477.05908203 C-150.75205383 472.90340657 -150.7474744 468.7477254 -150.74243164 464.59204102 C-150.73169441 456.43251952 -150.71461805 448.27302686 -150.69360352 440.11352539 C-151.60883789 440.13672852 -152.52407227 440.15993164 -153.46704102 440.18383789 C-154.65555664 440.20188477 -155.84407227 440.21993164 -157.06860352 440.23852539 C-158.25196289 440.26172852 -159.43532227 440.28493164 -160.65454102 440.30883789 C-163.69360352 440.11352539 -163.69360352 440.11352539 -165.69360352 438.11352539 C-165.9206543 435.40795898 -165.9206543 435.40795898 -165.88891602 432.01196289 C-165.8824707 430.80024414 -165.87602539 429.58852539 -165.86938477 428.34008789 C-165.85262695 427.06907227 -165.83586914 425.79805664 -165.81860352 424.48852539 C-165.80958008 423.20977539 -165.80055664 421.93102539 -165.79125977 420.61352539 C-165.76762654 417.44667372 -165.7346798 414.28019115 -165.69360352 411.11352539 C-166.95817383 411.23920898 -166.95817383 411.23920898 -168.24829102 411.36743164 C-169.34399414 411.46926758 -170.43969727 411.57110352 -171.56860352 411.67602539 C-172.65915039 411.78043945 -173.74969727 411.88485352 -174.87329102 411.99243164 C-177.69360352 412.11352539 -177.69360352 412.11352539 -179.69360352 411.11352539 C-179.69360352 406.49352539 -179.69360352 401.87352539 -179.69360352 397.11352539 C-183.12766602 397.14446289 -183.12766602 397.14446289 -186.63110352 397.17602539 C-188.98526683 397.19723407 -191.34046797 397.18624281 -193.69360352 397.11352539 C-194.69360352 396.11352539 -194.69360352 396.11352539 -194.80712891 392.23632812 C-194.80696973 390.50658372 -194.80127201 388.77683458 -194.79125977 387.04711914 C-194.78984482 386.13849625 -194.78842987 385.22987335 -194.78697205 384.29371643 C-194.78135545 381.37945318 -194.76880016 378.46526558 -194.75610352 375.55102539 C-194.75109065 373.58032337 -194.74652738 371.60962015 -194.74243164 369.63891602 C-194.73138063 364.7970898 -194.7141049 359.95532044 -194.69360352 355.11352539 C-196.08385742 355.13092773 -196.08385742 355.13092773 -197.50219727 355.14868164 C-198.69973633 355.15770508 -199.89727539 355.16672852 -201.13110352 355.17602539 C-202.32606445 355.18762695 -203.52102539 355.19922852 -204.75219727 355.21118164 C-207.69360352 355.11352539 -207.69360352 355.11352539 -208.69360352 354.11352539 C-208.79141576 352.64836235 -208.819921 351.17850717 -208.82058716 349.71008301 C-208.82340698 348.7593541 -208.82622681 347.80862518 -208.82913208 346.8290863 C-208.82710785 345.77761917 -208.82508362 344.72615204 -208.82299805 343.64282227 C-208.82475037 342.54212906 -208.82650269 341.44143585 -208.82830811 340.30738831 C-208.83272919 336.64900155 -208.82978772 332.99066268 -208.82641602 329.33227539 C-208.82708898 326.80261221 -208.82805894 324.27294909 -208.82931519 321.74328613 C-208.83079251 316.4335869 -208.8287311 311.12390502 -208.82397461 305.81420898 C-208.81853202 299.66746581 -208.82029469 293.5207558 -208.82580101 287.37401342 C-208.83087791 281.47134975 -208.83035057 275.56869643 -208.82741928 269.66603088 C-208.82674976 267.14929703 -208.82757932 264.63256234 -208.82989883 262.11582947 C-208.83242384 258.60527264 -208.8285869 255.09478049 -208.82299805 251.58422852 C-208.82502228 250.53276138 -208.82704651 249.48129425 -208.82913208 248.39796448 C-208.82631226 247.44723557 -208.82349243 246.49650665 -208.82058716 245.51696777 C-208.82021013 244.68588753 -208.81983311 243.85480728 -208.81944466 242.99854279 C-208.69360352 241.11352539 -208.69360352 241.11352539 -207.69360352 240.11352539 C-205.50720898 240.04093593 -203.31859963 240.02978756 -201.13110352 240.05102539 C-199.93356445 240.06004883 -198.73602539 240.06907227 -197.50219727 240.07836914 C-196.57536133 240.0899707 -195.64852539 240.10157227 -194.69360352 240.11352539 C-194.70145874 238.89451538 -194.70145874 238.89451538 -194.70947266 237.65087891 C-194.73017346 233.99260217 -194.74324154 230.33433772 -194.75610352 226.67602539 C-194.76867187 224.75693359 -194.76867187 224.75693359 -194.78149414 222.79907227 C-194.78632813 220.97666016 -194.78632813 220.97666016 -194.79125977 219.11743164 C-194.79649658 217.99151611 -194.8017334 216.86560059 -194.80712891 215.70556641 C-194.69360352 213.11352539 -194.69360352 213.11352539 -193.69360352 212.11352539 C-191.34046797 212.04080798 -188.98526683 212.02981671 -186.63110352 212.05102539 C-185.34075195 212.06004883 -184.05040039 212.06907227 -182.72094727 212.07836914 C-181.22241211 212.09577148 -181.22241211 212.09577148 -179.69360352 212.11352539 C-179.70520508 211.18668945 -179.71680664 210.25985352 -179.72875977 209.30493164 C-179.7377832 208.10739258 -179.74680664 206.90985352 -179.75610352 205.67602539 C-179.76770508 204.48106445 -179.77930664 203.28610352 -179.79125977 202.05493164 C-179.69360352 199.11352539 -179.69360352 199.11352539 -178.69360352 198.11352539 C-176.50720898 198.04093593 -174.31859963 198.02978756 -172.13110352 198.05102539 C-170.33479492 198.06456055 -170.33479492 198.06456055 -168.50219727 198.07836914 C-167.57536133 198.0899707 -166.64852539 198.10157227 -165.69360352 198.11352539 C-165.69884033 196.87675049 -165.70407715 195.63997559 -165.70947266 194.36572266 C-165.72751913 189.79427814 -165.73903422 185.2228368 -165.74853516 180.65136719 C-165.75357619 178.66959098 -165.7604089 176.6878185 -165.76904297 174.70605469 C-165.78111866 171.86400431 -165.78683397 169.02200292 -165.79125977 166.17993164 C-165.79642105 165.28826797 -165.80158234 164.39660431 -165.80690002 163.47792053 C-165.80709528 161.35611938 -165.75570382 159.23441759 -165.69360352 157.11352539 C-164.69360352 156.11352539 -164.69360352 156.11352539 -161.53344727 156.01586914 C-156.11352539 156.06469727 -156.11352539 156.06469727 -150.69360352 156.11352539 C-150.69360352 151.16352539 -150.69360352 146.21352539 -150.69360352 141.11352539 C-145.41360352 141.11352539 -140.13360352 141.11352539 -134.69360352 141.11352539 C-134.69360352 146.06352539 -134.69360352 151.01352539 -134.69360352 156.11352539 C-132.40422852 156.09290039 -130.11485352 156.07227539 -127.75610352 156.05102539 C-125.4019402 156.02981671 -123.04673906 156.04080798 -120.69360352 156.11352539 C-119.69360352 157.11352539 -119.69360352 157.11352539 -119.58007812 159.70556641 C-119.58793335 161.3944397 -119.58793335 161.3944397 -119.59594727 163.11743164 C-119.60078125 164.93984375 -119.60078125 164.93984375 -119.60571289 166.79907227 C-119.61828125 168.71816406 -119.61828125 168.71816406 -119.63110352 170.67602539 C-119.63561523 171.95928711 -119.64012695 173.24254883 -119.64477539 174.56469727 C-119.65660806 177.74768561 -119.67309283 180.93058301 -119.69360352 184.11352539 C-118.47459351 184.10567017 -118.47459351 184.10567017 -117.23095703 184.09765625 C-113.5726803 184.07695545 -109.91441584 184.06388736 -106.25610352 184.05102539 C-104.97670898 184.04264648 -103.69731445 184.03426758 -102.37915039 184.02563477 C-101.16420898 184.02241211 -99.94926758 184.01918945 -98.69750977 184.01586914 C-97.00863647 184.00801392 -97.00863647 184.00801392 -95.28564453 184 C-92.69360352 184.11352539 -92.69360352 184.11352539 -91.69360352 185.11352539 C-91.62101406 187.29991992 -91.60986569 189.48852928 -91.63110352 191.67602539 C-91.64012695 192.87356445 -91.64915039 194.07110352 -91.65844727 195.30493164 C-91.67004883 196.23176758 -91.68165039 197.15860352 -91.69360352 198.11352539 C-87.73360352 198.11352539 -83.77360352 198.11352539 -79.69360352 198.11352539 C-79.69360352 166.10352539 -79.69360352 134.09352539 -79.69360352 101.11352539 C-75.07488465 99.26603784 -73.92857147 98.88219633 -69.38110352 99.48852539 C-68.4980957 99.59938477 -67.61508789 99.71024414 -66.70532227 99.82446289 C-66.04145508 99.91985352 -65.37758789 100.01524414 -64.69360352 100.11352539 C-64.93530273 99.26661133 -64.93530273 99.26661133 -65.18188477 98.40258789 C-65.71115931 96.03499337 -65.86084194 93.91180964 -65.88110352 91.48852539 C-65.8952832 90.71250977 -65.90946289 89.93649414 -65.92407227 89.13696289 C-65.69360352 87.11352539 -65.69360352 87.11352539 -63.69360352 85.11352539 C-59.40360352 85.11352539 -55.11360352 85.11352539 -50.69360352 85.11352539 C-50.69360352 76.20352539 -50.69360352 67.29352539 -50.69360352 58.11352539 C-41.78360352 58.11352539 -32.87360352 58.11352539 -23.69360352 58.11352539 C-23.72454102 54.67946289 -23.72454102 54.67946289 -23.75610352 51.17602539 C-23.77731219 48.82186208 -23.76632093 46.46666094 -23.69360352 44.11352539 C-22.69360352 43.11352539 -22.69360352 43.11352539 -19.75219727 43.01586914 C-14.72290039 43.06469727 -14.72290039 43.06469727 -9.69360352 43.11352539 C-9.69360352 34.86352539 -9.69360352 26.61352539 -9.69360352 18.11352539 C-8.04360352 17.78352539 -6.39360352 17.45352539 -4.69360352 17.11352539 C-4.70520508 15.97012695 -4.71680664 14.82672852 -4.72875977 13.64868164 C-4.73813639 12.15779785 -4.74723673 10.6669123 -4.75610352 9.17602539 C-4.76448242 8.4212793 -4.77286133 7.6665332 -4.78149414 6.88891602 C-4.79012792 4.96358226 -4.74584684 3.03816958 -4.69360352 1.11352539 C-3.69360352 0.11352539 -3.69360352 0.11352539 0 0 Z " fill="#212120" transform="translate(390.693603515625,176.886474609375)"/>
<path d="M0 0 C27.72 0 55.44 0 84 0 C84 4.95 84 9.9 84 15 C88.62 15 93.24 15 98 15 C98 19.62 98 24.24 98 29 C102.62 29 107.24 29 112 29 C112 43.19 112 57.38 112 72 C116.29 72 120.58 72 125 72 C125 76.62 125 81.24 125 86 C132.59 86 140.18 86 148 86 C148 90.62 148 95.24 148 100 C152.95 100 157.9 100 163 100 C163 104.62 163 109.24 163 114 C167.95 114 172.9 114 178 114 C178 137.1 178 160.2 178 184 C173.05 184 168.1 184 163 184 C163 188.62 163 193.24 163 198 C141.55 198 120.1 198 98 198 C98 193.38 98 188.76 98 184 C61.04 184 24.08 184 -14 184 C-14 188.95 -14 193.9 -14 199 C-37.76 199 -61.52 199 -86 199 C-86 194.05 -86 189.1 -86 184 C-90.62 184 -95.24 184 -100 184 C-100 160.9 -100 137.8 -100 114 C-95.38 114 -90.76 114 -86 114 C-86 109.05 -86 104.1 -86 99 C-81.05 99 -76.1 99 -71 99 C-71 94.71 -71 90.42 -71 86 C-66.38 86 -61.76 86 -57 86 C-57 81.38 -57 76.76 -57 72 C-52.38 72 -47.76 72 -43 72 C-43 67.38 -43 62.76 -43 58 C-38.38 58 -33.76 58 -29 58 C-29 48.43 -29 38.86 -29 29 C-24.38 29 -19.76 29 -15 29 C-15 24.38 -15 19.76 -15 15 C-10.05 15 -5.1 15 0 15 C0 10.05 0 5.1 0 0 Z " fill="#E89F9C" transform="translate(468,459)"/>
<path d="M0 0 C27.72 0 55.44 0 84 0 C84 4.95 84 9.9 84 15 C88.62 15 93.24 15 98 15 C98 19.62 98 24.24 98 29 C102.62 29 107.24 29 112 29 C112 43.19 112 57.38 112 72 C116.29 72 120.58 72 125 72 C125 76.62 125 81.24 125 86 C132.59 86 140.18 86 148 86 C148 90.62 148 95.24 148 100 C152.95 100 157.9 100 163 100 C163 104.62 163 109.24 163 114 C167.95 114 172.9 114 178 114 C178 137.1 178 160.2 178 184 C173.05 184 168.1 184 163 184 C163 188.62 163 193.24 163 198 C141.55 198 120.1 198 98 198 C98 193.38 98 188.76 98 184 C61.04 184 24.08 184 -14 184 C-14 188.95 -14 193.9 -14 199 C-37.76 199 -61.52 199 -86 199 C-86 194.05 -86 189.1 -86 184 C-90.62 184 -95.24 184 -100 184 C-100 160.9 -100 137.8 -100 114 C-95.38 114 -90.76 114 -86 114 C-85.67 132.48 -85.34 150.96 -85 170 C-61.57 170.33 -38.14 170.66 -14 171 C-14 166.38 -14 161.76 -14 157 C4.81 157 23.62 157 43 157 C43 152.38 43 147.76 43 143 C51.91 143 60.82 143 70 143 C70 147.62 70 152.24 70 157 C79.24 157 88.48 157 98 157 C98 161.62 98 166.24 98 171 C111.2 171 124.4 171 138 171 C138 166.38 138 161.76 138 157 C141.63 157 145.26 157 149 157 C149 142.81 149 128.62 149 114 C145.04 114 141.08 114 137 114 C137 109.05 137 104.1 137 99 C129.08 99 121.16 99 113 99 C111.85616359 94.42465436 111.93084949 90.70223451 112 86 C107.38 86 102.76 86 98 86 C98 71.81 98 57.62 98 43 C93.38 43 88.76 43 84 43 C84 38.71 84 34.42 84 30 C77.07 29.505 77.07 29.505 70 29 C70 24.38 70 19.76 70 15 C46.9 15 23.8 15 0 15 C0 10.05 0 5.1 0 0 Z " fill="#E68686" transform="translate(468,459)"/>
<path d="M0 0 C14.52 0 29.04 0 44 0 C44 4.95 44 9.9 44 15 C48.29 15 52.58 15 57 15 C57 19.29 57 23.58 57 28 C61.95 28 66.9 28 72 28 C72 51.1 72 74.2 72 98 C67.38 98 62.76 98 58 98 C58 102.95 58 107.9 58 113 C53.38 113 48.76 113 44 113 C44 117.62 44 122.24 44 127 C34.43 127 24.86 127 15 127 C15 122.38 15 117.76 15 113 C10.05 113 5.1 113 0 113 C0 108.38 0 103.76 0 99 C-4.62 99 -9.24 99 -14 99 C-14 75.24 -14 51.48 -14 27 C-9.38 27 -4.76 27 0 27 C0 18.09 0 9.18 0 0 Z " fill="#E99F9C" transform="translate(382,291)"/>
<path d="M0 0 C18.81 0 37.62 0 57 0 C57 4.62 57 9.24 57 14 C61.95 14 66.9 14 72 14 C72 42.05 72 70.1 72 99 C67.05 99 62.1 99 57 99 C57 103.62 57 108.24 57 113 C42.81 113 28.62 113 14 113 C14 108.38 14 103.76 14 99 C9.38 99 4.76 99 0 99 C0 94.05 0 89.1 0 84 C-4.62 84 -9.24 84 -14 84 C-14 60.9 -14 37.8 -14 14 C-9.38 14 -4.76 14 0 14 C0 9.38 0 4.76 0 0 Z " fill="#E9A09D" transform="translate(241,432)"/>
<path d="M0 0 C18.48 0 36.96 0 56 0 C56 4.62 56 9.24 56 14 C60.95 14 65.9 14 71 14 C71 37.43 71 60.86 71 85 C66.05 85 61.1 85 56 85 C56 89.62 56 94.24 56 99 C51.05 99 46.1 99 41 99 C41 103.62 41 108.24 41 113 C27.47 113 13.94 113 0 113 C0 108.38 0 103.76 0 99 C-4.95 99 -9.9 99 -15 99 C-15 70.95 -15 42.9 -15 14 C-10.05 14 -5.1 14 0 14 C0 9.38 0 4.76 0 0 Z " fill="#E9A19E" transform="translate(716,432)"/>
<path d="M0 0 C12.21 0 24.42 0 37 0 C37 4.62 37 9.24 37 14 C41.95 14 46.9 14 52 14 C52 18.62 52 23.24 52 28 C56.62 28 61.24 28 66 28 C66 51.43 66 74.86 66 99 C61.38 99 56.76 99 52 99 C52 103.62 52 108.24 52 113 C47.05 113 42.1 113 37 113 C37 117.62 37 122.24 37 127 C29.41 127 21.82 127 14 127 C14 122.38 14 117.76 14 113 C9.38 113 4.76 113 0 113 C0 108.38 0 103.76 0 99 C-4.62 99 -9.24 99 -14 99 C-14 70.95 -14 42.9 -14 14 C-9.38 14 -4.76 14 0 14 C0 9.38 0 4.76 0 0 Z " fill="#E79E9B" transform="translate(580,291)"/>
<path d="M0 0 C14.52 0 29.04 0 44 0 C44 4.62 44 9.24 44 14 C43.67 14 43.34 14 43 14 C43 9.71 43 5.42 43 1 C29.14 1 15.28 1 1 1 C1.0103125 4.83238281 1.020625 8.66476562 1.03125 12.61328125 C1.0462055 27.80865048 0.79104711 42.995427 0.5 58.1875 C0.45159659 60.81054271 0.40341857 63.43358959 0.35546875 66.05664062 C0.23956191 72.37114455 0.12065965 78.68558518 0 85 C4.95 85 9.9 85 15 85 C15 89.62 15 94.24 15 99 C19.95 99 24.9 99 30 99 C30 94.38 30 89.76 30 85 C34.29 85 38.58 85 43 85 C43 80.38 43 75.76 43 71 C47.95 71 52.9 71 58 71 C58 56.81 58 42.62 58 28 C62.62 28 67.24 28 72 28 C72 51.1 72 74.2 72 98 C67.38 98 62.76 98 58 98 C58 102.95 58 107.9 58 113 C53.38 113 48.76 113 44 113 C44 117.62 44 122.24 44 127 C34.43 127 24.86 127 15 127 C15 122.38 15 117.76 15 113 C10.05 113 5.1 113 0 113 C0 108.38 0 103.76 0 99 C-4.62 99 -9.24 99 -14 99 C-14 75.24 -14 51.48 -14 27 C-9.38 27 -4.76 27 0 27 C0 18.09 0 9.18 0 0 Z " fill="#E58887" transform="translate(382,291)"/>
<path d="M0 0 C0.33 0 0.66 0 1 0 C1 14.19 1 28.38 1 43 C5.62 43 10.24 43 15 43 C15 47.62 15 52.24 15 57 C19.62 57 24.24 57 29 57 C29 61.62 29 66.24 29 71 C38.24 71 47.48 71 57 71 C57 66.38 57 61.76 57 57 C61.62 57 66.24 57 71 57 C71 38.19 71 19.38 71 0 C75.95 0 80.9 0 86 0 C86 23.43 86 46.86 86 71 C81.05 71 76.1 71 71 71 C71 75.62 71 80.24 71 85 C66.05 85 61.1 85 56 85 C56 89.62 56 94.24 56 99 C42.47 99 28.94 99 15 99 C15 94.38 15 89.76 15 85 C10.05 85 5.1 85 0 85 C0 56.95 0 28.9 0 0 Z " fill="#E68988" transform="translate(701,446)"/>
<path d="M0 0 C4.95 0 9.9 0 15 0 C15 28.05 15 56.1 15 85 C10.05 85 5.1 85 0 85 C0 89.62 0 94.24 0 99 C-14.19 99 -28.38 99 -43 99 C-43 94.38 -43 89.76 -43 85 C-47.62 85 -52.24 85 -57 85 C-57 80.05 -57 75.1 -57 70 C-61.62 70 -66.24 70 -71 70 C-71 61.09 -71 52.18 -71 43 C-66.38 43 -61.76 43 -57 43 C-57 47.62 -57 52.24 -57 57 C-52.05 57 -47.1 57 -42 57 C-42 61.62 -42 66.24 -42 71 C-37.71 71 -33.42 71 -29 71 C-28.505 77.435 -28.505 77.435 -28 84 C-21.07 84.495 -21.07 84.495 -14 85 C-14 80.38 -14 75.76 -14 71 C-9.38 71 -4.76 71 0 71 C0 47.57 0 24.14 0 0 Z " fill="#E58988" transform="translate(298,446)"/>
<path d="M0 0 C0.33 0 0.66 0 1 0 C1 43.66666667 1 87.33333333 1 131 C5.62 131 10.24 131 15 131 C15 139.91 15 148.82 15 158 C19.62 158 24.24 158 29 158 C29 176.48 29 194.96 29 214 C33.62 214 38.24 214 43 214 C43 214.33 43 214.66 43 215 C40.68802845 215.19390729 38.3753971 215.37996367 36.0625 215.5625 C34.77472656 215.66691406 33.48695313 215.77132812 32.16015625 215.87890625 C31.11730469 215.91886719 30.07445312 215.95882812 29 216 C28 215 28 215 27.88647461 212.40795898 C27.89171143 211.28204346 27.89694824 210.15612793 27.90234375 208.99609375 C27.90556641 207.78115234 27.90878906 206.56621094 27.91210938 205.31445312 C27.92467773 203.39536133 27.92467773 203.39536133 27.9375 201.4375 C27.94201172 200.15423828 27.94652344 198.87097656 27.95117188 197.54882812 C27.96300455 194.36583978 27.97948932 191.18294238 28 188 C27.15695313 188.08378906 26.31390625 188.16757812 25.4453125 188.25390625 C23.80175781 188.40666016 23.80175781 188.40666016 22.125 188.5625 C21.03445312 188.66691406 19.94390625 188.77132812 18.8203125 188.87890625 C16 189 16 189 14 188 C14 183.38 14 178.76 14 174 C10.5659375 174.0309375 10.5659375 174.0309375 7.0625 174.0625 C4.70833668 174.08370868 2.35313555 174.07271741 0 174 C-1 173 -1 173 -1.11352539 169.12280273 C-1.11336621 167.39305833 -1.10766849 165.66330919 -1.09765625 163.93359375 C-1.0962413 163.02497086 -1.09482635 162.11634796 -1.09336853 161.18019104 C-1.08775193 158.26592779 -1.07519665 155.35174019 -1.0625 152.4375 C-1.05748714 150.46679798 -1.05292386 148.49609476 -1.04882812 146.52539062 C-1.03777711 141.68356441 -1.02050138 136.84179505 -1 132 C-2.39025391 132.01740234 -2.39025391 132.01740234 -3.80859375 132.03515625 C-5.00613281 132.04417969 -6.20367187 132.05320312 -7.4375 132.0625 C-8.63246094 132.07410156 -9.82742187 132.08570313 -11.05859375 132.09765625 C-14 132 -14 132 -15 131 C-15.09781225 129.53483696 -15.12631748 128.06498178 -15.12698364 126.59655762 C-15.12980347 125.6458287 -15.13262329 124.69509979 -15.13552856 123.71556091 C-15.13350433 122.66409378 -15.1314801 121.61262665 -15.12939453 120.52929688 C-15.13114685 119.42860367 -15.13289917 118.32791046 -15.13470459 117.19386292 C-15.13912568 113.53547616 -15.13618421 109.87713729 -15.1328125 106.21875 C-15.13348547 103.68908682 -15.13445543 101.1594237 -15.13571167 98.62976074 C-15.13718899 93.32006151 -15.13512758 88.01037963 -15.13037109 82.70068359 C-15.12492851 76.55394042 -15.12669118 70.40723041 -15.1321975 64.26048803 C-15.1372744 58.35782436 -15.13674706 52.45517104 -15.13381577 46.55250549 C-15.13314624 44.03577164 -15.1339758 41.51903695 -15.13629532 39.00230408 C-15.13882033 35.49174725 -15.13498338 31.9812551 -15.12939453 28.47070312 C-15.13141876 27.41923599 -15.13344299 26.36776886 -15.13552856 25.28443909 C-15.13270874 24.33371017 -15.12988892 23.38298126 -15.12698364 22.40344238 C-15.12660662 21.57236214 -15.12622959 20.74128189 -15.12584114 19.8850174 C-15 18 -15 18 -14 17 C-11.81360547 16.92741054 -9.62499611 16.91626217 -7.4375 16.9375 C-5.64119141 16.95103516 -5.64119141 16.95103516 -3.80859375 16.96484375 C-2.88175781 16.97644531 -1.95492187 16.98804688 -1 17 C-1.01160156 16.35933594 -1.02320313 15.71867187 -1.03515625 15.05859375 C-1.08883119 9.91346778 -0.88169578 5.06975076 0 0 Z " fill="#171717" transform="translate(197,400)"/>
<path d="M0 0 C4.62 0 9.24 0 14 0 C14 23.43 14 46.86 14 71 C9.38 71 4.76 71 0 71 C0 75.62 0 80.24 0 85 C-4.95 85 -9.9 85 -15 85 C-15 89.62 -15 94.24 -15 99 C-22.59 99 -30.18 99 -38 99 C-38 94.38 -38 89.76 -38 85 C-42.62 85 -47.24 85 -52 85 C-52 80.38 -52 75.76 -52 71 C-56.62 71 -61.24 71 -66 71 C-66 61.76 -66 52.52 -66 43 C-61.05 43 -56.1 43 -51 43 C-51 47.62 -51 52.24 -51 57 C-46.71 57 -42.42 57 -38 57 C-38 61.62 -38 66.24 -38 71 C-30.41 71 -22.82 71 -15 71 C-15 66.38 -15 61.76 -15 57 C-10.05 57 -5.1 57 0 57 C0 38.19 0 19.38 0 0 Z " fill="#E68786" transform="translate(632,319)"/>
<path d="M0 0 C18.48 0 36.96 0 56 0 C56 4.95 56 9.9 56 15 C47.09 15 38.18 15 29 15 C29 19.62 29 24.24 29 29 C24.05 29 19.1 29 14 29 C14 33.62 14 38.24 14 43 C9.38 43 4.76 43 0 43 C0 52.24 0 61.48 0 71 C-9.24 71 -18.48 71 -28 71 C-28.020625 66.565625 -28.04125 62.13125 -28.0625 57.5625 C-28.071604 56.16201416 -28.08070801 54.76152832 -28.09008789 53.31860352 C-28.09258545 52.22475342 -28.09508301 51.13090332 -28.09765625 50.00390625 C-28.10289307 48.87799072 -28.10812988 47.7520752 -28.11352539 46.59204102 C-28 44 -28 44 -27 43 C-22.71 43 -18.42 43 -14 43 C-14 33.76 -14 24.52 -14 15 C-9.38 15 -4.76 15 0 15 C0 10.05 0 5.1 0 0 Z " fill="#ECAFAC" transform="translate(468,474)"/>
<path d="M0 0 C5.96313166 -0.02464574 11.92623395 -0.042834 17.8894043 -0.05493164 C19.91968298 -0.05997278 21.94995802 -0.06680557 23.98022461 -0.07543945 C26.89177347 -0.08751467 29.8032745 -0.09323034 32.71484375 -0.09765625 C33.6283812 -0.10281754 34.54191864 -0.10797882 35.48313904 -0.11329651 C37.65575427 -0.11349168 39.82827296 -0.06211805 42 0 C43 1 43 1 43.11352539 3.68383789 C43.10828857 4.85164795 43.10305176 6.01945801 43.09765625 7.22265625 C43.09443359 8.48271484 43.09121094 9.74277344 43.08789062 11.04101562 C43.07953403 12.38151109 43.07106907 13.72200588 43.0625 15.0625 C43.0574866 16.40689942 43.05292342 17.7513006 43.04882812 19.09570312 C43.03699497 22.39715433 43.01905886 25.6985826 43 29 C29.635 29.495 29.635 29.495 16 30 C15.67 43.2 15.34 56.4 15 70 C10.05 70 5.1 70 0 70 C0 65.71 0 61.42 0 57 C-4.62 57 -9.24 57 -14 57 C-14 42.81 -14 28.62 -14 14 C-9.38 14 -4.76 14 0 14 C0 9.38 0 4.76 0 0 Z " fill="#ECB3AE" transform="translate(241,432)"/>
<path d="M0 0 C14.19 0 28.38 0 43 0 C42.67 9.24 42.34 18.48 42 28 C38.1328125 28.2475 38.1328125 28.2475 34.1875 28.5 C33.40012451 28.55220703 32.61274902 28.60441406 31.80151367 28.65820312 C25.83014269 29.02401946 20.01899946 29 14 29 C14 42.53 14 56.06 14 70 C9.38 70 4.76 70 0 70 C0 65.71 0 61.42 0 57 C-4.62 57 -9.24 57 -14 57 C-14 42.81 -14 28.62 -14 14 C-9.38 14 -4.76 14 0 14 C0 9.38 0 4.76 0 0 Z " fill="#EDB5AE" transform="translate(716,432)"/>
<path d="M0 0 C1.20720703 -0.00128906 2.41441406 -0.00257813 3.65820312 -0.00390625 C5.55795898 0.00189453 5.55795898 0.00189453 7.49609375 0.0078125 C8.76646484 0.00394531 10.03683594 0.00007813 11.34570312 -0.00390625 C13.15458008 -0.00197266 13.15458008 -0.00197266 15 0 C16.11318604 0.00112793 17.22637207 0.00225586 18.37329102 0.00341797 C20.93359375 0.1328125 20.93359375 0.1328125 21.93359375 1.1328125 C22.00631116 3.48594805 22.01730243 5.84114918 21.99609375 8.1953125 C21.98707031 9.48566406 21.97804688 10.77601563 21.96875 12.10546875 C21.95714844 13.10449219 21.94554687 14.10351562 21.93359375 15.1328125 C22.93261719 15.12121094 23.93164062 15.10960937 24.9609375 15.09765625 C26.25128906 15.08863281 27.54164063 15.07960938 28.87109375 15.0703125 C30.15886719 15.05871094 31.44664062 15.04710937 32.7734375 15.03515625 C35.93359375 15.1328125 35.93359375 15.1328125 36.93359375 16.1328125 C37.03472188 19.06648218 37.07328415 21.97611423 37.06640625 24.91015625 C37.06736298 25.79183975 37.0683197 26.67352325 37.06930542 27.58192444 C37.06998734 29.45069449 37.06813226 31.31946689 37.06396484 33.18823242 C37.05862307 36.05457878 37.06390617 38.92076797 37.0703125 41.78710938 C37.0696516 43.59895868 37.06837018 45.41080789 37.06640625 47.22265625 C37.06843048 48.0841478 37.07045471 48.94563934 37.07254028 49.83323669 C37.04854814 55.90290372 37.04854814 55.90290372 35.93359375 58.1328125 C26.36359375 58.1328125 16.79359375 58.1328125 6.93359375 58.1328125 C6.93359375 53.5128125 6.93359375 48.8928125 6.93359375 44.1328125 C1.98359375 44.1328125 -2.96640625 44.1328125 -8.06640625 44.1328125 C-8.06640625 29.9428125 -8.06640625 15.7528125 -8.06640625 1.1328125 C-5.31285665 -0.2439623 -3.07800216 0.00311561 0 0 Z " fill="#E89795" transform="translate(765.06640625,317.8671875)"/>
<path d="M0 0 C4.68139254 -0.02465288 9.36274759 -0.04283739 14.04418945 -0.05493164 C15.63794614 -0.05997157 17.23169819 -0.0668035 18.82543945 -0.07543945 C21.11150253 -0.08751999 23.39750467 -0.09323155 25.68359375 -0.09765625 C26.40026718 -0.10281754 27.11694061 -0.10797882 27.85533142 -0.11329651 C29.57063672 -0.11349263 31.28581266 -0.06192007 33 0 C34 1 34 1 34.09765625 4.16015625 C34.08605469 5.44792969 34.07445312 6.73570312 34.0625 8.0625 C34.05347656 9.35285156 34.04445313 10.64320313 34.03515625 11.97265625 C34.02355469 12.97167969 34.01195312 13.97070312 34 15 C35.14339844 14.98839844 36.28679688 14.97679687 37.46484375 14.96484375 C38.95572754 14.95546712 40.44661309 14.94636679 41.9375 14.9375 C43.06961914 14.92493164 43.06961914 14.92493164 44.22460938 14.91210938 C46.14994313 14.90347559 48.07535581 14.94775667 50 15 C51 16 51 16 51.11352539 18.50024414 C51.10828857 19.58426514 51.10305176 20.66828613 51.09765625 21.78515625 C51.09443359 22.95498047 51.09121094 24.12480469 51.08789062 25.33007812 C51.07532227 27.17762695 51.07532227 27.17762695 51.0625 29.0625 C51.05798828 30.29806641 51.05347656 31.53363281 51.04882812 32.80664062 C51.03699608 35.87114117 51.02051173 38.93554721 51 42 C50.34 42 49.68 42 49 42 C49 42.66 49 43.32 49 44 C33.16 44 17.32 44 1 44 C-0.14315747 41.71368506 -0.12112732 40.45652594 -0.11352539 37.91748047 C-0.11344986 37.07675995 -0.11337433 36.23603943 -0.11329651 35.36984253 C-0.10813522 34.46146637 -0.10297394 33.55309021 -0.09765625 32.6171875 C-0.0962413 31.68778351 -0.09482635 30.75837952 -0.09336853 29.80081177 C-0.08776053 26.82550876 -0.07520668 23.85028036 -0.0625 20.875 C-0.05748603 18.86067817 -0.05292295 16.84635516 -0.04882812 14.83203125 C-0.0377885 9.88799198 -0.02051849 4.94400865 0 0 Z " fill="#E9A09C" transform="translate(582,177)"/>
<path d="M0 0 C1.64510941 0.00015915 3.29022379 0.00585551 4.93530273 0.01586914 C6.23164894 0.01799156 6.23164894 0.01799156 7.55418396 0.02015686 C10.32578941 0.025773 13.09731528 0.0383282 15.86889648 0.05102539 C17.74324428 0.05603831 19.61759334 0.06060158 21.49194336 0.06469727 C26.09679192 0.07574767 30.70158069 0.09302309 35.30639648 0.11352539 C35.33106852 6.05834651 35.34924311 12.00313799 35.36132812 17.94799805 C35.3663648 19.97144083 35.37319437 21.99487995 35.38183594 24.01831055 C35.39393061 26.92245382 35.39963136 29.82654908 35.40405273 32.73071289 C35.40921402 33.63908905 35.41437531 34.54746521 35.41969299 35.48336792 C35.41976852 36.32408844 35.41984406 37.16480896 35.41992188 38.03100586 C35.42214249 38.77269012 35.4243631 39.51437439 35.426651 40.27853394 C35.30639648 42.11352539 35.30639648 42.11352539 34.30639648 44.11352539 C20.11639648 44.11352539 5.92639648 44.11352539 -8.69360352 44.11352539 C-9.99835969 41.50401303 -9.80661924 39.58651254 -9.79125977 36.66821289 C-9.78803711 35.5918457 -9.78481445 34.51547852 -9.78149414 33.40649414 C-9.77311523 32.27856445 -9.76473633 31.15063477 -9.75610352 29.98852539 C-9.7515918 28.85286133 -9.74708008 27.71719727 -9.74243164 26.54711914 C-9.73061967 23.73586901 -9.71414859 20.92472309 -9.69360352 18.11352539 C-8.04360352 17.78352539 -6.39360352 17.45352539 -4.69360352 17.11352539 C-4.70520508 15.97012695 -4.71680664 14.82672852 -4.72875977 13.64868164 C-4.73813639 12.15779785 -4.74723673 10.6669123 -4.75610352 9.17602539 C-4.76448242 8.4212793 -4.77286133 7.6665332 -4.78149414 6.88891602 C-4.79012792 4.96358226 -4.74584684 3.03816958 -4.69360352 1.11352539 C-3.69360352 0.11352539 -3.69360352 0.11352539 0 0 Z " fill="#EB9F9B" transform="translate(390.693603515625,176.886474609375)"/>
<path d="M0 0 C5.28 0 10.56 0 16 0 C16 4.95 16 9.9 16 15 C19.4340625 14.9690625 19.4340625 14.9690625 22.9375 14.9375 C25.29166332 14.91629132 27.64686445 14.92728259 30 15 C31.76988265 16.76988265 31.13029068 19.31965418 31.1328125 21.71484375 C31.13474609 23.45604492 31.13474609 23.45604492 31.13671875 25.23242188 C31.13285156 26.45509766 31.12898438 27.67777344 31.125 28.9375 C31.13080078 30.76571289 31.13080078 30.76571289 31.13671875 32.63085938 C31.13542969 33.79294922 31.13414062 34.95503906 31.1328125 36.15234375 C31.13168457 37.22476318 31.13055664 38.29718262 31.12939453 39.40209961 C31 42 31 42 30 44 C20.43 44 10.86 44 1 44 C1 48.62 1 53.24 1 58 C-3.95 58 -8.9 58 -14 58 C-15.68758835 54.62482331 -15.14153358 50.80144401 -15.1328125 47.08984375 C-15.13376923 46.20720352 -15.13472595 45.32456329 -15.13571167 44.41517639 C-15.13639269 42.54818653 -15.13454385 40.68119431 -15.13037109 38.81420898 C-15.1250154 35.94574712 -15.13032199 33.07744139 -15.13671875 30.20898438 C-15.13605808 28.39843715 -15.13477715 26.58789003 -15.1328125 24.77734375 C-15.13483673 23.91382797 -15.13686096 23.05031219 -15.13894653 22.16062927 C-15.11495439 16.11495439 -15.11495439 16.11495439 -14 15 C-9.33154772 14.85573386 -4.67134047 14.95791585 0 15 C0 10.05 0 5.1 0 0 Z " fill="#EA9C99" transform="translate(240,318)"/>
<path d="M0 0 C10.23 0 20.46 0 31 0 C30.01 0.495 30.01 0.495 29 1 C29 9.58 29 18.16 29 27 C22 28 22 28 15 29 C14.67 47.15 14.34 65.3 14 84 C9.05 84 4.1 84 -1 84 C-1.02518238 76.37671129 -1.04308167 68.75344807 -1.05493164 61.13012695 C-1.05988443 58.55004453 -1.06664846 55.96996478 -1.07543945 53.38989258 C-1.13455472 35.56142373 -0.76096104 17.81367847 0 0 Z " fill="#EDB0AB" transform="translate(383,292)"/>
<path d="M0 0 C7.59 0 15.18 0 23 0 C23 4.29 23 8.58 23 13 C20.36 13.33 17.72 13.66 15 14 C14.67 18.29 14.34 22.58 14 27 C9.60138253 27.59642271 5.4408262 28.02572528 1 28 C1.00523682 29.2367749 1.01047363 30.4735498 1.01586914 31.74780273 C1.03391561 36.31924725 1.04543071 40.89068859 1.05493164 45.4621582 C1.05997267 47.44393441 1.06680538 49.42570689 1.07543945 51.4074707 C1.08751515 54.24952109 1.09323045 57.09152247 1.09765625 59.93359375 C1.10281754 60.82525742 1.10797882 61.71692108 1.11329651 62.63560486 C1.11349177 64.75740601 1.0621003 66.8791078 1 69 C0.505 69.495 0.505 69.495 0 70 C-3.96 70 -7.92 70 -12 70 C-12 51.52 -12 33.04 -12 14 C-9.11788698 13.03929566 -7.30149956 12.89418117 -4.3125 12.9375 C-2.1778125 12.9684375 -2.1778125 12.9684375 0 13 C0 8.71 0 4.42 0 0 Z " fill="#ECB2AC" transform="translate(593,292)"/>
<path d="M0 0 C0.66 0 1.32 0 2 0 C2 0.66 2 1.32 2 2 C1.34 2 0.68 2 0 2 C0.11752011 9.06596142 0.24235309 16.13176629 0.37231445 23.19750977 C0.41567409 25.60210223 0.4573484 28.00672569 0.49731445 30.41137695 C0.55499189 33.86419016 0.61869385 37.31684719 0.68359375 40.76953125 C0.70030624 41.84773636 0.71701874 42.92594147 0.73423767 44.03681946 C0.7641555 45.53803596 0.7641555 45.53803596 0.79467773 47.06958008 C0.81799416 48.39195427 0.81799416 48.39195427 0.84178162 49.74104309 C0.9174752 52.1677108 0.9174752 52.1677108 2 55 C2.07051114 57.73865287 2.09357765 60.45027588 2.0625 63.1875 C2.05798828 63.93708984 2.05347656 64.68667969 2.04882812 65.45898438 C2.03706354 67.30602383 2.01912865 69.15302213 2 71 C1.34 71 0.68 71 0 71 C0 80.24 0 89.48 0 99 C-8.73019694 99.67155361 -17.21889962 100.14884132 -25.94140625 100.1328125 C-27.11211166 100.13376923 -28.28281708 100.13472595 -29.48899841 100.13571167 C-31.93675796 100.13638638 -34.38451937 100.13458215 -36.83227539 100.13037109 C-40.58418739 100.12496877 -44.33598207 100.13036248 -48.08789062 100.13671875 C-50.47656276 100.13605869 -52.86523483 100.13477904 -55.25390625 100.1328125 C-56.37366348 100.13483673 -57.49342072 100.13686096 -58.64710999 100.13894653 C-60.20539772 100.13421829 -60.20539772 100.13421829 -61.79516602 100.12939453 C-62.70637711 100.12859894 -63.6175882 100.12780334 -64.55641174 100.12698364 C-67 100 -67 100 -71 99 C-71 94.38 -71 89.76 -71 85 C-61.43 85 -51.86 85 -42 85 C-41.67 84.34 -41.34 83.68 -41 83 C-36.52055965 83.13810905 -32.04153217 83.28677416 -27.5625 83.4375 C-26.28310547 83.47681641 -25.00371094 83.51613281 -23.68554688 83.55664062 C-22.47060547 83.59853516 -21.25566406 83.64042969 -20.00390625 83.68359375 C-18.87799072 83.72025146 -17.7520752 83.75690918 -16.59204102 83.79467773 C-14 84 -14 84 -13 85 C-12.92741054 87.18639453 -12.91626217 89.37500389 -12.9375 91.5625 C-12.94652344 92.76003906 -12.95554687 93.95757812 -12.96484375 95.19140625 C-12.97644531 96.11824219 -12.98804688 97.04507813 -13 98 C-9.04 98 -5.08 98 -1 98 C-1.00222061 96.78699722 -1.00444122 95.57399445 -1.00672913 94.32423401 C-1.02695872 82.91953396 -1.04197126 71.51483752 -1.05181217 60.11012363 C-1.05704146 54.24617836 -1.06413994 48.38224751 -1.07543945 42.51831055 C-1.0862667 36.86438288 -1.09227649 31.21046913 -1.09487724 25.55653191 C-1.09673179 23.3942639 -1.10035295 21.23199669 -1.10573006 19.06973457 C-1.11293833 16.05241343 -1.11399103 13.03515057 -1.11352539 10.01782227 C-1.11712067 9.1143959 -1.12071594 8.21096954 -1.12442017 7.28016663 C-1.11405216 1.11405216 -1.11405216 1.11405216 0 0 Z " fill="#171716" transform="translate(312,277)"/>
<path d="M0 0 C0 5.28 0 10.56 0 16 C-4.29 16 -8.58 16 -13 16 C-12.979375 18.124375 -12.95875 20.24875 -12.9375 22.4375 C-12.91626217 24.62499611 -12.92741054 26.81360547 -13 29 C-14 30 -14 30 -16.72265625 30.09765625 C-17.82480469 30.08605469 -18.92695313 30.07445312 -20.0625 30.0625 C-21.16722656 30.05347656 -22.27195312 30.04445313 -23.41015625 30.03515625 C-24.26480469 30.02355469 -25.11945313 30.01195312 -26 30 C-26.09087891 31.39025391 -26.09087891 31.39025391 -26.18359375 32.80859375 C-26.26738281 34.00613281 -26.35117187 35.20367187 -26.4375 36.4375 C-26.51871094 37.63246094 -26.59992188 38.82742188 -26.68359375 40.05859375 C-27 43 -27 43 -28 44 C-30.01964199 44.07244053 -32.04167124 44.08377188 -34.0625 44.0625 C-35.71958984 44.04896484 -35.71958984 44.04896484 -37.41015625 44.03515625 C-38.26480469 44.02355469 -39.11945313 44.01195312 -40 44 C-40.33 44.99 -40.66 45.98 -41 47 C-41.33333333 45.66666667 -41.66666667 44.33333333 -42 43 C-42.17273438 42.38898438 -42.34546875 41.77796875 -42.5234375 41.1484375 C-43.03578693 38.8386655 -43.16773227 36.73922006 -43.1875 34.375 C-43.20167969 33.59898437 -43.21585937 32.82296875 -43.23046875 32.0234375 C-43 30 -43 30 -41 28 C-36.71 28 -32.42 28 -28 28 C-28 19.09 -28 10.18 -28 1 C-21.3484375 0.7525 -21.3484375 0.7525 -14.5625 0.5 C-13.16201416 0.44779297 -11.76152832 0.39558594 -10.31860352 0.34179688 C-8.67782837 0.28088867 -8.67782837 0.28088867 -7.00390625 0.21875 C-5.87799072 0.17685547 -4.7520752 0.13496094 -3.59204102 0.09179688 C-1 0 -1 0 0 0 Z " fill="#161616" transform="translate(368,234)"/>
<path d="M0 0 C1.21171875 0.00322266 2.4234375 0.00644531 3.671875 0.00976562 C4.94289063 0.01814453 6.21390625 0.02652344 7.5234375 0.03515625 C8.8021875 0.03966797 10.0809375 0.04417969 11.3984375 0.04882812 C14.56515042 0.06064422 17.73177106 0.0771181 20.8984375 0.09765625 C23.09740619 4.49559363 21.27813061 11.45696273 20.8984375 16.09765625 C16.2784375 16.09765625 11.6584375 16.09765625 6.8984375 16.09765625 C6.8984375 25.33765625 6.8984375 34.57765625 6.8984375 44.09765625 C1.9484375 44.09765625 -3.0015625 44.09765625 -8.1015625 44.09765625 C-8.1015625 29.90765625 -8.1015625 15.71765625 -8.1015625 1.09765625 C-5.33538687 -0.28543156 -3.0913825 -0.01444571 0 0 Z " fill="#EB9997" transform="translate(765.1015625,317.90234375)"/>
<path d="M0 0 C4.29 0 8.58 0 13 0 C15.26481757 5.66204393 14.96930837 7.28108059 14 13 C9.39452591 14.15136852 6.06005857 14 1 14 C0.67 28.19 0.34 42.38 0 57 C-4.62 57 -9.24 57 -14 57 C-14 42.81 -14 28.62 -14 14 C-9.38 14 -4.76 14 0 14 C0 9.38 0 4.76 0 0 Z " fill="#E9A5A1" transform="translate(241,432)"/>
<path d="M0 0 C-0.33 4.62 -0.66 9.24 -1 14 C-18.99805842 15.56191428 -36.97826579 14.66646413 -55 14 C-55 9.71 -55 5.42 -55 1 C-48.45298585 0.8564787 -41.90594822 0.7140989 -35.35888672 0.57275391 C-33.13394508 0.52456139 -30.90901006 0.4760628 -28.68408203 0.42724609 C-25.47690513 0.35693215 -22.26970569 0.28773697 -19.0625 0.21875 C-18.07572266 0.19687622 -17.08894531 0.17500244 -16.07226562 0.15246582 C-10.71327895 0.03837156 -5.36019824 -0.02214958 0 0 Z " fill="#151515" transform="translate(772,362)"/>
<path d="M0 0 C4.95 0 9.9 0 15 0 C15 4.95 15 9.9 15 15 C10.38 15 5.76 15 1 15 C1 24.24 1 33.48 1 43 C-3.95 43 -8.9 43 -14 43 C-14 33.43 -14 23.86 -14 14 C-9.38 14 -4.76 14 0 14 C0 9.38 0 4.76 0 0 Z " fill="#E89291" transform="translate(453,474)"/>
<path d="M0 0 C0.33 0 0.66 0 1 0 C1.10731538 9.39605802 0.99263429 18.64087671 0 28 C-0.92683594 28.06058594 -1.85367188 28.12117187 -2.80859375 28.18359375 C-4.60490234 28.30927734 -4.60490234 28.30927734 -6.4375 28.4375 C-7.63246094 28.51871094 -8.82742188 28.59992187 -10.05859375 28.68359375 C-12.88570244 28.67656114 -12.88570244 28.67656114 -14 30 C-14.07226502 31.85287502 -14.0838122 33.70833878 -14.0625 35.5625 C-14.041875 37.356875 -14.02125 39.15125 -14 41 C-20.435 41.495 -20.435 41.495 -27 42 C-27.33 46.62 -27.66 51.24 -28 56 C-32.95 56 -37.9 56 -43 56 C-43 51.05 -43 46.1 -43 41 C-38.05 41 -33.1 41 -28 41 C-28 36.71 -28 32.42 -28 28 C-23.38 28 -18.76 28 -14 28 C-14 23.38 -14 18.76 -14 14 C-9.38 14 -4.76 14 0 14 C0 9.38 0 4.76 0 0 Z " fill="#DD8484" transform="translate(425,517)"/>
<path d="M0 0 C4.62 0 9.24 0 14 0 C14 14.19 14 28.38 14 43 C9.38 43 4.76 43 0 43 C0 28.81 0 14.62 0 0 Z " fill="#EAA29F" transform="translate(702,446)"/>
<path d="M0 0 C4.95 0 9.9 0 15 0 C15 4.95 15 9.9 15 15 C17.10375 14.79375 19.2075 14.5875 21.375 14.375 C24.9609375 14.0234375 24.9609375 14.0234375 28 14 C30 16 30 16 30.24050903 17.98684692 C30.2338472 19.20596268 30.2338472 19.20596268 30.22705078 20.44970703 C30.22689972 21.37051056 30.22674866 22.29131409 30.22659302 23.24002075 C30.21627045 24.23589203 30.20594788 25.23176331 30.1953125 26.2578125 C30.1924826 27.27600067 30.18965271 28.29418884 30.18673706 29.3432312 C30.1755177 32.603939 30.15040996 35.86437484 30.125 39.125 C30.11497247 41.33202729 30.10584623 43.53905888 30.09765625 45.74609375 C30.07557268 51.16415572 30.04207795 56.58205843 30 62 C29.67 62 29.34 62 29 62 C28.98018066 62.95890137 28.96036133 63.91780273 28.93994141 64.90576172 C28.86395855 68.45811553 28.7752307 72.01005576 28.68261719 75.56201172 C28.64429699 77.10034021 28.60944944 78.63875925 28.578125 80.17724609 C28.53253941 82.38672276 28.4745366 84.59557448 28.4140625 86.8046875 C28.40251129 87.49432587 28.39096008 88.18396423 28.37905884 88.89450073 C28.22774341 93.77225659 28.22774341 93.77225659 26 96 C25.53709779 98.66242821 25.53709779 98.66242821 25.375 101.625 C25.30023437 102.62789063 25.22546875 103.63078125 25.1484375 104.6640625 C25.09945312 105.43492187 25.05046875 106.20578125 25 107 C24.67 107 24.34 107 24 107 C23.19382647 77.66042916 22.86058386 48.35031442 23 19 C20.36 19 17.72 19 15 19 C14.67 18.34 14.34 17.68 14 17 C14.92683594 17.01160156 15.85367188 17.02320313 16.80859375 17.03515625 C18.60490234 17.04869141 18.60490234 17.04869141 20.4375 17.0625 C21.63246094 17.07410156 22.82742188 17.08570313 24.05859375 17.09765625 C26.88873341 17.33901792 26.88873341 17.33901792 28 16 C23.38 16 18.76 16 14 16 C14 11.05 14 6.1 14 1 C9.38 1 4.76 1 0 1 C0 0.67 0 0.34 0 0 Z " fill="#111213" transform="translate(801,389)"/>
<path d="M0 0 C0.33 0 0.66 0 1 0 C1.02464638 5.82071622 1.0428343 11.64140234 1.05493164 17.4621582 C1.05997267 19.44393441 1.06680538 21.42570689 1.07543945 23.4074707 C1.08751515 26.24952109 1.09323045 29.09152247 1.09765625 31.93359375 C1.10281754 32.82525742 1.10797882 33.71692108 1.11329651 34.63560486 C1.11349177 36.75740601 1.0621003 38.8791078 1 41 C-0.71867343 42.71867343 -3.09213219 42.32920599 -5.4375 42.5 C-9.36434915 42.71419183 -9.36434915 42.71419183 -13 44 C-13.33 43.34 -13.66 42.68 -14 42 C-17.04581269 41.53045739 -17.04581269 41.53045739 -20.5625 41.375 C-21.76003906 41.30023438 -22.95757813 41.22546875 -24.19140625 41.1484375 C-25.11824219 41.09945312 -26.04507813 41.05046875 -27 41 C-27 40.67 -27 40.34 -27 40 C-22.71 40 -18.42 40 -14 40 C-14 31.42 -14 22.84 -14 14 C-9.38 14 -4.76 14 0 14 C0 9.38 0 4.76 0 0 Z " fill="#EDA8A4" transform="translate(786,320)"/>
<path d="M0 0 C4.95 0 9.9 0 15 0 C15 4.95 15 9.9 15 15 C5.76 15 -3.48 15 -13 15 C-13 24.24 -13 33.48 -13 43 C-13.33 43 -13.66 43 -14 43 C-14 33.43 -14 23.86 -14 14 C-9.38 14 -4.76 14 0 14 C0 9.38 0 4.76 0 0 Z " fill="#D88583" transform="translate(453,474)"/>
<path d="M0 0 C1.6451094 0.00025112 3.29022405 0.00581355 4.93530273 0.01586914 C6.083797 0.01737976 6.083797 0.01737976 7.25549316 0.0189209 C10.12664275 0.02416876 12.99777106 0.03812992 15.86889648 0.05102539 C22.28327148 0.07165039 28.69764648 0.09227539 35.30639648 0.11352539 C35.30639648 13.97352539 35.30639648 27.83352539 35.30639648 42.11352539 C34.97639648 42.11352539 34.64639648 42.11352539 34.30639648 42.11352539 C33.55970925 36.80145291 33.18705864 31.70931149 33.20874023 26.33227539 C33.21123779 25.05288086 33.21373535 23.77348633 33.21630859 22.45532227 C33.2254126 20.8575293 33.2345166 19.25973633 33.24389648 17.61352539 C33.26452148 12.49852539 33.28514648 7.38352539 33.30639648 2.11352539 C21.75639648 2.11352539 10.20639648 2.11352539 -1.69360352 2.11352539 C-1.69360352 7.39352539 -1.69360352 12.67352539 -1.69360352 18.11352539 C-2.35360352 18.77352539 -3.01360352 19.43352539 -3.69360352 20.11352539 C-5.01360352 20.11352539 -6.33360352 20.11352539 -7.69360352 20.11352539 C-7.60981445 21.42708008 -7.52602539 22.74063477 -7.43969727 24.09399414 C-7.33649603 25.82965124 -7.2336501 27.56532949 -7.13110352 29.30102539 C-7.0750293 30.1653418 -7.01895508 31.0296582 -6.96118164 31.92016602 C-6.71745462 36.16101619 -6.53589556 39.97150358 -7.69360352 44.11352539 C-9.69360352 42.11352539 -9.69360352 42.11352539 -9.9206543 39.68334961 C-9.91018066 38.68835449 -9.89970703 37.69335938 -9.88891602 36.66821289 C-9.8824707 35.5918457 -9.87602539 34.51547852 -9.86938477 33.40649414 C-9.85262695 32.27856445 -9.83586914 31.15063477 -9.81860352 29.98852539 C-9.80958008 28.85286133 -9.80055664 27.71719727 -9.79125977 26.54711914 C-9.7676345 23.7357124 -9.73469365 20.92472241 -9.69360352 18.11352539 C-8.04360352 17.78352539 -6.39360352 17.45352539 -4.69360352 17.11352539 C-4.70520508 15.97012695 -4.71680664 14.82672852 -4.72875977 13.64868164 C-4.73813639 12.15779785 -4.74723673 10.6669123 -4.75610352 9.17602539 C-4.76448242 8.4212793 -4.77286133 7.6665332 -4.78149414 6.88891602 C-4.79012792 4.96358226 -4.74584684 3.03816958 -4.69360352 1.11352539 C-3.69360352 0.11352539 -3.69360352 0.11352539 0 0 Z " fill="#DF9895" transform="translate(390.693603515625,176.886474609375)"/>
<path d="M0 0 C0 5.28 0 10.56 0 16 C-4.95 16 -9.9 16 -15 16 C-15 11.05 -15 6.1 -15 1 C-4.5 0 -4.5 0 0 0 Z " fill="#EFB5AE" transform="translate(256,333)"/>
<path d="M0 0 C4.62 0 9.24 0 14 0 C14 4.95 14 9.9 14 15 C9.38 15 4.76 15 0 15 C0 10.05 0 5.1 0 0 Z " fill="#EEB6B0" transform="translate(772,334)"/>
<path d="M0 0 C4.62 0 9.24 0 14 0 C14 4.95 14 9.9 14 15 C9.38 15 4.76 15 0 15 C0 10.05 0 5.1 0 0 Z " fill="#EEB7B0" transform="translate(397,193)"/>
<path d="M0 0 C4.62 0 9.24 0 14 0 C14 4.95 14 9.9 14 15 C10.59112017 15.85221996 8.19565369 16.10783755 4.75 16.0625 C3.1825 16.041875 1.615 16.02125 0 16 C0 11.38 0 6.76 0 2 C1.98 2 3.96 2 6 2 C3.03 1.505 3.03 1.505 0 1 C0 0.67 0 0.34 0 0 Z " fill="#EBA3A1" transform="translate(242,318)"/>
<path d="M0 0 C4.62 0 9.24 0 14 0 C14 4.62 14 9.24 14 14 C9.38 14 4.76 14 0 14 C0 9.38 0 4.76 0 0 Z " fill="#161615" transform="translate(632,644)"/>
<path d="M0 0 C4.62 0 9.24 0 14 0 C14 4.29 14 8.58 14 13 C11.23547967 14.38226016 8.9538637 14.09525387 5.875 14.0625 C3.93625 14.041875 1.9975 14.02125 0 14 C0 9.38 0 4.76 0 0 Z " fill="#EBA7A4" transform="translate(716,432)"/>
<path d="M0 0 C3.96 0 7.92 0 12 0 C13.31164842 2.62329684 13.13262846 4.63698625 13.125 7.5625 C13.12757813 8.55378906 13.13015625 9.54507812 13.1328125 10.56640625 C13 13 13 13 12 14 C7.99779347 14.14355117 4.00558317 14.04216403 0 14 C0 9.38 0 4.76 0 0 Z " fill="#EBA6A1" transform="translate(581,292)"/>
<path d="M0 0 C4.62 0.66 9.24 1.32 14 2 C14 5.96 14 9.92 14 14 C8.97703996 15.13016601 5.02125926 14.77916092 0 14 C0 9.38 0 4.76 0 0 Z " fill="#161716" transform="translate(298,531)"/>
<path d="M0 0 C10.05859375 -0.09765625 10.05859375 -0.09765625 13 0 C14 1 14 1 14.09765625 3.50390625 C14.06510417 6.3359375 14.03255208 9.16796875 14 12 C9.38 12.33 4.76 12.66 0 13 C0 8.71 0 4.42 0 0 Z " fill="#E78B8A" transform="translate(397,546)"/>
<path d="M0 0 C3.63 0 7.26 0 11 0 C11 4.95 11 9.9 11 15 C7.37 15 3.74 15 0 15 C0 10.05 0 5.1 0 0 Z " fill="#EEB9B2" transform="translate(596,193)"/>
<path d="M0 0 C4.29 0 8.58 0 13 0 C12.83628906 1.31081543 12.67257812 2.62163086 12.50390625 3.97216797 C11.83620342 10.6914429 11.88728221 17.40275993 11.92483521 24.14688492 C11.93776738 26.49383702 11.94415646 28.84073163 11.94897461 31.18771362 C11.96031751 36.16683514 11.97956531 41.14590858 12 46.125 C12.02369637 51.90775098 12.04404832 57.69047446 12.05593872 63.47326279 C12.06236795 65.7730762 12.07487092 68.07280353 12.08764648 70.37258911 C12.09128216 71.79542977 12.09463349 73.21827119 12.09765625 74.64111328 C12.10289307 75.87225861 12.10812988 77.10340393 12.11352539 78.37185669 C11.99006055 82.31765346 11.54520516 86.09216855 11 90 C10.67 90 10.34 90 10 90 C9.19382647 60.66042916 8.86058386 31.35031442 9 2 C6.36 2 3.72 2 1 2 C0.67 1.34 0.34 0.68 0 0 Z " fill="#0B0B0B" transform="translate(815,406)"/>
<path d="M0 0 C0.66 0 1.32 0 2 0 C2.07425639 5.88986463 2.12865268 11.77945566 2.16479492 17.66967773 C2.17986465 19.67265572 2.2003241 21.6756008 2.22631836 23.6784668 C2.26278127 26.56046681 2.27974461 29.44202984 2.29296875 32.32421875 C2.30845261 33.21711105 2.32393646 34.11000336 2.33988953 35.029953 C2.3411958 39.8752617 2.10725002 43.02544374 -1 47 C-2.66674321 44.08175756 -3.2432008 42.02405621 -3.1953125 38.671875 C-3.18886719 37.87265625 -3.18242188 37.0734375 -3.17578125 36.25 C-3.15902344 35.425 -3.14226563 34.6 -3.125 33.75 C-3.11597656 32.90953125 -3.10695313 32.0690625 -3.09765625 31.203125 C-3.07415817 29.13529396 -3.03828908 27.06761005 -3 25 C-2.01 24.67 -1.02 24.34 0 24 C0 16.08 0 8.16 0 0 Z " fill="#101010" transform="translate(771,619)"/>
<path d="M0 0 C10.56 0 21.12 0 32 0 C32 0.66 32 1.32 32 2 C22.1 2 12.2 2 2 2 C2 15.86 2 29.72 2 44 C0 42 0 42 -0.24050903 40.16500854 C-0.23606781 39.42332428 -0.23162659 38.68164001 -0.22705078 37.91748047 C-0.22689972 37.07675995 -0.22674866 36.23603943 -0.22659302 35.36984253 C-0.21627045 34.46146637 -0.20594788 33.55309021 -0.1953125 32.6171875 C-0.1924826 31.68778351 -0.18965271 30.75837952 -0.18673706 29.80081177 C-0.17552069 26.8254115 -0.1504136 23.85030965 -0.125 20.875 C-0.11497208 18.86068142 -0.1058459 16.84635814 -0.09765625 14.83203125 C-0.07727612 9.88781271 -0.0381304 4.94424132 0 0 Z " fill="#D39591" transform="translate(582,177)"/>
<path d="M0 0 C5.67830078 -0.02464705 11.35657069 -0.04283462 17.03491211 -0.05493164 C18.96818585 -0.05997256 20.90145576 -0.06680519 22.8347168 -0.07543945 C25.60726872 -0.08751565 28.37977041 -0.09323057 31.15234375 -0.09765625 C32.45702858 -0.10539818 32.45702858 -0.10539818 33.78807068 -0.11329651 C35.85905814 -0.11349185 37.92994324 -0.06208168 40 0 C41 1 41 1 41.09765625 3.72265625 C41.08605469 4.82480469 41.07445312 5.92695313 41.0625 7.0625 C41.05347656 8.16722656 41.04445313 9.27195313 41.03515625 10.41015625 C41.02355469 11.26480469 41.01195312 12.11945313 41 13 C40.34 13.33 39.68 13.66 39 14 C38.67 10.7 38.34 7.4 38 4 C37.67 4.33 37.34 4.66 37 5 C34.77964474 5.01682517 32.5586901 4.96246113 30.33984375 4.87890625 C29.67537735 4.85529526 29.01091095 4.83168427 28.3263092 4.80735779 C26.19649721 4.73056315 24.06703454 4.64660787 21.9375 4.5625 C20.49676209 4.50929506 19.05600695 4.45655457 17.61523438 4.40429688 C14.07660687 4.27492714 10.53825859 4.13913259 7 4 C7 3.67 7 3.34 7 3 C9.31 3 11.62 3 14 3 C14 2.34 14 1.68 14 1 C9.38 1 4.76 1 0 1 C0 0.67 0 0.34 0 0 Z " fill="#191716" transform="translate(428,220)"/>
<path d="M0 0 C5.28 0 10.56 0 16 0 C17.84022746 3.68045492 18.2580902 4.78745984 18.1875 8.625 C18.18105469 9.40101563 18.17460938 10.17703125 18.16796875 10.9765625 C18 13 18 13 17 15 C17.99902344 14.98839844 18.99804688 14.97679687 20.02734375 14.96484375 C21.31769531 14.95582031 22.60804688 14.94679687 23.9375 14.9375 C25.22527344 14.92589844 26.51304687 14.91429687 27.83984375 14.90234375 C31 15 31 15 32 16 C32.07258946 18.18639453 32.08373783 20.37500389 32.0625 22.5625 C32.05347656 23.76003906 32.04445313 24.95757812 32.03515625 26.19140625 C32.02355469 27.11824219 32.01195312 28.04507813 32 29 C28.88009102 26.21466571 28.46183818 24.15654359 28 20 C27.38511719 19.79503906 26.77023437 19.59007812 26.13671875 19.37890625 C22.7578125 18.25260417 19.37890625 17.12630208 16 16 C15.67 11.71 15.34 7.42 15 3 C13.68 3.33 12.36 3.66 11 4 C9.41788427 4.06548492 7.83329919 4.08578381 6.25 4.0625 C5.45078125 4.05347656 4.6515625 4.04445312 3.828125 4.03515625 C3.22484375 4.02355469 2.6215625 4.01195312 2 4 C2.33 3.34 2.66 2.68 3 2 C2.01 1.34 1.02 0.68 0 0 Z " fill="#131313" transform="translate(643,220)"/>
<path d="M0 0 C1.50433594 0.29197266 1.50433594 0.29197266 3.0390625 0.58984375 C4.19535156 0.82380859 4.19535156 0.82380859 5.375 1.0625 C5.375 1.3925 5.375 1.7225 5.375 2.0625 C1.745 2.0625 -1.885 2.0625 -5.625 2.0625 C-5.625 15.2625 -5.625 28.4625 -5.625 42.0625 C-1.335 42.0625 2.955 42.0625 7.375 42.0625 C7.375 42.3925 7.375 42.7225 7.375 43.0625 C2.425 43.0625 -2.525 43.0625 -7.625 43.0625 C-7.625 28.8725 -7.625 14.6825 -7.625 0.0625 C-4.81015955 -1.34492022 -3.05563887 -0.60402164 0 0 Z " fill="#D68D8A" transform="translate(764.625,318.9375)"/>
<path d="M0 0 C1.79244141 0.01740234 1.79244141 0.01740234 3.62109375 0.03515625 C5.41740234 0.04869141 5.41740234 0.04869141 7.25 0.0625 C8.17683594 0.07410156 9.10367188 0.08570313 10.05859375 0.09765625 C10.38859375 0.75765625 10.71859375 1.41765625 11.05859375 2.09765625 C5.11859375 2.59265625 5.11859375 2.59265625 -0.94140625 3.09765625 C-0.96122559 4.14219971 -0.98104492 5.18674316 -1.00146484 6.26293945 C-1.07752739 10.13769675 -1.16624353 14.01207882 -1.25878906 17.88647461 C-1.29707618 19.56348259 -1.33192956 21.24057263 -1.36328125 22.91772461 C-1.40893804 25.32826057 -1.46693035 27.73823182 -1.52734375 30.1484375 C-1.53889496 30.89853592 -1.55044617 31.64863434 -1.56234741 32.42146301 C-1.66836084 36.15893338 -1.81759707 37.91194248 -3.94140625 41.09765625 C-3.9660533 35.41935547 -3.98424087 29.74108556 -3.99633789 24.06274414 C-4.00137881 22.1294704 -4.00821144 20.19620049 -4.0168457 18.26293945 C-4.0289219 15.49038753 -4.03463682 12.71788584 -4.0390625 9.9453125 C-4.04422379 9.07552261 -4.04938507 8.20573273 -4.05470276 7.30958557 C-4.0548981 5.23859811 -4.00348793 3.16771301 -3.94140625 1.09765625 C-2.94140625 0.09765625 -2.94140625 0.09765625 0 0 Z " fill="#DA9592" transform="translate(228.94140625,332.90234375)"/>
<path d="M0 0 C2.475 0.495 2.475 0.495 5 1 C5.02891949 5.29165262 5.04677118 9.58328036 5.0625 13.875 C5.07087891 15.09832031 5.07925781 16.32164062 5.08789062 17.58203125 C5.09272461 19.33193359 5.09272461 19.33193359 5.09765625 21.1171875 C5.10551147 22.73536377 5.10551147 22.73536377 5.11352539 24.38623047 C5 27 5 27 4 29 C-5.57 29 -15.14 29 -25 29 C-25 28.67 -25 28.34 -25 28 C-15.76 28 -6.52 28 3 28 C3 19.75 3 11.5 3 3 C2.01 2.67 1.02 2.34 0 2 C0 1.34 0 0.68 0 0 Z " fill="#D4918E" transform="translate(266,333)"/>
<path d="M0 0 C2.02408755 0.09002398 4.04544287 0.24641038 6.0625 0.4375 C7.16722656 0.53933594 8.27195312 0.64117188 9.41015625 0.74609375 C10.26480469 0.82988281 11.11945312 0.91367187 12 1 C12 1.33 12 1.66 12 2 C8.37 2 4.74 2 1 2 C1.00523682 2.81267334 1.01047363 3.62534668 1.01586914 4.46264648 C1.03656994 8.12092322 1.04963803 11.77918767 1.0625 15.4375 C1.07087891 16.71689453 1.07925781 17.99628906 1.08789062 19.31445312 C1.09111328 20.52939453 1.09433594 21.74433594 1.09765625 22.99609375 C1.10289307 24.12200928 1.10812988 25.2479248 1.11352539 26.40795898 C1 29 1 29 0 30 C-2.35313555 30.07271741 -4.70833668 30.08370868 -7.0625 30.0625 C-8.35285156 30.05347656 -9.64320313 30.04445313 -10.97265625 30.03515625 C-11.97167969 30.02355469 -12.97070312 30.01195312 -14 30 C-14 29.67 -14 29.34 -14 29 C-10.04 29 -6.08 29 -2 29 C-1.97494385 28.15703369 -1.9498877 27.31406738 -1.92407227 26.44555664 C-1.82911845 23.32758326 -1.72987552 20.20978497 -1.62768555 17.09204102 C-1.58428777 15.74085853 -1.5426163 14.38961947 -1.50268555 13.03833008 C-1.44510048 11.09963299 -1.38085702 9.16113724 -1.31640625 7.22265625 C-1.27974854 6.05484619 -1.24309082 4.88703613 -1.20532227 3.68383789 C-1 1 -1 1 0 0 Z " fill="#151515" transform="translate(787,587)"/>
<path d="M0 0 C0.33 0 0.66 0 1 0 C0.99214478 1.19991577 0.99214478 1.19991577 0.98413086 2.42407227 C0.78378379 23.23580538 0.78378379 23.23580538 2 44 C0.68 43.34 -0.64 42.68 -2 42 C-2.13411454 32.31208709 -1.75646657 22.78528257 -1 13.125 C-0.90460938 11.85269531 -0.80921875 10.58039062 -0.7109375 9.26953125 C-0.47858963 6.17930458 -0.24155931 3.08951785 0 0 Z " fill="#151414" transform="translate(255,686)"/>
<path d="M0 0 C0.73025391 0.00064453 1.46050781 0.00128906 2.21289062 0.00195312 C7.15263794 0.04133109 11.92202823 0.49519086 16.8125 1.1875 C16.4825 1.8475 16.1525 2.5075 15.8125 3.1875 C13.41319897 3.69907167 11.11446519 4.07626096 8.6875 4.375 C6.73457031 4.64376953 6.73457031 4.64376953 4.7421875 4.91796875 C0.78621812 5.18930263 -2.31765042 4.89613479 -6.1875 4.1875 C-6.1875 3.5275 -6.1875 2.8675 -6.1875 2.1875 C-7.8375 2.1875 -9.4875 2.1875 -11.1875 2.1875 C-7.39831359 -0.33862427 -4.38155071 -0.07158165 0 0 Z " fill="#EBA4A0" transform="translate(395.1875,215.8125)"/>
<path d="M0 0 C1.6874269 0.00015917 3.37485866 0.00585622 5.06225586 0.01586914 C6.39189613 0.01799156 6.39189613 0.01799156 7.74839783 0.02015686 C10.59133215 0.02577324 13.43418892 0.03832848 16.27709961 0.05102539 C18.19962452 0.05603828 20.12215065 0.06060155 22.04467773 0.06469727 C26.7680151 0.07574798 31.49129419 0.09302356 36.21459961 0.11352539 C36.21459961 0.44352539 36.21459961 0.77352539 36.21459961 1.11352539 C17.40459961 1.60852539 17.40459961 1.60852539 -1.78540039 2.11352539 C-1.78540039 5.74352539 -1.78540039 9.37352539 -1.78540039 13.11352539 C-2.77540039 13.11352539 -3.76540039 13.11352539 -4.78540039 13.11352539 C-4.81226592 11.13443141 -4.83173415 9.15523568 -4.84790039 7.17602539 C-4.85950195 6.07387695 -4.87110352 4.97172852 -4.88305664 3.83618164 C-4.73157847 -0.38702986 -4.40740194 0.13217942 0 0 Z " fill="#151414" transform="translate(543.785400390625,219.886474609375)"/>
<path d="M0 0 C0.82693359 0.00451172 1.65386719 0.00902344 2.50585938 0.01367188 C4.52477146 0.02534189 6.54364574 0.04327282 8.5625 0.0625 C9.82276798 2.58303595 9.48124445 3.9167098 9.125 6.6875 C9.02316406 7.50476563 8.92132812 8.32203125 8.81640625 9.1640625 C8.73261719 9.79054688 8.64882813 10.41703125 8.5625 11.0625 C8.2325 11.0625 7.9025 11.0625 7.5625 11.0625 C7.5625 8.4225 7.5625 5.7825 7.5625 3.0625 C6.09490234 3.07990234 6.09490234 3.07990234 4.59765625 3.09765625 C-2.4927013 3.1464591 -9.40209222 3.04992565 -16.4375 2.0625 C-16.4375 1.7325 -16.4375 1.4025 -16.4375 1.0625 C-10.91041389 0.12029874 -5.59991648 -0.05866149 0 0 Z " fill="#D79492" transform="translate(777.4375,317.9375)"/>
<path d="M0 0 C0.99 0.66 1.98 1.32 3 2 C2.01 2.66 1.02 3.32 0 4 C0.99 4.33 1.98 4.66 3 5 C3 10.28 3 15.56 3 21 C2.67 21 2.34 21 2 21 C2 16.38 2 11.76 2 7 C-1.96 7 -5.92 7 -10 7 C-10.33 6.01 -10.66 5.02 -11 4 C-10.37351563 3.79503906 -9.74703125 3.59007812 -9.1015625 3.37890625 C-8.28429687 3.10949219 -7.46703125 2.84007812 -6.625 2.5625 C-5.81289062 2.29566406 -5.00078125 2.02882813 -4.1640625 1.75390625 C-1.98968201 1.04820271 -1.98968201 1.04820271 0 0 Z " fill="#171616" transform="translate(251,680)"/>
<path d="M0 0 C0.33 0.66 0.66 1.32 1 2 C16.84 2 32.68 2 49 2 C49 1.34 49 0.68 49 0 C51.64 0.66 54.28 1.32 57 2 C57 2.33 57 2.66 57 3 C37.86 3 18.72 3 -1 3 C-0.67 2.01 -0.34 1.02 0 0 Z " fill="#5F4440" transform="translate(582,219)"/>
<path d="M0 0 C2.64680904 0.11339204 5.29177518 0.24012873 7.9375 0.375 C9.06961914 0.42140625 9.06961914 0.42140625 10.22460938 0.46875 C12.15507395 0.5726315 14.07942081 0.77895614 16 1 C17.34245892 3.68491785 17.02549373 6.0850533 16.9375 9.02734375 C16.91266984 11.2147211 16.91266984 11.2147211 18 14 C21.3 14 24.6 14 28 14 C27.67 14.66 27.34 15.32 27 16 C25.02090602 16.02686553 23.04171029 16.04633375 21.0625 16.0625 C19.96035156 16.07410156 18.85820312 16.08570313 17.72265625 16.09765625 C15 16 15 16 14 15 C13.85606543 10.66469082 13.95787939 6.33842269 14 2 C9.71 2 5.42 2 1 2 C0.67 1.34 0.34 0.68 0 0 Z " fill="#181817" transform="translate(297,798)"/>
<path d="M0 0 C0.33 0 0.66 0 1 0 C1 2.31 1 4.62 1 7 C1.99 6.67 2.98 6.34 4 6 C4 6.99 4 7.98 4 9 C-0.29 9 -4.58 9 -9 9 C-9 7.68 -9 6.36 -9 5 C-6.36 5 -3.72 5 -1 5 C-0.67 3.35 -0.34 1.7 0 0 Z " fill="#131212" transform="translate(825,523)"/>
<path d="M0 0 C0.99 0 1.98 0 3 0 C3 0.66 3 1.32 3 2 C2.34 2 1.68 2 1 2 C1 5.96 1 9.92 1 14 C-1.29160319 14.02692484 -3.58329546 14.04636124 -5.875 14.0625 C-7.15117187 14.07410156 -8.42734375 14.08570313 -9.7421875 14.09765625 C-13 14 -13 14 -15 13 C-15.28571429 4.42857143 -15.28571429 4.42857143 -13 1 C-12.67 1 -12.34 1 -12 1 C-12 4.96 -12 8.92 -12 13 C-8.04 13 -4.08 13 0 13 C0 8.71 0 4.42 0 0 Z " fill="#161616" transform="translate(510,249)"/>
<path d="M0 0 C4.62 0 9.24 0 14 0 C14 0.66 14 1.32 14 2 C10.7 2 7.4 2 4 2 C4.33 2.99 4.66 3.98 5 5 C4.01 5.66 3.02 6.32 2 7 C2 7.66 2 8.32 2 9 C2.66 9.33 3.32 9.66 4 10 C3.34 10.66 2.68 11.32 2 12 C1.34 12 0.68 12 0 12 C0 8.04 0 4.08 0 0 Z " fill="#111110" transform="translate(524,235)"/>
<path d="M0 0 C3.96 0 7.92 0 12 0 C11.525625 0.845625 11.05125 1.69125 10.5625 2.5625 C8.94278487 6.12587329 8.38743857 9.12561425 8 13 C7.67 13 7.34 13 7 13 C7 9.7 7 6.4 7 3 C4.69 3 2.38 3 0 3 C0 2.01 0 1.02 0 0 Z " fill="#101010" transform="translate(690,277)"/>
<path d="M0 0 C0.66 0 1.32 0 2 0 C2.125 7.75 2.125 7.75 1 10 C1.66 10.33 2.32 10.66 3 11 C2.67 11.66 2.34 12.32 2 13 C0.68 13 -0.64 13 -2 13 C-2.16682272 8.07872966 -2.24828052 4.49656104 0 0 Z " fill="#0D0D0D" transform="translate(215,574)"/>
<path d="M0 0 C0.33 1.32 0.66 2.64 1 4 C-3.62 4 -8.24 4 -13 4 C-11 1 -11 1 -8.90625 0.48828125 C-8.1121875 0.43027344 -7.318125 0.37226563 -6.5 0.3125 C-5.7059375 0.24675781 -4.911875 0.18101562 -4.09375 0.11328125 C-2.73063798 0.03953079 -1.36510568 0 0 0 Z " fill="#EDA8A4" transform="translate(630,216)"/>
<path d="M0 0 C6.6 0 13.2 0 20 0 C20 0.33 20 0.66 20 1 C15.02936879 1.91297308 10.97063121 1.91297308 6 1 C5.67 1.99 5.34 2.98 5 4 C4.01 4 3.02 4 2 4 C1.34 4.66 0.68 5.32 0 6 C0 4.02 0 2.04 0 0 Z " fill="#EB8E8A" transform="translate(469,460)"/>
<path d="M0 0 C0.04254356 1.99954746 0.04080783 4.00041636 0 6 C-1 7 -1 7 -3.50390625 7.09765625 C-5.01791016 7.08025391 -5.01791016 7.08025391 -6.5625 7.0625 C-7.57441406 7.05347656 -8.58632813 7.04445313 -9.62890625 7.03515625 C-10.41136719 7.02355469 -11.19382812 7.01195312 -12 7 C-12 6.67 -12 6.34 -12 6 C-10.02 5.67 -8.04 5.34 -6 5 C-5.67 3.68 -5.34 2.36 -5 1 C-1.125 0 -1.125 0 0 0 Z " fill="#161516" transform="translate(816,567)"/>
<path d="M0 0 C4.29 0 8.58 0 13 0 C13 0.66 13 1.32 13 2 C9.04 2 5.08 2 1 2 C1 4.31 1 6.62 1 9 C-1.33760758 5.28732913 -0.9611085 4.80554252 0 0 Z " fill="#302827" transform="translate(368,220)"/>
<path d="M0 0 C0.66 0.33 1.32 0.66 2 1 C2.4140625 3.72265625 2.4140625 3.72265625 2.625 7.0625 C2.69976562 8.16722656 2.77453125 9.27195312 2.8515625 10.41015625 C2.90054687 11.26480469 2.94953125 12.11945312 3 13 C1.68 13.33 0.36 13.66 -1 14 C-1.02685938 11.85423363 -1.04633088 9.70837355 -1.0625 7.5625 C-1.07410156 6.36753906 -1.08570313 5.17257812 -1.09765625 3.94140625 C-1 1 -1 1 0 0 Z " fill="#141413" transform="translate(326,812)"/>
<path d="M0 0 C4.95 0.33 9.9 0.66 15 1 C14.67 1.66 14.34 2.32 14 3 C8.66174407 4.39356576 4.08931047 4.21841738 -1 2 C-0.67 1.34 -0.34 0.68 0 0 Z " fill="#EDB0AB" transform="translate(397,216)"/>
<path d="M0 0 C0.33 0 0.66 0 1 0 C1.19789024 3.22861733 1.38146345 6.45789727 1.5625 9.6875 C1.61857422 10.59951172 1.67464844 11.51152344 1.73242188 12.45117188 C1.78076172 13.33740234 1.82910156 14.22363281 1.87890625 15.13671875 C1.94960327 16.35427856 1.94960327 16.35427856 2.02172852 17.59643555 C1.99838228 20.1789485 1.5804792 22.48849909 1 25 C-1 23 -1 23 -1.13525391 20.66162109 C-1.08288574 19.70852051 -1.03051758 18.75541992 -0.9765625 17.7734375 C-0.925 16.7421875 -0.8734375 15.7109375 -0.8203125 14.6484375 C-0.75585938 13.56820312 -0.69140625 12.48796875 -0.625 11.375 C-0.56828125 10.28703125 -0.5115625 9.1990625 -0.453125 8.078125 C-0.3113698 5.38477613 -0.15993358 2.6923207 0 0 Z " fill="#D6908C" transform="translate(382,196)"/>
<path d="M0 0 C0.99 0.33 1.98 0.66 3 1 C1.87204037 5.10899581 0.66489182 9.07561214 -1 13 C-1.33 13 -1.66 13 -2 13 C-2.05391993 11.20866022 -2.09275571 9.41686101 -2.125 7.625 C-2.14820313 6.62726562 -2.17140625 5.62953125 -2.1953125 4.6015625 C-2 2 -2 2 0 0 Z " fill="#131212" transform="translate(413,841)"/>
<path d="M0 0 C0.33 0 0.66 0 1 0 C1 2.31 1 4.62 1 7 C-2.3 7 -5.6 7 -9 7 C-9 6.34 -9 5.68 -9 5 C-6.36 5 -3.72 5 -1 5 C-0.67 3.35 -0.34 1.7 0 0 Z " fill="#0B0B0B" transform="translate(825,523)"/>
<path d="M0 0 C0.33 0 0.66 0 1 0 C1 4.29 1 8.58 1 13 C0.01 13.495 0.01 13.495 -1 14 C-1.22226864 12.23086176 -1.42733873 10.45955629 -1.625 8.6875 C-1.74101563 7.70136719 -1.85703125 6.71523438 -1.9765625 5.69921875 C-2 3 -2 3 0 0 Z " fill="#161716" transform="translate(674,814)"/>
<path d="M0 0 C1.50433594 0.29197266 1.50433594 0.29197266 3.0390625 0.58984375 C4.19535156 0.82380859 4.19535156 0.82380859 5.375 1.0625 C5.375 1.3925 5.375 1.7225 5.375 2.0625 C1.745 2.0625 -1.885 2.0625 -5.625 2.0625 C-5.625 4.7025 -5.625 7.3425 -5.625 10.0625 C-5.955 10.0625 -6.285 10.0625 -6.625 10.0625 C-6.955 6.7625 -7.285 3.4625 -7.625 0.0625 C-4.81015955 -1.34492022 -3.05563887 -0.60402164 0 0 Z " fill="#BB7E7D" transform="translate(764.625,318.9375)"/>
<path d="M0 0 C3.3 0 6.6 0 10 0 C10 1.32 10 2.64 10 4 C9.01 4.495 9.01 4.495 8 5 C8 4.01 8 3.02 8 2 C5.36 2 2.72 2 0 2 C0 1.34 0 0.68 0 0 Z " fill="#D79A95" transform="translate(622,192)"/>
<path d="M0 0 C0.33 0 0.66 0 1 0 C1 3.63 1 7.26 1 11 C0.01 11 -0.98 11 -2 11 C-2.28571429 3.57142857 -2.28571429 3.57142857 0 0 Z " fill="#1B1A1B" transform="translate(758,687)"/>
<path d="M0 0 C4.62 0 9.24 0 14 0 C12.515 1.485 12.515 1.485 11 3 C10.01 3 9.02 3 8 3 C8 2.34 8 1.68 8 1 C5.36 1.66 2.72 2.32 0 3 C0 2.01 0 1.02 0 0 Z " fill="#181616" transform="translate(468,236)"/>
<path d="M0 0 C2.64 0.66 5.28 1.32 8 2 C8 2.33 8 2.66 8 3 C2.39 3 -3.22 3 -9 3 C-9 2.67 -9 2.34 -9 2 C-6.03 2 -3.06 2 0 2 C0 1.34 0 0.68 0 0 Z " fill="#6B514F" transform="translate(631,219)"/>
<path d="M0 0 C1.98 0 3.96 0 6 0 C5.67 0.99 5.34 1.98 5 3 C4.01 3 3.02 3 2 3 C1.34 3.66 0.68 4.32 0 5 C0 3.35 0 1.7 0 0 Z " fill="#ED9593" transform="translate(469,461)"/>
<path d="M0 0 C1.32 0 2.64 0 4 0 C4 2.97 4 5.94 4 9 C3.67 9 3.34 9 3 9 C2.896875 8.05125 2.79375 7.1025 2.6875 6.125 C2.31460705 2.70892499 2.31460705 2.70892499 -1 1 C-0.67 0.67 -0.34 0.34 0 0 Z " fill="#0E0E0E" transform="translate(669,237)"/>
</svg>
